<?xml version="1.0" encoding="UTF-8"?>
<svg width="259px" height="226px" viewBox="0 0 259 226" version="1.1" xmlns="http://www.w3.org/2000/svg" xmlns:xlink="http://www.w3.org/1999/xlink">
    <!-- Generator: Sketch 55.2 (78181) - https://sketchapp.com -->
    <title>Slice</title>
    <desc>Created with Sketch.</desc>
    <g id="Page-1" stroke="none" stroke-width="1" fill="none" fill-rule="evenodd">
        <g id="5ade808fa6b645356b69d4cb_knowledge-intelligence" transform="translate(-317.000000, -380.000000)" fill="#443356" fill-rule="nonzero">
            <g id="Shape" transform="translate(366.000000, 391.000000)">
                <path d="M137,89.3 C136.4,89.3 136,88.9 136,88.3 C136,87.7 136.4,87.3 137,87.3 C142.8,87.3 147.6,82.5 147.6,76.7 C147.6,71.2 143.5,66.6 138,66.2 C137.7,66.2 137.4,66 137.3,65.8 C137.1,65.6 137.1,65.3 137.1,65 C137.5,63.1 137.8,61.2 137.8,59.3 C137.8,45.6 126.6,34.4 112.9,34.4 C108.7,34.4 104.5,35.5 100.9,37.5 C100.6,37.7 100.3,37.7 100,37.5 C99.7,37.4 99.5,37.1 99.5,36.7 C97.5,22.5 85.2,11.8 70.8,11.8 C57.7,11.8 46.2,20.6 42.8,33.3 C42.7,33.6 42.5,33.9 42.2,34 C41.9,34.1 41.6,34.1 41.3,33.9 C36.1,30.3 30.1,28.5 23.8,28.5 C15.6,28.5 7.8,31.7 2,37.5 C1.6,37.9 1,37.9 0.6,37.5 C0.2,37.1 0.2,36.5 0.6,36.1 C6.8,29.9 15,26.5 23.8,26.5 C30,26.5 36,28.2 41.3,31.5 C45.3,18.7 57.3,9.9 70.8,9.9 C85.7,9.9 98.5,20.6 101.2,35.1 C104.8,33.3 108.9,32.4 112.9,32.4 C127.7,32.4 139.8,44.5 139.8,59.3 C139.8,61 139.6,62.7 139.3,64.4 C145.3,65.5 149.6,70.6 149.6,76.8 C149.6,83.6 143.9,89.3 137,89.3 Z" id="Path" opacity="0.49"></path>
                <path d="M151.2,72.7 C150.7,72.7 150.3,72.4 150.2,71.9 C150.1,71.4 150.5,70.8 151,70.7 C167.3,67.6 179.2,53.3 179.2,36.7 C179.2,17.6 163.7,2.1 144.6,2.1 C128,2.1 113.7,13.9 110.6,30.2 C110.5,30.7 110,31.1 109.4,31 C108.9,30.9 108.5,30.4 108.6,29.8 C111.9,12.6 127,0 144.5,0 C164.7,0 181.1,16.4 181.1,36.6 C181.1,54.2 168.6,69.3 151.3,72.5 C151.3,72.6 151.2,72.7 151.2,72.7 Z" id="Path" opacity="0.19"></path>
            </g>
        </g>
        <path d="M38.7,146.6 C36.2,146.2 34.1,148.2 34.2,150.6 C34.3,151.9 35,153.1 36.1,153.7 C36.3,153.8 36.4,154 36.4,154.3 L36.2,159.9 C36.3,161.7 35.5,161.9 34.2,163.2 L34.1,163.3 C33.7,163.6 33.4,164 33.4,164.3 L33.5,166.5 C33.6,167.8 35.9,168.8 38.8,168.7 C41.7,168.6 43.9,167.4 43.9,166.1 L43.8,163.9 C43.8,163.5 43.5,163.2 43.1,162.9 L43,162.9 C41.6,161.8 40.8,161.6 40.7,159.8 L40.1,154.2 C40.1,154 40.2,153.7 40.4,153.6 C41.6,152.7 42.3,151.2 41.9,149.6 C41.4,148.1 40.2,146.9 38.7,146.6 Z" id="Path" fill="#443356" fill-rule="nonzero"></path>
        <path d="M116.9,172.6 C114.4,172.2 112.3,174.2 112.4,176.6 C112.5,177.9 113.2,179.1 114.3,179.7 C114.5,179.8 114.6,180 114.6,180.3 L114.4,185.9 C114.5,187.7 113.7,187.9 112.4,189.2 L112.3,189.3 C111.9,189.6 111.6,190 111.6,190.3 L111.7,192.5 C111.8,193.8 114.1,194.8 117,194.7 C119.9,194.6 122.1,193.4 122.1,192.1 L122,189.9 C122,189.5 121.7,189.2 121.3,188.9 L121.2,188.9 C119.8,187.8 119,187.6 118.9,185.8 L118.3,180.2 C118.3,180 118.4,179.7 118.6,179.6 C119.8,178.7 120.5,177.2 120.1,175.6 C119.6,174.1 118.4,172.9 116.9,172.6 Z" id="Path" fill="#443356" fill-rule="nonzero"></path>
        <path d="M188,139.5 C185.5,139 183.3,140.9 183.3,143.3 C183.3,144.6 184,145.8 185,146.5 C185.2,146.6 185.3,146.9 185.3,147.1 L184.9,152.7 C184.9,154.5 184.1,154.7 182.7,155.9 L182.6,156 C182.2,156.3 181.9,156.6 181.9,157 L181.9,159.3 C181.9,160.6 184.2,161.7 187.1,161.7 C190,161.7 192.3,160.6 192.3,159.3 L192.3,157 C192.3,156.6 192,156.3 191.6,156 L191.5,155.9 C190.1,154.8 189.3,154.5 189.3,152.7 L189,147 C189,146.8 189.1,146.5 189.3,146.4 C190.5,145.6 191.3,144.1 191,142.5 C190.7,141 189.5,139.8 188,139.5 Z" id="Path" fill="#443356" fill-rule="nonzero"></path>
        <path d="M230,154.1 C227.5,153.6 225.3,155.5 225.3,157.9 C225.3,159.2 226,160.4 227,161.1 C227.2,161.2 227.3,161.5 227.3,161.7 L226.9,167.3 C226.9,169.1 226.1,169.3 224.7,170.5 L224.6,170.6 C224.2,170.9 223.9,171.2 223.9,171.6 L223.9,173.9 C223.9,175.2 226.2,176.3 229.1,176.3 C232,176.3 234.3,175.2 234.3,173.9 L234.3,171.6 C234.3,171.2 234,170.9 233.6,170.6 L233.5,170.5 C232.1,169.4 231.3,169.1 231.3,167.3 L230.9,161.7 C230.9,161.5 231,161.2 231.2,161.1 C232.4,160.3 233.2,158.8 232.9,157.2 C232.7,155.7 231.5,154.4 230,154.1 Z" id="Path" fill="#443356" fill-rule="nonzero"></path>
        <path d="M68.2,199.7 C55.3,199.7 42.4,199.7 29.5,199.6 C28.9,199.6 28.5,199.1 28.5,198.6 C28.5,198 28.9,197.6 29.5,197.6 C29.5,197.6 29.5,197.6 29.5,197.6 C64.9,197.7 101,197.6 135.8,197.5 L141.9,197.5 C142.4,197.5 142.9,197.9 142.9,198.5 C142.9,199.1 142.5,199.5 141.9,199.5 L135.8,199.5 C113.6,199.6 90.9,199.7 68.2,199.7 Z" id="Path" fill="#443356" fill-rule="nonzero"></path>
        <path d="M151.3,199.5 C150.7,199.5 150.3,199.1 150.3,198.5 C150.3,197.9 150.7,197.5 151.3,197.5 C172.8,197.4 195.9,197.4 218.6,197.4 C219.2,197.4 219.6,197.8 219.6,198.4 C219.6,199 219.2,199.4 218.6,199.4 C195.9,199.4 172.8,199.4 151.3,199.5 C151.3,199.5 151.3,199.5 151.3,199.5 Z" id="Path" fill="#443356" fill-rule="nonzero"></path>
        <path d="M249.5,196.2 C249.1,196.2 248.8,196 248.6,195.7 C246.9,192.4 245.2,189.1 243.5,185.7 C241.7,182.1 239.8,178.4 238,174.8 C237.7,174.3 237.9,173.7 238.4,173.5 C238.9,173.2 239.5,173.4 239.7,173.9 C241.6,177.5 243.4,181.2 245.3,184.8 C247,188.1 248.7,191.5 250.4,194.8 C250.7,195.3 250.5,195.9 250,196.1 C249.8,196.2 249.6,196.2 249.5,196.2 Z" id="Path" fill="#443356" fill-rule="nonzero"></path>
        <path d="M235.6,169 C235.2,169 234.9,168.8 234.7,168.5 C231.8,162.9 229.2,158.1 226.8,153.9 C226.5,153.4 226.7,152.8 227.2,152.5 C227.7,152.2 228.3,152.4 228.6,152.9 C231,157.1 233.6,161.9 236.6,167.6 C236.9,168.1 236.7,168.7 236.2,168.9 C235.9,169 235.7,169 235.6,169 Z" id="Path" fill="#443356" fill-rule="nonzero"></path>
        <path d="M132.9,152.3 C132.3,152.3 131.9,151.9 131.9,151.3 C131.9,150.7 132.3,150.3 132.9,150.3 L135.9,150.3 C164.2,150.2 193.4,150.1 222.1,150.2 C222.7,150.2 223.1,150.6 223.1,151.2 C223.1,151.8 222.7,152.2 222.1,152.2 C222.1,152.2 222.1,152.2 222.1,152.2 C193.4,152.2 164.2,152.2 135.9,152.3 L132.9,152.3 C132.9,152.3 132.9,152.3 132.9,152.3 Z" id="Path" fill="#443356" fill-rule="nonzero"></path>
        <path d="M68,152.5 C61.3,152.5 54.5,152.5 47.8,152.5 C47.2,152.5 46.8,152.1 46.8,151.5 C46.8,150.9 47.2,150.5 47.8,150.5 C47.8,150.5 47.8,150.5 47.8,150.5 C73.7,150.6 99.8,150.5 122.3,150.4 C122.3,150.4 122.3,150.4 122.3,150.4 C122.9,150.4 123.3,150.8 123.3,151.4 C123.3,152 122.9,152.4 122.3,152.4 C105.7,152.4 87,152.5 68,152.5 Z" id="Path" fill="#443356" fill-rule="nonzero"></path>
        <path d="M19.9,179.5 C19.7,179.5 19.6,179.5 19.4,179.4 C18.9,179.1 18.7,178.5 19,178 C21.3,173.7 23.6,169.5 25.8,165.3 C31.2,155.3 36.8,145 42.4,133.7 C42.6,133.2 43.2,133 43.7,133.2 C44.2,133.4 44.4,134 44.2,134.5 C38.7,145.8 33,156.2 27.6,166.2 C25.3,170.4 23,174.6 20.8,178.8 C20.6,179.3 20.2,179.5 19.9,179.5 Z" id="Path" fill="#443356" fill-rule="nonzero"></path>
        <path d="M42.4,196.5 C42.3,196.5 42.1,196.5 42,196.4 C41.5,196.2 41.3,195.6 41.5,195.1 C48.6,179.8 54.6,165.8 60.3,151.2 C60.5,150.7 61.1,150.4 61.6,150.6 C62.1,150.8 62.4,151.4 62.2,151.9 C56.5,166.6 50.5,180.6 43.4,196 C43.1,196.3 42.7,196.5 42.4,196.5 Z" id="Path" fill="#443356" fill-rule="nonzero"></path>
        <path d="M61.9,199.7 C61.8,199.7 61.7,199.7 61.5,199.6 C61,199.4 60.7,198.8 60.9,198.3 C66.1,184.5 71.4,168.7 76.6,151.2 C76.8,150.7 77.3,150.4 77.8,150.5 C78.3,150.7 78.6,151.2 78.5,151.7 C73.2,169.2 67.9,185.1 62.7,199 C62.7,199.4 62.3,199.7 61.9,199.7 Z" id="Path" fill="#443356" fill-rule="nonzero"></path>
        <path d="M83,199.6 C82.9,199.6 82.8,199.6 82.7,199.6 C82.2,199.5 81.8,198.9 82,198.4 C85.5,185.2 89.2,169.8 93.2,151.2 C93.3,150.7 93.9,150.3 94.4,150.4 C94.9,150.5 95.3,151.1 95.2,151.6 C91.1,170.2 87.4,185.6 83.9,198.8 C83.8,199.4 83.4,199.6 83,199.6 Z" id="Path" fill="#443356" fill-rule="nonzero"></path>
        <path d="M104,199.6 C103.9,199.6 103.9,199.6 103.8,199.6 C103.3,199.5 102.9,199 103,198.5 C104.1,191.6 105.1,184.3 106.3,176.2 C106.4,175.7 106.9,175.3 107.4,175.4 C107.9,175.5 108.3,176 108.2,176.5 C107,184.7 105.9,192 104.9,198.9 C104.9,199.3 104.5,199.6 104,199.6 Z" id="Path" fill="#443356" fill-rule="nonzero"></path>
        <path d="M108.4,169.4 C108.4,169.4 108.3,169.4 108.3,169.4 C107.8,169.3 107.4,168.8 107.4,168.3 C108.2,162.7 109,157 109.7,151.3 C109.8,150.8 110.3,150.4 110.8,150.4 C111.3,150.5 111.7,151 111.7,151.5 C110.9,157.3 110.1,163 109.4,168.5 C109.3,169.1 108.9,169.4 108.4,169.4 Z" id="Path" fill="#443356" fill-rule="nonzero"></path>
        <path d="M125,199.6 C125,199.6 125,199.6 125,199.6 C124.4,199.6 124,199.1 124,198.6 C124.7,184.1 125.4,169.2 126.1,154.1 C126.1,153.5 126.6,153.1 127.1,153.1 C127.7,153.1 128.1,153.6 128.1,154.1 C127.4,169.2 126.7,184.2 126,198.6 C126,199.1 125.5,199.6 125,199.6 Z" id="Path" fill="#443356" fill-rule="nonzero"></path>
        <path d="M145.9,196.8 C145.4,196.8 144.9,196.4 144.9,195.8 C144.2,180.6 143.5,165.9 142.8,151.3 C142.8,150.7 143.2,150.3 143.8,150.3 C144.4,150.3 144.8,150.7 144.8,151.3 C145.5,165.9 146.2,180.6 146.9,195.8 C146.9,196.3 146.5,196.8 145.9,196.8 C145.9,196.8 145.9,196.8 145.9,196.8 Z" id="Path" fill="#443356" fill-rule="nonzero"></path>
        <path d="M167.1,199.5 C166.6,199.5 166.2,199.1 166.1,198.6 C164.1,183.4 161.9,168 159.3,151.4 C159.2,150.9 159.6,150.3 160.1,150.3 C160.7,150.2 161.2,150.6 161.2,151.1 C163.7,167.7 165.9,183.1 168,198.3 C168.1,198.8 167.7,199.4 167.1,199.4 C167.1,199.4 167.1,199.5 167.1,199.5 Z" id="Path" fill="#443356" fill-rule="nonzero"></path>
        <path d="M188.1,199.4 C187.6,199.4 187.2,199.1 187.1,198.6 C183.6,182.4 179.9,167 175.9,151.5 C175.8,151 176.1,150.4 176.6,150.3 C177.1,150.2 177.7,150.5 177.8,151 C181.9,166.5 185.6,182 189.1,198.2 C189.2,198.7 188.9,199.3 188.3,199.4 C188.2,199.4 188.2,199.4 188.1,199.4 Z" id="Path" fill="#443356" fill-rule="nonzero"></path>
        <path d="M209.1,199.4 C208.7,199.4 208.3,199.1 208.1,198.7 C202.9,181.5 197.6,165.6 192.4,151.6 C192.2,151.1 192.5,150.5 193,150.3 C193.5,150.1 194.1,150.4 194.3,150.9 C199.6,165 204.9,180.9 210.1,198.2 C210.3,198.7 210,199.3 209.4,199.4 C209.3,199.4 209.2,199.4 209.1,199.4 Z" id="Path" fill="#443356" fill-rule="nonzero"></path>
        <path d="M230.1,199.4 C229.7,199.4 229.3,199.2 229.2,198.8 C228.5,197.1 227.8,195.3 227.1,193.6 C226.9,193.1 227.1,192.5 227.7,192.3 C228.2,192.1 228.8,192.3 229,192.9 C229.7,194.6 230.4,196.4 231.1,198.1 C231.3,198.6 231.1,199.2 230.5,199.4 C230.4,199.4 230.3,199.4 230.1,199.4 Z" id="Path" fill="#443356" fill-rule="nonzero"></path>
        <path d="M224.1,184.3 C223.7,184.3 223.3,184.1 223.2,183.7 C218,171.1 213.4,160.6 209.1,151.6 C208.9,151.1 209.1,150.5 209.6,150.3 C210.1,150.1 210.7,150.3 210.9,150.8 C215.3,159.8 219.9,170.3 225.1,183 C225.3,183.5 225.1,184.1 224.6,184.3 C224.3,184.3 224.2,184.3 224.1,184.3 Z" id="Path" fill="#443356" fill-rule="nonzero"></path>
        <path d="M83.6,152.5 C83,152.5 82.6,152.1 82.6,151.5 C82.6,150.9 83,150.5 83.6,150.5 C96.5,150.5 109.4,150.5 122.3,150.4 C122.3,150.4 122.3,150.4 122.3,150.4 C122.9,150.4 123.3,150.8 123.3,151.4 C123.3,152 122.9,152.4 122.3,152.4 C109.4,152.4 96.5,152.4 83.6,152.5 Z" id="Path" fill="#443356" fill-rule="nonzero"></path>
        <path d="M131.6,152.4 C131,152.4 130.6,152 130.6,151.4 C130.6,150.8 131,150.4 131.6,150.4 L136.3,150.4 C153.4,150.4 170.5,150.3 187.6,150.3 C188.2,150.3 188.6,150.7 188.6,151.3 C188.6,151.9 188.2,152.3 187.6,152.3 C170.5,152.3 153.4,152.4 136.3,152.4 L131.6,152.4 C131.6,152.4 131.6,152.4 131.6,152.4 Z" id="Path" fill="#443356" fill-rule="nonzero"></path>
        <path d="M68,159.5 C61.1,159.5 54.3,159.5 47.5,159.4 C46.9,159.4 46.5,158.9 46.5,158.4 C46.5,157.9 47,157.4 47.5,157.4 C47.5,157.4 47.5,157.4 47.5,157.4 C76.8,157.7 106.6,157.3 135.4,156.8 L138.3,156.8 C138.3,156.8 138.3,156.8 138.3,156.8 C138.8,156.8 139.3,157.2 139.3,157.8 C139.3,158.4 138.9,158.8 138.3,158.8 L135.4,158.8 C113.4,159.1 90.6,159.5 68,159.5 Z" id="Path" fill="#443356" fill-rule="nonzero"></path>
        <path d="M149.9,158.5 C149.4,158.5 148.9,158.1 148.9,157.5 C148.9,156.9 149.3,156.5 149.9,156.5 C174,156.1 202,155.8 229.8,156.2 C230.4,156.2 230.8,156.7 230.8,157.2 C230.8,157.7 230.3,158.2 229.8,158.2 C201.9,157.8 174,158.1 149.9,158.5 C149.9,158.5 149.9,158.5 149.9,158.5 Z" id="Path" fill="#443356" fill-rule="nonzero"></path>
        <path d="M68,166.8 C57.8,166.8 47.7,166.7 37.6,166.4 C37,166.4 36.6,165.9 36.6,165.4 C36.6,164.8 37.1,164.4 37.6,164.4 C70.2,165.4 103.4,164.5 135.4,163.6 C167.5,162.8 200.7,161.9 233.3,162.8 C233.9,162.8 234.3,163.3 234.3,163.8 C234.3,164.3 233.8,164.8 233.3,164.8 C233.3,164.8 233.3,164.8 233.3,164.8 C200.7,163.8 167.5,164.7 135.5,165.6 C113.4,166.2 90.7,166.8 68,166.8 Z" id="Path" fill="#443356" fill-rule="nonzero"></path>
        <path d="M68.1,174.5 C56.6,174.5 45.2,174.3 33.7,173.9 C33.1,173.9 32.7,173.4 32.7,172.9 C32.7,172.4 33.2,171.9 33.7,171.9 C67.6,173.3 102.1,172.2 135.5,171.1 L137.5,171 C138.1,171 138.5,171.4 138.5,172 C138.5,172.6 138.1,173 137.5,173 L135.5,173.1 C113.4,173.8 90.7,174.5 68.1,174.5 Z" id="Path" fill="#443356" fill-rule="nonzero"></path>
        <path d="M148.3,172.7 C147.8,172.7 147.3,172.3 147.3,171.7 C147.3,171.1 147.7,170.7 148.3,170.7 C175.3,169.9 204.1,169.2 233.2,170.2 C233.8,170.2 234.2,170.7 234.2,171.2 C234.2,171.7 233.7,172.2 233.2,172.2 C204,171.2 175.3,171.9 148.3,172.7 C148.3,172.7 148.3,172.7 148.3,172.7 Z" id="Path" fill="#443356" fill-rule="nonzero"></path>
        <path d="M68.1,182.5 C55.2,182.5 42.3,182.3 29.5,181.7 C28.9,181.7 28.5,181.2 28.5,180.7 C28.5,180.1 29,179.7 29.5,179.7 C64.8,181.3 100.7,180.2 135.4,179.1 C149.1,178.7 163.3,178.3 177.2,178 C177.7,178 178.2,178.4 178.2,179 C178.2,179.6 177.8,180 177.2,180 C163.3,180.3 149.1,180.7 135.4,181.1 C113.4,181.9 90.7,182.5 68.1,182.5 Z" id="Path" fill="#443356" fill-rule="nonzero"></path>
        <path d="M241.5,180.6 C241.5,180.6 241.5,180.6 241.5,180.6 C226,179.9 209.1,179.7 189.8,179.9 C189.8,179.9 189.8,179.9 189.8,179.9 C189.3,179.9 188.8,179.5 188.8,178.9 C188.8,178.3 189.2,177.9 189.8,177.9 C209.1,177.7 226,177.9 241.6,178.6 C242.2,178.6 242.6,179.1 242.6,179.6 C242.5,180.2 242.1,180.6 241.5,180.6 Z" id="Path" fill="#443356" fill-rule="nonzero"></path>
        <path d="M55.7,190.9 C55.7,190.9 55.7,190.9 55.7,190.9 C44.7,190.8 34.6,190.6 24.8,190.2 C24.2,190.2 23.8,189.7 23.8,189.2 C23.8,188.7 24.3,188.2 24.8,188.2 C24.8,188.2 24.8,188.2 24.8,188.2 C34.6,188.6 44.7,188.8 55.6,188.9 C56.2,188.9 56.6,189.4 56.6,189.9 C56.7,190.4 56.3,190.9 55.7,190.9 Z" id="Path" fill="#443356" fill-rule="nonzero"></path>
        <path d="M73.3,190.9 C72.7,190.9 72.3,190.5 72.3,189.9 C72.3,189.3 72.7,188.9 73.3,188.9 C94,188.8 115.1,188.4 135.5,187.9 C171.8,187.1 209.3,186.3 246.2,187.7 C246.8,187.7 247.2,188.2 247.2,188.7 C247.2,189.2 246.7,189.7 246.2,189.7 C246.2,189.7 246.2,189.7 246.2,189.7 C209.4,188.4 171.9,189.2 135.6,189.9 C115.1,190.4 94,190.9 73.3,190.9 C73.3,190.9 73.3,190.9 73.3,190.9 Z" id="Path" fill="#443356" fill-rule="nonzero"></path>
        <path d="M69.4,199.7 C68.8,199.7 68.4,199.3 68.4,198.7 C68.4,198.1 68.8,197.7 69.4,197.7 C91.3,197.7 113.7,197.6 135.2,197.6 L139.2,197.6 C139.7,197.6 140.2,198 140.2,198.6 C140.2,199.2 139.8,199.6 139.2,199.6 L135.2,199.6 C113.7,199.6 91.3,199.7 69.4,199.7 Z" id="Path" fill="#443356" fill-rule="nonzero"></path>
        <path d="M152.9,199.5 C152.3,199.5 151.9,199.1 151.9,198.5 C151.9,197.9 152.3,197.5 152.9,197.5 C169.1,197.5 185.4,197.4 201.6,197.4 C202.2,197.4 202.6,197.8 202.6,198.4 C202.6,199 202.2,199.4 201.6,199.4 C185.4,199.4 169.2,199.4 152.9,199.5 C152.9,199.5 152.9,199.5 152.9,199.5 Z" id="Path" fill="#443356" fill-rule="nonzero"></path>
        <path d="M70.3,166.2 C70.3,165.7 69.7,165.3 68.8,164.9 L68.5,164.8 L68.4,164.6 C68.4,163.9 68,163.4 67.3,163.2 C67.1,163.1 66.9,162.9 66.9,162.6 C67.1,159.3 66,156.4 65.2,154.6 C64.9,153.9 65.2,153.2 66,153 L66.5,152.9 C67,153.5 68.5,152.8 69.2,152.4 C70,151.1 69.5,149.4 68.1,148.9 C67.8,148.8 67.6,148.7 67.3,148.7 L65.6,148.6 C64.5,148.5 64.1,148.3 63,147.8 L62.4,147.6 C61.2,147.1 59.7,147.6 59.2,149.1 C59,149.7 59.1,150.3 59.3,150.9 C62.2,156.8 60.1,160.8 59.2,162.4 C58.9,163 58.7,163.7 58.7,164.4 L58.7,164.6 L58.7,164.7 C57.6,165.1 56.9,165.6 56.9,166.1 L56.9,169.3 C56.9,170.4 59.9,171.3 63.6,171.3 C67.3,171.3 70.3,170.4 70.2,169.3 L70.3,166.2 Z" id="Path" fill="#443356" fill-rule="nonzero"></path>
        <path d="M181.3,181.1 C181.3,180.6 180.8,180.2 179.8,179.8 L179.5,179.7 L179.4,179.5 C179.4,178.8 179,178.3 178.4,178.1 C178.2,178 178,177.8 178,177.5 C178.2,174.2 177.2,171.3 176.4,169.4 C176.1,168.7 176.4,168 177.2,167.8 L177.7,167.7 C178.2,168.3 179.7,167.7 180.4,167.3 C181.2,166.1 180.8,164.3 179.4,163.7 C179.2,163.6 178.9,163.5 178.6,163.5 L176.9,163.3 C175.8,163.2 175.4,163 174.4,162.5 L173.8,162.3 C172.6,161.8 171.1,162.3 170.5,163.7 C170.3,164.3 170.3,164.9 170.6,165.5 C173.4,171.5 171.2,175.4 170.3,177 C170,177.6 169.8,178.3 169.8,179 L169.8,179.2 L169.8,179.3 C168.7,179.6 168,180.1 168,180.7 L168,183.9 C168,185 171,186 174.6,186 C178.3,186 181.3,185.2 181.3,184.1 L181.3,181.1 Z" id="Path" fill="#443356" fill-rule="nonzero"></path>
        <path d="M1.9,179.1 C1.9,179.1 -1,164.1 12.9,179.1 L12.9,174.3 C12.9,172.2 14.9,170.7 16.9,171.3 C20.8,172.4 26.3,174.8 28.3,179.1 L28.6,178.3 C29.7,175.6 33.2,175 35.1,177.2 L38.1,180.6" id="Path" fill="#FFFFFF" fill-rule="nonzero"></path>
        <path d="M38.1,181.6 C37.8,181.6 37.6,181.5 37.4,181.3 L34.4,177.9 C33.7,177.2 32.7,176.8 31.7,177 C30.7,177.2 29.9,177.8 29.5,178.8 L29.2,179.6 C29.1,180 28.7,180.2 28.3,180.2 C27.9,180.2 27.5,180 27.4,179.6 C25.5,175.5 19.8,173.3 16.6,172.3 C16,172.1 15.3,172.2 14.8,172.6 C14.3,173 13.9,173.6 13.9,174.3 L13.9,179.1 C13.9,179.5 13.6,179.9 13.3,180 C12.9,180.2 12.5,180.1 12.2,179.7 C5.8,172.8 3.9,173.3 3.5,173.5 C2.5,174 2.5,176.9 2.9,178.9 C3,179.4 2.6,180 2.1,180.1 C1.6,180.2 1,179.8 0.9,179.3 C0.7,178.3 -0.1,173.1 2.5,171.8 C4.5,170.8 7.5,172.3 11.8,176.7 L11.8,174.4 C11.8,173.1 12.4,171.9 13.5,171.1 C14.5,170.3 15.9,170.1 17.1,170.4 C20.9,171.5 25.6,173.5 28.1,177.1 C28.8,176 30,175.3 31.3,175.1 C33,174.8 34.6,175.4 35.8,176.7 L38.8,180.1 C39.2,180.5 39.1,181.1 38.7,181.5 C38.6,181.5 38.4,181.6 38.1,181.6 Z" id="Path" fill="#443356" fill-rule="nonzero"></path>
        <path d="M57.4,200.8 L57,196.4 C56.8,194.3 58.6,192.8 59.8,194.1 L65,199.8 L67.2,193.9 C68,191.6 70.2,191.1 71.3,192.8 L73,195.4 C74.8,198.2 77.5,199.7 80.4,199.6 C83.6,199.4 87.8,198.7 91.6,196.8 C93.3,195.9 94.9,198.1 94,200.4" id="Path" fill="#FFFFFF" fill-rule="nonzero"></path>
        <path d="M57.4,201.8 C56.9,201.8 56.4,201.4 56.4,200.9 L56,196.5 C55.9,194.9 56.7,193.4 57.9,192.8 C58.8,192.4 59.8,192.6 60.5,193.4 L64.6,197.9 L66.2,193.6 C66.8,192.1 67.9,191 69.3,190.9 C70.4,190.8 71.5,191.3 72.2,192.4 L73.9,195 C75.5,197.5 77.9,198.8 80.4,198.7 C83.3,198.5 87.5,197.9 91.2,196 C92.2,195.5 93.3,195.6 94.1,196.3 C95.2,197.3 95.6,199.2 95,200.8 C94.8,201.3 94.2,201.6 93.7,201.4 C93.2,201.2 92.9,200.6 93.1,200.1 C93.5,199.1 93.2,198.1 92.8,197.7 C92.6,197.5 92.4,197.5 92.1,197.6 C88.1,199.7 83.6,200.4 80.5,200.5 C77.3,200.7 74.2,199 72.2,195.9 L70.5,193.3 C70.3,193 70,192.7 69.5,192.7 C68.9,192.8 68.4,193.3 68.1,194.1 L65.9,200 C65.8,200.3 65.5,200.6 65.2,200.6 C64.9,200.7 64.5,200.6 64.3,200.3 L59.1,194.6 C58.9,194.4 58.8,194.4 58.7,194.5 C58.4,194.6 57.9,195.3 58,196.2 L58.4,200.6 C58.4,201.3 58,201.8 57.4,201.8 C57.4,201.8 57.4,201.8 57.4,201.8 Z" id="Path" fill="#443356" fill-rule="nonzero"></path>
        <path d="M78,147.4 C77.5,147.4 77.1,147 77,146.5 L76.6,143.4 C76.4,142.2 77,140.9 77.9,140.5 C78.6,140.1 79.5,140.3 80.1,140.9 L82.8,143.5 L83.6,140.9 C84,139.7 84.8,138.8 85.9,138.7 C86.8,138.6 87.7,138.9 88.3,139.7 L89.6,141.5 C90.8,143.1 92.4,143.9 94,143.7 C96,143.5 98.8,142.9 101.3,141.4 C102.1,140.9 103,141 103.7,141.5 C104.6,142.2 105,143.6 104.6,145 C104.4,145.5 103.9,145.8 103.4,145.7 C102.9,145.5 102.6,145 102.7,144.5 C102.9,143.9 102.7,143.4 102.5,143.2 C102.5,143.2 102.4,143.2 102.4,143.2 C99.6,144.8 96.5,145.5 94.3,145.7 C91.9,146 89.7,144.9 88.1,142.7 L86.8,140.9 C86.7,140.7 86.5,140.6 86.4,140.7 C86.2,140.7 85.9,141 85.7,141.5 L84.4,145.7 C84.3,146 84,146.3 83.7,146.4 C83.4,146.5 83,146.4 82.8,146.1 L79,142.4 C78.9,142.5 78.7,142.8 78.8,143.2 L79.2,146.3 C79.3,146.8 78.9,147.4 78.3,147.4 C78.1,147.4 78.1,147.4 78,147.4 Z" id="Shape" fill="#443356" fill-rule="nonzero"></path>
        <path d="M219.1,201.7 L218.5,198.5 C218.2,197 220,195.9 221.2,196.9 L226.7,201.1 L228.6,196.9 C229.3,195.3 231.5,194.9 232.7,196.2 L234.5,198.1 C236.5,200.2 239.2,201.3 242,201.2 C245.1,201.1 249.3,200.7 253,199.3 C254.7,198.7 256.3,200.3 255.6,202" id="Path" fill="#FFFFFF" fill-rule="nonzero"></path>
        <path d="M255.6,202.9 C255.5,202.9 255.3,202.9 255.2,202.8 C254.7,202.6 254.5,202 254.7,201.5 C254.9,200.9 254.6,200.6 254.5,200.4 C254.4,200.3 254,199.9 253.4,200.1 C249.5,201.5 245.1,202 242.1,202 C239,202.1 235.9,200.8 233.8,198.6 L232,196.7 C231.7,196.3 231.2,196.2 230.7,196.3 C230.2,196.4 229.8,196.7 229.6,197.2 L227.7,201.4 C227.6,201.7 227.3,201.9 227,202 C226.7,202.1 226.4,202 226.1,201.8 L220.6,197.6 C220.3,197.3 220,197.5 219.8,197.6 C219.7,197.7 219.4,197.9 219.5,198.3 L220.1,201.5 C220.2,202 219.8,202.6 219.3,202.7 C218.8,202.8 218.2,202.4 218.1,201.9 L217.5,198.7 C217.3,197.6 217.8,196.5 218.7,195.9 C219.7,195.3 220.8,195.4 221.7,196.1 L226.2,199.5 L227.6,196.4 C228.1,195.3 229,194.6 230.2,194.4 C231.4,194.2 232.5,194.6 233.3,195.4 L235.1,197.3 C236.9,199.2 239.3,200.2 241.9,200.1 C244.8,200 249,199.6 252.6,198.3 C253.8,197.9 255,198.1 255.9,199 C256.7,199.9 257,201.1 256.5,202.3 C256.4,202.7 256,202.9 255.6,202.9 Z" id="Path" fill="#443356" fill-rule="nonzero"></path>
        <path d="M163.9,210.3 C163.3,210.3 162.7,210 162.2,209.6 C161.7,209 161.5,208.2 161.7,207.4 L162.1,206.2 C162.1,206.1 162.1,206 162,205.9 C161.9,205.8 161.9,205.8 161.7,205.8 L148.1,209.7 C147.2,210 146.3,209.7 145.7,208.9 C145.1,208.1 145.1,207.2 145.5,206.4 C145.6,206.3 145.6,206.2 145.5,206.1 C145.4,206 145.3,206 145.2,206 L135,210 C134.3,210.3 133.5,210.2 132.9,209.7 C132.3,209.3 131.9,208.6 131.9,207.8 L131.9,204.6 C131.9,204.5 131.8,204.4 131.8,204.4 C131.7,204.4 131.6,204.3 131.5,204.4 L130.2,205.2 C127,207.1 123.2,208.1 119.5,208.1 L107.3,208.1 C106.7,208.1 106.3,207.7 106.3,207.1 C106.3,206.5 106.7,206.1 107.3,206.1 L119.5,206.1 C122.9,206.1 126.3,205.2 129.2,203.4 L130.5,202.6 C131.2,202.2 132.1,202.2 132.8,202.6 C133.5,203 133.9,203.7 133.9,204.6 L133.9,207.8 C133.9,207.9 134,208 134,208 C134.1,208 134.1,208.1 134.2,208 L144.5,204.1 C145.4,203.8 146.4,204 147,204.8 C147.6,205.5 147.7,206.6 147.2,207.4 C147.1,207.5 147.2,207.6 147.2,207.7 C147.3,207.8 147.4,207.8 147.5,207.8 L161.1,203.9 C161.9,203.7 162.8,203.9 163.3,204.5 C163.8,205.1 164.1,205.9 163.9,206.7 L163.5,207.9 C163.5,208 163.5,208.1 163.6,208.2 C163.6,208.2 163.7,208.3 163.8,208.3 L171,206.8 C176.3,205.7 181.7,205.5 187.1,206.2 L187.4,206.2 C187.9,206.3 188.3,206.8 188.3,207.3 C188.2,207.8 187.7,208.2 187.2,208.2 L186.9,208.2 C181.7,207.5 176.6,207.7 171.5,208.8 L164.3,210.3 C164.2,210.3 164,210.3 163.9,210.3 Z" id="Shape" fill="#443356" fill-rule="nonzero"></path>
    </g>
</svg>