<?xml version="1.0" encoding="UTF-8"?>
<svg width="340px" height="294px" viewBox="0 0 340 294" version="1.1" xmlns="http://www.w3.org/2000/svg" xmlns:xlink="http://www.w3.org/1999/xlink">
    <!-- Generator: Sketch 48.2 (47327) - http://www.bohemiancoding.com/sketch -->
    <title>Slice</title>
    <desc>Created with Sketch.</desc>
    <defs></defs>
    <g id="Page-1" stroke="none" stroke-width="1" fill="none" fill-rule="evenodd">
        <rect id="Rectangle" x="-216" y="-106" width="622" height="613"></rect>
        <g id="5a86848c5753b900013049df_JS-Blog---Banners-06" transform="translate(-84.000000, 40.000000)">
            <g id="Group">
                <path d="M338.623643,65.9744186 C338.326107,65.9744186 338.028572,65.7521595 338.028572,65.3817276 L338.028572,47.6750831 L195.508996,47.6750831 L195.508996,64.5667774 C195.508996,64.8631229 195.285845,65.1594684 194.913925,65.1594684 C194.542006,65.1594684 194.318854,64.9372093 194.318854,64.5667774 L194.318854,46.6378738 L339.069946,46.6378738 L339.069946,65.455814 C339.14433,65.7521595 338.921179,65.9744186 338.623643,65.9744186 Z" id="Shape" fill="#443356" fill-rule="nonzero" opacity="0.34"></path>
                <g transform="translate(0.619768, 0.900332)">
                    <path d="M231.014259,73.5202658 C226.104921,69.2232558 212.567049,63.7408638 175.598245,63.7408638 C140.34027,63.7408638 121.744292,73.4461794 114.157133,78.9285714 C112.446303,80.1880399 112.520687,82.7069767 114.380285,83.8182724 C116.314267,85.0036545 117.801945,86.855814 118.917704,88.8561462 C120.851686,92.2641196 121.744292,96.1166113 121.744292,100.043189 L121.744292,190.280399 C121.744292,195.318272 123.455122,200.800664 127.769389,203.690033 C147.406742,216.877409 175.672629,216.062458 175.672629,216.062458 C175.672629,216.062458 207.137023,216.877409 223.575868,203.690033 C227.592599,200.430233 229.600965,195.318272 229.600965,190.280399 L229.600965,91.5232558 C229.600965,87.9671096 230.567956,84.4109635 232.353169,81.2993355 C233.69208,78.7063123 233.245776,75.4465116 231.014259,73.5202658 Z" id="Shape" fill="#C8E0E9" fill-rule="nonzero"></path>
                    <path d="M176.714003,216.729236 C176.714003,216.729236 176.714003,216.729236 176.714003,216.729236 C175.970164,216.729236 175.598245,216.729236 175.523861,216.729236 C175.523861,216.729236 175.151941,216.729236 174.482486,216.729236 C169.721916,216.729236 144.877689,216.136545 127.174318,204.208638 C123.157587,201.541528 120.851686,196.429568 120.851686,190.206312 L120.851686,100.043189 C120.851686,96.1166113 119.884695,92.338206 118.099481,89.2265781 C116.834954,87.0780731 115.42166,85.4481728 113.859598,84.4850498 C112.818223,83.8182724 112.148768,82.7069767 112.074384,81.4475083 C112,80.1880399 112.595071,79.0767442 113.636446,78.3358804 C121.669909,72.6312292 140.34027,63 175.523861,63 C212.343897,63 226.253689,68.4083056 231.460562,73.0016611 C233.915232,75.1501661 234.510303,78.7803987 232.799473,81.6697674 C231.088643,84.707309 230.196036,88.1152824 230.196036,91.5232558 L230.196036,190.280399 C230.196036,195.98505 227.890135,201.09701 223.947787,204.282724 C209.071005,216.136545 181.995261,216.729236 176.714003,216.729236 Z M175.523861,215.247508 C175.598245,215.247508 175.970164,215.247508 176.714003,215.247508 C181.920877,215.247508 208.550318,214.654817 222.980797,203.023256 C226.625608,200.133887 228.708358,195.466445 228.708358,190.206312 L228.708358,91.5232558 C228.708358,87.8189369 229.675349,84.1146179 231.534946,80.9289037 C232.873857,78.6322259 232.427553,75.8169435 230.493572,74.1129568 C225.50985,69.7418605 211.897594,64.4817276 175.523861,64.4817276 C140.71219,64.4817276 122.339364,73.8906977 114.454669,79.5212625 C113.859598,79.9657807 113.487678,80.6325581 113.487678,81.3734219 C113.487678,82.1142857 113.933982,82.7810631 114.603437,83.2255814 C116.388651,84.3368771 118.025097,86.1149502 119.364007,88.4857143 C121.297989,91.8936877 122.339364,95.8943522 122.339364,100.043189 L122.339364,190.280399 C122.339364,192.947508 122.860051,199.615282 127.992541,203.097342 C145.323993,214.728904 169.721916,215.321595 174.408102,215.321595 C175.151941,215.247508 175.523861,215.247508 175.523861,215.247508 Z" id="Shape" fill="#443356" fill-rule="nonzero"></path>
                    <g transform="translate(0.251743, 0.398671)">
                        <path d="M361.325073,142.319934 L157.81069,142.319934 C157.364387,142.319934 157.066851,142.023588 157.066851,141.57907 L157.066851,1.11129568 C157.066851,0.666777409 157.364387,0.370431894 157.81069,0.370431894 L361.325073,0.370431894 C361.771377,0.370431894 362.068913,0.666777409 362.068913,1.11129568 L362.068913,141.653156 C362.068913,142.023588 361.696993,142.319934 361.325073,142.319934 Z M158.55453,140.838206 L360.581234,140.838206 L360.581234,1.85215947 L158.55453,1.85215947 L158.55453,140.838206 Z" id="Shape" fill="#443356" fill-rule="nonzero"></path>
                        <ellipse id="Oval" fill="#443356" fill-rule="nonzero" cx="166.067305" cy="8.81627907" rx="2.60343692" ry="2.59302326"></ellipse>
                        <ellipse id="Oval" fill="#443356" fill-rule="nonzero" cx="175.216526" cy="8.81627907" rx="2.60343692" ry="2.59302326"></ellipse>
                        <ellipse id="Oval" fill="#443356" fill-rule="nonzero" cx="184.440131" cy="8.81627907" rx="2.60343692" ry="2.59302326"></ellipse>
                        <g transform="translate(301.628255, 12.411960)">
                            <path d="M37.117572,1.29634551 L3.71919559,1.29634551 C1.78521389,1.29634551 0.223151736,2.85215947 0.223151736,4.77840532 L0.223151736,15.5209302 C0.223151736,17.4471761 1.78521389,19.00299 3.71919559,19.00299 L17.4802193,19.00299 L22.3895575,25.448505 L27.2988957,19.00299 L37.117572,19.00299 C39.0515537,19.00299 40.6136159,17.4471761 40.6136159,15.5209302 L40.6136159,4.70431894 C40.6136159,2.77807309 39.0515537,1.29634551 37.117572,1.29634551 Z" id="Shape" fill="#9784D3" fill-rule="nonzero"></path>
                            <text id="42" fill="#FFFFFF" font-family="Helvetica" font-size="14" font-weight="normal">
                                <tspan x="19.5940838" y="14.8438618">42</tspan>
                            </text>
                            <path d="M11.1492212,14.4837209 L6.90933818,10.4089701 C5.86796342,9.3717608 5.79357951,7.66777409 6.83495427,6.63056478 C7.87632904,5.59335548 9.58715901,5.5192691 10.6285338,6.55647841 L11.0748373,7.00099668 L11.5211407,6.55647841 C12.5625155,5.5192691 14.2733455,5.5192691 15.3147202,6.63056478 C16.356095,7.66777409 16.356095,9.3717608 15.2403363,10.4089701 L11.1492212,14.4837209 Z" id="Shape" fill="#FFFFFF" fill-rule="nonzero"></path>
                        </g>
                    </g>
                </g>
                <path d="M175.39979,90.8677741 C175.39979,90.8677741 175.39979,90.8677741 175.39979,90.8677741 C174.879103,90.8677741 145.199922,90.7936877 123.851739,81.8292359 C122.810364,81.3847176 121.620222,81.3106312 120.504463,81.5328904 C119.31432,81.7551495 118.124178,82.051495 116.859651,82.4219269 C116.487732,82.5700997 116.041428,82.3478405 115.967044,81.9033223 C115.818277,81.5328904 116.041428,81.0883721 116.487732,81.0142857 C117.752258,80.6438538 119.016785,80.3475083 120.206927,80.0511628 C121.694606,79.7548173 123.1079,79.90299 124.44681,80.4215947 C145.571841,89.3119601 174.879103,89.3860465 175.39979,89.3860465 C175.39979,89.3860465 175.39979,89.3860465 175.39979,89.3860465 C175.920477,89.3860465 210.137077,89.3119601 227.914832,79.7548173 C228.286751,79.5325581 228.733055,79.6807309 228.956207,80.0511628 C229.179358,80.4215947 229.03059,80.866113 228.658671,81.0883721 C210.657764,90.7196013 177.408156,90.8677741 175.39979,90.8677741 Z" id="Shape" fill="#443356" fill-rule="nonzero"></path>
                <path d="M210.732148,119.983721 C206.343497,122.650831 200.764704,122.650831 196.376053,119.909635 L196.301669,119.835548 C192.284938,117.390698 187.226832,117.094352 183.061333,119.242857 L182.168726,119.687375 C177.333772,122.132226 171.531827,122.206312 166.84564,119.539203 C162.531373,117.094352 157.175732,117.242525 152.861465,119.835548 L152.340777,120.20598 C148.175278,122.799003 142.968404,122.947176 138.654138,120.650498 L128.612309,115.316279 L128.612309,191.106645 C128.612309,193.996013 129.430532,197.700332 131.810818,199.330233 C147.803359,210.072757 170.713604,210.591362 175.176638,210.591362 C175.697326,210.591362 175.994861,210.591362 176.069245,210.591362 L176.218013,210.591362 L176.366781,210.591362 C176.441165,210.591362 176.7387,210.591362 177.333772,210.591362 C177.333772,210.591362 177.333772,210.591362 177.333772,210.591362 C182.168726,210.591362 207.087336,210.072757 220.178905,199.626578 C222.484806,197.774419 223.823717,194.588704 223.823717,191.106645 L223.823717,121.687708 C223.823717,117.464784 219.211914,114.871761 215.567102,117.094352 L210.732148,119.983721 Z" id="Shape" fill="#DF74E8" fill-rule="nonzero"></path>
                <path d="M182.763797,172.659136 L167.440711,172.659136 L164.242203,182.438538 L154.349143,182.438538 L170.2673,137.023588 L179.937209,137.023588 L195.780982,182.438538 L185.887922,182.438538 L182.763797,172.659136 Z M169.746613,165.472757 L180.457896,165.472757 L175.251022,149.4701 L175.02787,149.4701 L169.746613,165.472757 Z" id="Shape" fill="#FFFFFF" fill-rule="nonzero"></path>
                <path d="M148.695966,142.580066 C146.985136,142.580066 145.571841,141.172425 145.571841,139.468439 C145.571841,137.764452 146.985136,136.356811 148.695966,136.356811 C150.406796,136.356811 151.82009,137.764452 151.82009,139.468439 C151.82009,141.172425 150.48118,142.580066 148.695966,142.580066 Z M148.695966,137.764452 C147.803359,137.764452 147.05952,138.505316 147.05952,139.394352 C147.05952,140.283389 147.803359,141.024252 148.695966,141.024252 C149.588573,141.024252 150.332412,140.283389 150.332412,139.394352 C150.332412,138.505316 149.662957,137.764452 148.695966,137.764452 Z" id="Shape" fill="#FFFFFF" fill-rule="nonzero"></path>
                <path d="M210.137077,163.768771 C208.426247,163.768771 207.012953,162.36113 207.012953,160.657143 C207.012953,158.953156 208.426247,157.545515 210.137077,157.545515 C211.847907,157.545515 213.261201,158.953156 213.261201,160.657143 C213.261201,162.36113 211.847907,163.768771 210.137077,163.768771 Z M210.137077,158.953156 C209.24447,158.953156 208.500631,159.69402 208.500631,160.583056 C208.500631,161.472093 209.24447,162.212957 210.137077,162.212957 C211.029684,162.212957 211.773523,161.472093 211.773523,160.583056 C211.773523,159.69402 211.029684,158.953156 210.137077,158.953156 Z" id="Shape" fill="#FFFFFF" fill-rule="nonzero"></path>
                <path d="M170.044148,197.107641 C168.333318,197.107641 166.920024,195.7 166.920024,193.996013 C166.920024,192.292027 168.333318,190.884385 170.044148,190.884385 C171.754978,190.884385 173.168273,192.292027 173.168273,193.996013 C173.168273,195.7 171.754978,197.107641 170.044148,197.107641 Z M170.044148,192.292027 C169.151541,192.292027 168.407702,193.03289 168.407702,193.921927 C168.407702,194.810963 169.151541,195.551827 170.044148,195.551827 C170.936755,195.551827 171.680594,194.810963 171.680594,193.921927 C171.680594,193.03289 170.936755,192.292027 170.044148,192.292027 Z" id="Shape" fill="#FFFFFF" fill-rule="nonzero"></path>
                <path d="M172.870737,84.8667774 C168.705238,84.8667774 165.357962,81.5328904 165.357962,77.3840532 C165.357962,73.2352159 168.705238,69.9013289 172.870737,69.9013289 C177.036236,69.9013289 180.383512,73.2352159 180.383512,77.3840532 C180.383512,81.5328904 177.036236,84.8667774 172.870737,84.8667774 Z M172.870737,71.3830565 C169.523461,71.3830565 166.84564,74.0501661 166.84564,77.3840532 C166.84564,80.7179402 169.523461,83.3850498 172.870737,83.3850498 C176.218013,83.3850498 178.895834,80.7179402 178.895834,77.3840532 C178.895834,74.0501661 176.218013,71.3830565 172.870737,71.3830565 Z" id="Shape" fill="#FFFFFF" fill-rule="nonzero"></path>
                <path d="M178.623848,56.7883721 C175.202188,56.7883721 172.449984,54.0471761 172.449984,50.6392027 C172.449984,47.2312292 175.202188,44.4900332 178.623848,44.4900332 C182.045508,44.4900332 184.797713,47.2312292 184.797713,50.6392027 C184.797713,54.0471761 182.045508,56.7883721 178.623848,56.7883721 Z M178.623848,45.9717608 C176.020412,45.9717608 173.937662,48.0461794 173.937662,50.6392027 C173.937662,53.2322259 176.020412,55.3066445 178.623848,55.3066445 C181.227285,55.3066445 183.310035,53.2322259 183.310035,50.6392027 C183.310035,48.0461794 181.227285,45.9717608 178.623848,45.9717608 Z" id="Shape" fill="#443356" fill-rule="nonzero" opacity="0.47"></path>
                <g transform="translate(127.496551, 103.166113)" fill="#443356" fill-rule="nonzero" id="Shape">
                    <path d="M11.5295063,4.14883721 C11.4551224,4.14883721 11.4551224,4.14883721 11.3807385,4.14883721 L0.892606943,1.85215947 C0.520687383,1.77807309 0.223151736,1.4076412 0.297535648,0.963122924 C0.371919559,0.518604651 0.818223031,0.296345515 1.19014259,0.370431894 L11.6782742,2.66710963 C12.0501937,2.74119601 12.3477294,3.11162791 12.2733455,3.55614618 C12.1989615,3.92657807 11.9014259,4.14883721 11.5295063,4.14883721 Z"></path>
                    <path d="M6.84331989,18.0770764 C6.76893598,18.0770764 6.76893598,18.0770764 6.69455207,18.0770764 L0.966990855,16.817608 C0.595071295,16.7435216 0.297535648,16.3730897 0.371919559,15.9285714 C0.446303471,15.4840532 0.892606943,15.261794 1.2645265,15.3358804 L6.99208772,16.5953488 C7.36400728,16.6694352 7.66154292,17.0398671 7.58715901,17.4843854 C7.43839119,17.8548173 7.14085554,18.0770764 6.84331989,18.0770764 Z"></path>
                    <path d="M11.5295063,34.0797342 C11.4551224,34.0797342 11.4551224,34.0797342 11.3807385,34.0797342 L0.892606943,31.7830565 C0.520687383,31.7089701 0.223151736,31.3385382 0.297535648,30.8940199 C0.371919559,30.523588 0.818223031,30.2272425 1.19014259,30.3013289 L11.6782742,32.5980066 C12.0501937,32.672093 12.3477294,33.0425249 12.2733455,33.4870432 C12.1989615,33.7833887 11.9014259,34.0797342 11.5295063,34.0797342 Z"></path>
                    <path d="M6.84331989,47.933887 C6.76893598,47.933887 6.76893598,47.933887 6.69455207,47.933887 L0.966990855,46.6744186 C0.595071295,46.6003322 0.297535648,46.2299003 0.371919559,45.7853821 C0.446303471,45.4149502 0.892606943,45.1186047 1.2645265,45.192691 L6.99208772,46.4521595 C7.36400728,46.5262458 7.66154292,46.8966777 7.58715901,47.341196 C7.43839119,47.7116279 7.14085554,47.933887 6.84331989,47.933887 Z"></path>
                    <path d="M11.5295063,63.9365449 C11.4551224,63.9365449 11.4551224,63.9365449 11.3807385,63.9365449 L0.892606943,61.6398671 C0.520687383,61.5657807 0.223151736,61.1953488 0.297535648,60.7508306 C0.371919559,60.3063123 0.818223031,60.0840532 1.19014259,60.1581395 L11.6782742,62.4548173 C12.0501937,62.5289037 12.3477294,62.8993355 12.2733455,63.3438538 C12.1989615,63.7142857 11.9014259,63.9365449 11.5295063,63.9365449 Z"></path>
                    <path d="M6.84331989,77.8647841 C6.76893598,77.8647841 6.76893598,77.8647841 6.69455207,77.8647841 L0.966990855,76.6053156 C0.595071295,76.5312292 0.297535648,76.1607973 0.371919559,75.7162791 C0.446303471,75.2717608 0.892606943,75.0495017 1.2645265,75.123588 L6.99208772,76.3830565 C7.36400728,76.4571429 7.66154292,76.8275748 7.58715901,77.272093 C7.43839119,77.6425249 7.14085554,77.8647841 6.84331989,77.8647841 Z"></path>
                    <path d="M11.5295063,93.7933555 C11.4551224,93.7933555 11.4551224,93.7933555 11.3807385,93.7933555 L0.892606943,91.4966777 C0.520687383,91.4225914 0.223151736,91.0521595 0.297535648,90.6076412 C0.371919559,90.1631229 0.818223031,89.9408638 1.19014259,90.0149502 L11.6782742,92.3116279 C12.0501937,92.3857143 12.3477294,92.7561462 12.2733455,93.2006645 C12.1989615,93.5710963 11.9014259,93.7933555 11.5295063,93.7933555 Z"></path>
                </g>
                <g transform="translate(265.850627, 63.900332)" fill-rule="nonzero" id="Shape">
                    <path d="M118.939875,10.5202658 C114.030537,6.22325581 100.492665,0.740863787 63.5238608,0.740863787 C28.2658865,0.740863787 9.66990855,10.4461794 2.08274953,15.9285714 C0.371919559,17.1880399 0.446303471,19.7069767 2.30590127,20.8182724 C4.23988298,22.0036545 5.72756122,23.855814 6.84331989,25.8561462 C8.7773016,29.2641196 9.66990855,33.1166113 9.66990855,37.0431894 L9.66990855,127.280399 C9.66990855,132.318272 11.3807385,137.800664 15.6950054,140.690033 C35.3323581,153.877409 63.5982447,153.062458 63.5982447,153.062458 C63.5982447,153.062458 95.0626394,153.877409 111.501484,140.690033 C115.518215,137.430233 117.526581,132.318272 117.526581,127.280399 L117.526581,28.5232558 C117.526581,24.9671096 118.493572,21.4109635 120.278786,18.2993355 C121.617696,15.7063123 121.171392,12.4465116 118.939875,10.5202658 Z" fill="#C8E0E9"></path>
                    <path d="M64.7140033,153.729236 C64.7140033,153.729236 64.7140033,153.729236 64.7140033,153.729236 C63.9701642,153.729236 63.5982447,153.729236 63.5238608,153.729236 C63.5238608,153.729236 63.1519412,153.729236 62.482486,153.729236 C57.7219156,153.729236 32.8776891,153.136545 15.174318,141.208638 C11.1575868,138.541528 8.85168551,133.429568 8.85168551,127.206312 L8.85168551,37.0431894 C8.85168551,33.1166113 7.88469466,29.338206 6.09948077,26.2265781 C4.83495427,24.0780731 3.42165995,22.4481728 1.8595978,21.4850498 C0.818223031,20.8182724 0.148767824,19.7069767 0.0743839119,18.4475083 C-1.02487463e-13,17.1880399 0.595071295,16.0767442 1.63644606,15.3358804 C9.66990855,9.63122924 28.3402704,1.42108547e-14 63.5238608,1.42108547e-14 C100.343897,1.42108547e-14 114.253689,5.40830565 119.460562,10.0016611 C121.915232,12.1501661 122.510303,15.7803987 120.799473,18.6697674 C119.088643,21.707309 118.196036,25.1152824 118.196036,28.5232558 L118.196036,127.280399 C118.196036,132.98505 115.890135,138.09701 111.947787,141.282724 C97.071005,153.136545 69.9952611,153.729236 64.7140033,153.729236 Z M63.5238608,152.247508 C63.5982447,152.247508 63.9701642,152.247508 64.7140033,152.247508 C69.9208772,152.247508 96.5503176,151.654817 110.980797,140.023256 C114.625608,137.133887 116.708358,132.466445 116.708358,127.206312 L116.708358,28.5232558 C116.708358,24.8189369 117.675349,21.1146179 119.534946,17.9289037 C120.873857,15.6322259 120.427553,12.8169435 118.493572,11.1129568 C113.50985,6.74186047 99.8975937,1.48172757 63.5238608,1.48172757 C28.71219,1.48172757 10.3393638,10.8906977 2.45466909,16.5212625 C1.8595978,16.9657807 1.48767824,17.6325581 1.48767824,18.3734219 C1.48767824,19.1142857 1.93398171,19.7810631 2.60343692,20.2255814 C4.3886508,21.3368771 6.02509686,23.1149502 7.36400728,25.4857143 C9.29798899,28.8936877 10.3393638,32.8943522 10.3393638,37.0431894 L10.3393638,127.280399 C10.3393638,129.947508 10.8600511,136.615282 15.9925411,140.097342 C33.3239925,151.728904 57.7219156,152.321595 62.4081021,152.321595 C63.1519412,152.247508 63.5238608,152.247508 63.5238608,152.247508 Z" fill="#443356"></path>
                </g>
                <path d="M328.630649,90.8677741 C328.556265,90.8677741 328.556265,90.8677741 328.630649,90.8677741 C328.109961,90.8677741 298.43078,90.7936877 277.082598,81.8292359 C276.041223,81.3847176 274.85108,81.3106312 273.735322,81.5328904 C272.545179,81.7551495 271.355036,82.051495 270.09051,82.4219269 C269.71859,82.5700997 269.272287,82.3478405 269.197903,81.9033223 C269.049135,81.5328904 269.272287,81.0883721 269.71859,81.0142857 C270.983117,80.6438538 272.247643,80.3475083 273.437786,80.0511628 C274.925464,79.7548173 276.338758,79.90299 277.677669,80.4215947 C298.728316,89.3119601 328.109961,89.3860465 328.630649,89.3860465 C328.630649,89.3860465 328.630649,89.3860465 328.630649,89.3860465 C329.151336,89.3860465 363.367935,89.3119601 381.14569,79.7548173 C381.51761,79.5325581 381.963913,79.6807309 382.187065,80.0511628 C382.410217,80.4215947 382.261449,80.866113 381.889529,81.0883721 C363.814239,90.7196013 330.639014,90.8677741 328.630649,90.8677741 Z" id="Shape" fill="#443356" fill-rule="nonzero"></path>
                <path d="M363.963007,119.983721 C359.574356,122.650831 353.995562,122.650831 349.606912,119.909635 L349.532528,119.835548 C345.515797,117.390698 340.457691,117.094352 336.292191,119.242857 L335.399584,119.687375 C330.56463,122.132226 324.762685,122.206312 320.076499,119.539203 C315.762232,117.094352 310.40659,117.242525 306.092323,119.835548 L305.571636,120.20598 C301.406137,122.799003 296.199263,122.947176 291.884996,120.650498 L281.843168,115.316279 L281.843168,191.106645 C281.843168,193.996013 282.661391,197.700332 285.041676,199.330233 C301.034217,210.072757 323.944462,210.591362 328.407497,210.591362 C328.928184,210.591362 329.22572,210.591362 329.300104,210.591362 L329.448872,210.591362 L329.597639,210.591362 C329.672023,210.591362 329.969559,210.591362 330.56463,210.591362 C330.56463,210.591362 330.56463,210.591362 330.56463,210.591362 C335.399584,210.591362 360.318195,210.072757 373.409763,199.626578 C375.715665,197.774419 377.054575,194.588704 377.054575,191.106645 L377.054575,121.687708 C377.054575,117.464784 372.442773,114.871761 368.797961,117.094352 L363.963007,119.983721 Z" id="Shape" fill="#9784D3" fill-rule="nonzero"></path>
                <path d="M313.679482,182.438538 L313.679482,137.023588 L329.151336,137.023588 C334.730129,137.023588 339.044396,138.060797 342.16852,140.135216 C345.292645,142.209635 346.854707,145.321262 346.854707,149.4701 C346.854707,151.544518 346.259636,153.396678 345.143877,155.026578 C344.028118,156.656478 342.391672,157.915947 340.234539,158.730897 C343.209895,159.249502 345.367029,160.50897 346.854707,162.435216 C348.342385,164.361462 349.086224,166.65814 349.086224,169.177076 C349.086224,173.548173 347.598546,176.807973 344.62319,179.030565 C341.647833,181.253156 337.40795,182.364452 331.903541,182.364452 L313.679482,182.364452 L313.679482,182.438538 Z M323.126239,155.989701 L329.448872,155.989701 C331.977925,155.989701 333.911906,155.471096 335.325201,154.507973 C336.664111,153.54485 337.333566,152.063123 337.333566,150.136877 C337.333566,148.062458 336.664111,146.506645 335.250817,145.469435 C333.911906,144.506312 331.829157,143.987708 329.076952,143.987708 L323.126239,143.987708 L323.126239,155.989701 Z M323.126239,162.36113 L323.126239,175.474419 L331.903541,175.474419 C334.432594,175.474419 336.292191,174.955814 337.631102,173.918605 C338.970012,172.881395 339.639467,171.325581 339.639467,169.251163 C339.639467,167.028571 338.970012,165.324585 337.705486,164.139203 C336.440959,162.953821 334.432594,162.36113 331.829157,162.36113 L323.126239,162.36113 Z" id="Shape" fill="#FFFFFF" fill-rule="nonzero"></path>
                <path d="M362.549712,142.580066 C360.838882,142.580066 359.425588,141.172425 359.425588,139.468439 C359.425588,137.764452 360.838882,136.356811 362.549712,136.356811 C364.260542,136.356811 365.673837,137.764452 365.673837,139.468439 C365.673837,141.172425 364.260542,142.580066 362.549712,142.580066 Z M362.549712,137.764452 C361.657105,137.764452 360.913266,138.505316 360.913266,139.394352 C360.913266,140.283389 361.657105,141.024252 362.549712,141.024252 C363.442319,141.024252 364.186158,140.283389 364.186158,139.394352 C364.186158,138.505316 363.442319,137.764452 362.549712,137.764452 Z" id="Shape" fill="#FFFFFF" fill-rule="nonzero"></path>
                <path d="M301.108601,163.768771 C299.397771,163.768771 297.984477,162.36113 297.984477,160.657143 C297.984477,158.953156 299.397771,157.545515 301.108601,157.545515 C302.819431,157.545515 304.232725,158.953156 304.232725,160.657143 C304.232725,162.36113 302.893815,163.768771 301.108601,163.768771 Z M301.108601,158.953156 C300.215994,158.953156 299.472155,159.69402 299.472155,160.583056 C299.472155,161.472093 300.215994,162.212957 301.108601,162.212957 C302.001208,162.212957 302.745047,161.472093 302.745047,160.583056 C302.745047,159.69402 302.075592,158.953156 301.108601,158.953156 Z" id="Shape" fill="#FFFFFF" fill-rule="nonzero"></path>
                <path d="M341.20153,197.107641 C339.4907,197.107641 338.077405,195.7 338.077405,193.996013 C338.077405,192.292027 339.4907,190.884385 341.20153,190.884385 C342.91236,190.884385 344.325654,192.292027 344.325654,193.996013 C344.325654,195.7 342.986744,197.107641 341.20153,197.107641 Z M341.20153,192.292027 C340.308923,192.292027 339.565084,193.03289 339.565084,193.921927 C339.565084,194.810963 340.308923,195.551827 341.20153,195.551827 C342.094137,195.551827 342.837976,194.810963 342.837976,193.921927 C342.837976,193.03289 342.16852,192.292027 341.20153,192.292027 Z" id="Shape" fill="#FFFFFF" fill-rule="nonzero"></path>
                <path d="M338.374941,84.8667774 C334.209442,84.8667774 330.862166,81.5328904 330.862166,77.3840532 C330.862166,73.2352159 334.209442,69.9013289 338.374941,69.9013289 C342.54044,69.9013289 345.887716,73.2352159 345.887716,77.3840532 C345.887716,81.5328904 342.54044,84.8667774 338.374941,84.8667774 Z M338.374941,71.3830565 C335.027665,71.3830565 332.349844,74.0501661 332.349844,77.3840532 C332.349844,80.7179402 335.027665,83.3850498 338.374941,83.3850498 C341.722217,83.3850498 344.400038,80.7179402 344.400038,77.3840532 C344.400038,74.0501661 341.722217,71.3830565 338.374941,71.3830565 Z" id="Shape" fill="#FFFFFF" fill-rule="nonzero"></path>
                <path d="M326.771051,112.723256 C323.349391,112.723256 320.597186,109.98206 320.597186,106.574086 C320.597186,103.166113 323.349391,100.424917 326.771051,100.424917 C330.192711,100.424917 332.944915,103.166113 332.944915,106.574086 C332.944915,109.98206 330.192711,112.723256 326.771051,112.723256 Z M326.771051,101.906645 C324.167614,101.906645 322.084864,103.981063 322.084864,106.574086 C322.084864,109.16711 324.167614,111.241528 326.771051,111.241528 C329.374488,111.241528 331.457237,109.16711 331.457237,106.574086 C331.457237,103.981063 329.374488,101.906645 326.771051,101.906645 Z" id="Shape" fill="#FFFFFF" fill-rule="nonzero"></path>
                <g transform="translate(280.727409, 103.166113)" fill="#443356" fill-rule="nonzero" id="Shape">
                    <path d="M11.5295063,4.14883721 C11.4551224,4.14883721 11.4551224,4.14883721 11.3807385,4.14883721 L0.892606943,1.85215947 C0.520687383,1.77807309 0.223151736,1.4076412 0.297535648,0.963122924 C0.371919559,0.518604651 0.818223031,0.296345515 1.19014259,0.370431894 L11.6782742,2.66710963 C12.0501937,2.74119601 12.3477294,3.11162791 12.2733455,3.55614618 C12.1245776,3.92657807 11.827042,4.14883721 11.5295063,4.14883721 Z"></path>
                    <path d="M6.76893598,18.0770764 C6.69455207,18.0770764 6.69455207,18.0770764 6.62016816,18.0770764 L0.892606943,16.817608 C0.520687383,16.7435216 0.223151736,16.3730897 0.297535648,15.9285714 C0.371919559,15.4840532 0.818223031,15.261794 1.19014259,15.3358804 L6.91770381,16.5953488 C7.28962336,16.6694352 7.58715901,17.0398671 7.5127751,17.4843854 C7.43839119,17.8548173 7.14085554,18.0770764 6.76893598,18.0770764 Z"></path>
                    <path d="M11.5295063,34.0797342 C11.4551224,34.0797342 11.4551224,34.0797342 11.3807385,34.0797342 L0.892606943,31.7830565 C0.520687383,31.7089701 0.223151736,31.3385382 0.297535648,30.8940199 C0.371919559,30.523588 0.818223031,30.2272425 1.19014259,30.3013289 L11.6782742,32.5980066 C12.0501937,32.672093 12.3477294,33.0425249 12.2733455,33.4870432 C12.1245776,33.7833887 11.827042,34.0797342 11.5295063,34.0797342 Z"></path>
                    <path d="M6.76893598,47.933887 C6.69455207,47.933887 6.69455207,47.933887 6.62016816,47.933887 L0.892606943,46.6744186 C0.520687383,46.6003322 0.223151736,46.2299003 0.297535648,45.7853821 C0.371919559,45.4149502 0.818223031,45.1186047 1.19014259,45.192691 L6.91770381,46.4521595 C7.28962336,46.5262458 7.58715901,46.8966777 7.5127751,47.341196 C7.43839119,47.7116279 7.14085554,47.933887 6.76893598,47.933887 Z"></path>
                    <path d="M11.5295063,63.9365449 C11.4551224,63.9365449 11.4551224,63.9365449 11.3807385,63.9365449 L0.892606943,61.6398671 C0.520687383,61.5657807 0.223151736,61.1953488 0.297535648,60.7508306 C0.371919559,60.3063123 0.818223031,60.0840532 1.19014259,60.1581395 L11.6782742,62.4548173 C12.0501937,62.5289037 12.3477294,62.8993355 12.2733455,63.3438538 C12.1245776,63.7142857 11.827042,63.9365449 11.5295063,63.9365449 Z"></path>
                    <path d="M6.76893598,77.8647841 C6.69455207,77.8647841 6.69455207,77.8647841 6.62016816,77.8647841 L0.892606943,76.6053156 C0.520687383,76.5312292 0.223151736,76.1607973 0.297535648,75.7162791 C0.371919559,75.2717608 0.818223031,75.0495017 1.19014259,75.123588 L6.91770381,76.3830565 C7.28962336,76.4571429 7.58715901,76.8275748 7.5127751,77.272093 C7.43839119,77.6425249 7.14085554,77.8647841 6.76893598,77.8647841 Z"></path>
                    <path d="M11.5295063,93.7933555 C11.4551224,93.7933555 11.4551224,93.7933555 11.3807385,93.7933555 L0.892606943,91.4966777 C0.520687383,91.4225914 0.223151736,91.0521595 0.297535648,90.6076412 C0.371919559,90.1631229 0.818223031,89.9408638 1.19014259,90.0149502 L11.6782742,92.3116279 C12.0501937,92.3857143 12.3477294,92.7561462 12.2733455,93.2006645 C12.1245776,93.5710963 11.827042,93.7933555 11.5295063,93.7933555 Z"></path>
                </g>
                <path d="M272.917099,143.543189 L235.204455,143.543189 C234.758152,143.543189 234.460616,143.246844 234.460616,142.802326 C234.460616,142.357807 234.758152,142.061462 235.204455,142.061462 L272.917099,142.061462 C273.363402,142.061462 273.660938,142.357807 273.660938,142.802326 C273.660938,143.246844 273.289018,143.543189 272.917099,143.543189 Z" id="Shape" fill="#443356" fill-rule="nonzero"></path>
            </g>
        </g>
    </g>
</svg>