<?xml version="1.0" encoding="UTF-8"?>
<svg width="334px" height="302px" viewBox="0 0 334 302" version="1.1" xmlns="http://www.w3.org/2000/svg" xmlns:xlink="http://www.w3.org/1999/xlink">
    <!-- Generator: Sketch 55.2 (78181) - https://sketchapp.com -->
    <title>Slice</title>
    <desc>Created with Sketch.</desc>
    <g id="Page-1" stroke="none" stroke-width="1" fill="none" fill-rule="evenodd">
        <g id="jsblog-writing-howto-1-(1)" transform="translate(-468.000000, -40.000000)">
            <g id="Cloned-Page" transform="translate(472.050000, 52.230000)" fill="#443356" fill-rule="nonzero">
                <path d="M44,152.41 L12,152.41 L12,107.28938 L12,91.2567357 L12,0 L58.47,0 C59.0222847,0 59.47,0.44771525 59.47,1 C59.47,1.55228475 59.0222847,2 58.47,2 L14.04,2 L14.04,150.41 L44.04,150.41 C44.5922847,150.41 45.04,150.857715 45.04,151.41 C45.04,151.962285 44.5922847,152.41 44.04,152.41" id="Path" opacity="0.58" transform="translate(35.735000, 76.205000) scale(-1, 1) translate(-35.735000, -76.205000) "></path>
                <path d="M48.28,15.77 L1.17,15.77 C0.61771525,15.77 0.17,15.3222847 0.17,14.77 C0.17,14.2177153 0.61771525,13.77 1.17,13.77 L48.28,13.77 C48.8322847,13.77 49.28,14.2177153 49.28,14.77 C49.28,15.3222847 48.8322847,15.77 48.28,15.77 Z" id="Path" opacity="0.15" transform="translate(24.725000, 14.770000) scale(-1, 1) translate(-24.725000, -14.770000) "></path>
                <path d="M40.3,23.59 L1.17,23.59 C0.61771525,23.59 0.17,23.1422847 0.17,22.59 C0.17,22.0377153 0.61771525,21.59 1.17,21.59 L40.3,21.59 C40.8522847,21.59 41.3,22.0377153 41.3,22.59 C41.3,23.1422847 40.8522847,23.59 40.3,23.59 Z" id="Path" opacity="0.15" transform="translate(20.735000, 22.590000) scale(-1, 1) translate(-20.735000, -22.590000) "></path>
                <path d="M48.28,31.41 L1.17,31.41 C0.61771525,31.41 0.17,30.9622847 0.17,30.41 C0.17,29.8577153 0.61771525,29.41 1.17,29.41 L48.28,29.41 C48.8322847,29.41 49.28,29.8577153 49.28,30.41 C49.28,30.9622847 48.8322847,31.41 48.28,31.41 Z" id="Path" opacity="0.15" transform="translate(24.725000, 30.410000) scale(-1, 1) translate(-24.725000, -30.410000) "></path>
                <path d="M31.78,39.22 L1.17,39.22 C0.61771525,39.22 0.17,38.7722847 0.17,38.22 C0.17,37.6677153 0.61771525,37.22 1.17,37.22 L31.78,37.22 C32.3322847,37.22 32.78,37.6677153 32.78,38.22 C32.78,38.7722847 32.3322847,39.22 31.78,39.22 Z" id="Path" opacity="0.15" transform="translate(16.475000, 38.220000) scale(-1, 1) translate(-16.475000, -38.220000) "></path>
                <path d="M48.28,54.84 L1.17,54.84 C0.61771525,54.84 0.17,54.3922847 0.17,53.84 C0.17,53.2877153 0.61771525,52.84 1.17,52.84 L48.28,52.84 C48.8322847,52.84 49.28,53.2877153 49.28,53.84 C49.28,54.3922847 48.8322847,54.84 48.28,54.84 Z" id="Path" opacity="0.15" transform="translate(24.725000, 53.840000) scale(-1, 1) translate(-24.725000, -53.840000) "></path>
                <path d="M48.28,62.65 L1.17,62.65 C0.61771525,62.65 0.17,62.2022847 0.17,61.65 C0.17,61.0977153 0.61771525,60.65 1.17,60.65 L48.28,60.65 C48.8322847,60.65 49.28,61.0977153 49.28,61.65 C49.28,62.2022847 48.8322847,62.65 48.28,62.65 Z" id="Path" opacity="0.15" transform="translate(24.725000, 61.650000) scale(-1, 1) translate(-24.725000, -61.650000) "></path>
                <path d="M40.3,70.46 L1.17,70.46 C0.61771525,70.46 0.17,70.0122847 0.17,69.46 C0.17,68.9077153 0.61771525,68.46 1.17,68.46 L40.3,68.46 C40.8522847,68.46 41.3,68.9077153 41.3,69.46 C41.3,70.0122847 40.8522847,70.46 40.3,70.46 Z" id="Path" opacity="0.15" transform="translate(20.735000, 69.460000) scale(-1, 1) translate(-20.735000, -69.460000) "></path>
                <path d="M48.28,78.27 L1.17,78.27 C0.61771525,78.27 0.17,77.8222847 0.17,77.27 C0.17,76.7177153 0.61771525,76.27 1.17,76.27 L48.28,76.27 C48.8322847,76.27 49.28,76.7177153 49.28,77.27 C49.28,77.8222847 48.8322847,78.27 48.28,78.27 Z" id="Path" opacity="0.15" transform="translate(24.725000, 77.270000) scale(-1, 1) translate(-24.725000, -77.270000) "></path>
                <path d="M31.78,86.08 L1.17,86.08 C0.61771525,86.08 0.17,85.6322847 0.17,85.08 C0.17,84.5277153 0.61771525,84.08 1.17,84.08 L31.78,84.08 C32.3322847,84.08 32.78,84.5277153 32.78,85.08 C32.78,85.6322847 32.3322847,86.08 31.78,86.08 Z" id="Path" opacity="0.15" transform="translate(16.475000, 85.080000) scale(-1, 1) translate(-16.475000, -85.080000) "></path>
                <path d="M40.3,101.7 L1.17,101.7 C0.61771525,101.7 0.17,101.252285 0.17,100.7 C0.17,100.147715 0.61771525,99.7 1.17,99.7 L40.3,99.7 C40.8522847,99.7 41.3,100.147715 41.3,100.7 C41.3,101.252285 40.8522847,101.7 40.3,101.7 Z" id="Path" opacity="0.15" transform="translate(20.735000, 100.700000) scale(-1, 1) translate(-20.735000, -100.700000) "></path>
                <path d="M48.28,109.52 L1.17,109.52 C0.61771525,109.52 0.17,109.072285 0.17,108.52 C0.17,107.967715 0.61771525,107.52 1.17,107.52 L48.28,107.52 C48.8322847,107.52 49.28,107.967715 49.28,108.52 C49.28,109.072285 48.8322847,109.52 48.28,109.52 Z" id="Path" opacity="0.15" transform="translate(24.725000, 108.520000) scale(-1, 1) translate(-24.725000, -108.520000) "></path>
                <path d="M31.78,117.33 L1.17,117.33 C0.61771525,117.33 0.17,116.882285 0.17,116.33 C0.17,115.777715 0.61771525,115.33 1.17,115.33 L31.78,115.33 C32.3322847,115.33 32.78,115.777715 32.78,116.33 C32.78,116.882285 32.3322847,117.33 31.78,117.33 Z" id="Path" opacity="0.15" transform="translate(16.475000, 116.330000) scale(-1, 1) translate(-16.475000, -116.330000) "></path>
                <path d="M48.28,132.95 L1.17,132.95 C0.61771525,132.95 0.17,132.502285 0.17,131.95 C0.17,131.397715 0.61771525,130.95 1.17,130.95 L48.28,130.95 C48.8322847,130.95 49.28,131.397715 49.28,131.95 C49.28,132.502285 48.8322847,132.95 48.28,132.95 Z" id="Path" opacity="0.15" transform="translate(24.725000, 131.950000) scale(-1, 1) translate(-24.725000, -131.950000) "></path>
                <path d="M31.78,140.77 L1.17,140.77 C0.61771525,140.77 0.17,140.322285 0.17,139.77 C0.17,139.217715 0.61771525,138.77 1.17,138.77 L31.78,138.77 C32.3322847,138.77 32.78,139.217715 32.78,139.77 C32.78,140.322285 32.3322847,140.77 31.78,140.77 Z" id="Path" opacity="0.15" transform="translate(16.475000, 139.770000) scale(-1, 1) translate(-16.475000, -139.770000) "></path>
            </g>
            <path d="M697.756852,279.494203 C697.350389,279.454004 697.003947,279.180844 696.868531,278.793787 C696.80263,278.541588 696.841749,278.273308 696.976887,278.050687 C697.112025,277.828065 697.331541,277.670278 697.584919,277.613635 C714.901108,273.323762 731.638993,266.951621 747.435964,258.635258 C747.900323,258.387541 748.476673,258.563367 748.725462,259.028642 C748.972072,259.495086 748.797032,260.074024 748.333837,260.32393 C732.440276,268.722349 715.596652,275.165327 698.167581,279.513392 C698.030597,279.530902 697.891627,279.524409 697.756852,279.494203 L697.756852,279.494203 Z" id="Path" fill="#C659D1" fill-rule="nonzero"></path>
            <path d="M700.831194,284.516811 C700.40313,284.496315 700.02723,284.222852 699.872221,283.819169 C699.80258,283.565855 699.837803,283.294822 699.969808,283.068262 C700.101813,282.841702 700.319266,282.679066 700.572271,282.617674 C718.242244,278.048591 735.303626,271.346943 751.388231,262.657351 C751.613331,262.522986 751.882868,262.48768 752.134491,262.559014 C752.386115,262.630348 752.598025,262.802353 752.721203,263.035241 C752.843173,263.262436 752.87025,263.529452 752.796415,263.776918 C752.722579,264.024384 752.553951,264.231787 752.328024,264.35301 C736.17624,273.105233 719.040929,279.862136 701.291501,284.478053 C701.141641,284.518958 700.985687,284.53209 700.831194,284.516811 Z" id="Path" fill="#C659D1" fill-rule="nonzero"></path>
            <path d="M704.821815,289.514841 C704.405027,289.49373 704.037071,289.239532 703.874314,288.860271 C703.80253,288.614535 703.83586,288.350505 703.966542,288.129663 C704.097224,287.908821 704.313854,287.750438 704.56599,287.691396 C722.246383,283.032975 739.299177,276.305522 755.361476,267.652202 C755.831877,267.390331 756.427709,267.538368 756.716401,267.988838 C756.840678,268.207825 756.870535,268.466925 756.799256,268.70786 C756.727977,268.948795 756.561547,269.151336 756.337401,269.269925 C740.180024,277.98863 723.025744,284.77247 705.238715,289.477437 C705.104312,289.520425 704.961869,289.533204 704.821815,289.514841 Z" id="Path" fill="#C659D1" fill-rule="nonzero"></path>
            <path d="M707.840977,294.515222 C707.418642,294.48778 707.046877,294.23623 706.875645,293.862042 C706.802252,293.618125 706.834909,293.355827 706.966076,293.135706 C707.097243,292.915585 707.315583,292.75667 707.570684,292.695651 C720.167671,289.304374 732.460881,284.935656 744.330534,279.632061 C744.836624,279.389314 745.450738,279.564147 745.739919,280.0333 C745.854235,280.260384 745.868447,280.52256 745.779308,280.759949 C745.69017,280.997338 745.505295,281.189664 745.266907,281.293003 C733.333027,286.649635 720.968187,291.059137 708.294684,294.477897 C708.147689,294.520244 707.993261,294.532948 707.840977,294.515222 L707.840977,294.515222 Z" id="Path" fill="#C659D1" fill-rule="nonzero"></path>
            <path d="M542,287 C541.981903,286.939324 541.959486,286.880041 541.932923,286.822614 C541.348456,285.523625 540.355367,284.454874 539.107297,283.781708 C537.169307,282.670512 535.009339,282.009625 532.785274,281.847354 C528.894798,281.501029 524.995937,281.112469 521.097077,280.622545 C516.848856,280.093202 512.60343,279.468127 508.360799,278.74732 C508.219699,278.727497 508.091078,278.655175 508.000259,278.544593 C506.586331,276.882766 504.988465,275.389221 503.23778,274.093045 C501.913006,273.104751 500.537924,272.158692 499.204765,271.16195 C498.806253,270.858336 498.43327,270.522134 498.089608,270.156762 C497.770991,269.827331 497.779376,269.557028 498.089608,269.312066 C498.285806,269.150277 498.499583,269.011423 498.726841,268.898165 C499.063618,268.730935 499.386124,268.535994 499.691075,268.315325 C500.29799,267.759634 500.741748,267.046683 500.973926,266.254267 C501.304497,264.923552 501.034424,263.513686 500.236077,262.402453 C498.511517,259.863046 495.735381,258.250243 492.689895,258.018481 C490.593734,257.891776 488.958728,258.407041 487.935801,259.859918 C486.552334,261.802719 487.097336,264.63245 488.975497,266.735743 C489.822531,267.648837 490.814237,268.413843 491.910123,268.999529 C493.16782,269.709073 494.425517,270.359489 495.733522,271.026799 C497.191594,271.751908 498.566482,272.635656 499.833614,273.66225 C501.378977,274.855987 502.406437,276.605361 502.701163,278.544593 C502.706501,278.632185 502.664922,278.715962 502.592163,278.764214 C501.839014,279.145235 501.02892,279.399201 500.194154,279.515994 C498.218527,279.730693 496.222748,279.382421 494.433902,278.510805 C492.987339,277.842829 491.586769,277.078079 490.241579,276.221679 C488.593622,275.188222 486.785467,274.44017 484.892174,274.008576 C481.932394,273.375054 479.375077,274.13528 478.377304,276.399065 C477.614301,278.088457 477.941303,280.546523 479.978772,282.480876 C481.696536,284.219603 483.955078,285.311044 486.376257,285.572464 C488.682034,285.792085 490.350579,285.074093 491.298044,283.44383 C491.624592,282.810085 491.791589,282.105224 491.784354,281.391219 C491.790755,281.049078 491.818761,280.707694 491.8682,280.369137 C491.9772,279.786296 492.396433,279.60891 493.117512,279.80319 C493.276821,279.845425 493.436129,279.88766 493.595437,279.946789 C494.70221,280.352243 495.808984,280.791485 496.949296,281.154704 C499.633033,282.060219 502.399661,282.694057 505.208172,283.046823 C508.399928,283.63811 511.594478,284.178715 514.791823,284.668639 C523.880779,285.918789 532.944582,286.653675 542,287 Z M496.623806,267.888029 C495.618838,268.111637 494.568447,267.998397 493.633866,267.565689 C491.415523,266.663138 489.775879,264.285884 490.025041,262.400197 C490.076882,262.12561 490.152176,261.856001 490.25009,261.594348 C491.254774,260.055177 492.854231,259.61196 495.072574,260.345282 C496.545825,260.772247 497.791015,261.765789 498.536725,263.109344 C499.058792,263.975669 499.144678,265.037549 498.768656,265.976893 C498.392634,266.916237 497.598377,267.623948 496.623806,267.888029 L496.623806,267.888029 Z M486.292253,283.997941 C485.240987,283.948694 484.215474,283.660259 483.295764,283.155153 C482.421404,282.692394 481.644803,282.068757 481.007846,281.317876 C479.872425,279.935704 479.68461,278.63781 480.504163,277.483191 C481.323716,276.328572 482.740859,275.907178 484.482408,276.01674 C485.817617,276.080062 487.096307,276.567853 488.127709,277.40734 C489.123594,278.090824 489.797751,279.142316 489.997314,280.323386 C490.035844,281.306153 489.658462,282.260441 488.955637,282.95748 C488.252812,283.654519 487.287912,284.03146 486.292253,283.997941 L486.292253,283.997941 Z" id="Shape" fill="#C659D1" fill-rule="nonzero"></path>
            <path d="M517.561256,286.415858 C514.473131,285.974689 511.379381,285.485443 508.280006,284.948121 C509.208131,285.796524 510.136256,286.644927 511.072818,287.433941 C515.460318,291.313969 519.875943,295.072393 524.319693,298.709212 C525.421796,299.658479 526.655328,300.441547 527.981568,301.033835 C529.793494,301.868099 531.811746,302.139865 533.778131,301.814366 C534.275943,301.729526 534.756881,301.585297 535.280006,301.458037 C529.317506,296.650422 523.411256,291.636362 517.561256,286.415858 Z" id="Path" fill="#C659D1" fill-rule="nonzero"></path>
            <path d="M642.26,238.44 C641.770996,238.447976 641.347967,238.101093 641.26,237.62 L637.8,218.5 C636.8,210.25 644.64,189.43 651.35,173.41 C655.046527,164.494517 656.660801,154.853333 656.07,145.22 C655.44,134.65 656.26,122.32 657.07,113.84 C657.254082,112.039611 656.450911,110.280283 654.97,109.24 C653.470485,108.161466 651.506289,107.974218 649.83,108.75 C643.06,111.83 639.48,117.53 639.2,125.75 C638.92,133.67 636.66,141.26 634.65,147.95 L634.38,148.86 C631.22,159.47 623.53,175.31 617.24,184.16 C607.49,197.88 605.77,209.03 606.04,215.97 C606.062091,216.522285 605.632285,216.987908 605.08,217.01 C604.527715,217.032091 604.062092,216.602285 604.04,216.05 C603.76,208.8 605.53,197.18 615.61,183 C621.79,174.3 629.35,158.72 632.47,148.28 L632.74,147.38 C634.74,140.8 636.93,133.38 637.2,125.68 C637.58,114.48 643.83,109.33 649.01,106.98 C651.332155,105.905241 654.05326,106.165122 656.13,107.66 C658.192845,109.115121 659.31241,111.568229 659.06,114.08 C658.26,122.49 657.44,134.71 658.06,145.15 C658.670311,155.086676 657.008234,165.031774 653.2,174.23 C643.84,196.57 639.08,212.23 639.78,218.23 L643.23,237.29 C643.27968,237.551307 643.223209,237.82164 643.073078,238.041207 C642.922946,238.260775 642.691525,238.411483 642.43,238.46 L642.26,238.44 Z" id="Path" fill="#443355" fill-rule="nonzero"></path>
            <path d="M606,213.37 L550.64,213.37 C545.909204,213.364489 542.075511,209.530796 542.07,204.8 L542.07,52.08 C542.075496,47.3475774 545.907587,43.5110153 550.64,43.5 L628.05,43.5 C632.786319,43.5055106 636.624489,47.3436813 636.63,52.08 L636.63,139.86 L632.81,153.63 C632.660883,154.162955 632.107955,154.474117 631.575,154.325 C631.042045,154.175883 630.730883,153.622955 630.88,153.09 L634.63,139.58 L634.63,52.08 C634.624493,48.4482498 631.68175,45.5055068 628.05,45.5 L550.64,45.5 C547.009872,45.5055169 544.07,48.449868 544.07,52.08 L544.07,204.8 C544.075507,208.426227 547.013773,211.364493 550.64,211.37 L604.07,211.37 C604.07,210.37 604.22,209.44 604.34,208.46 C604.409036,207.907715 604.912715,207.515964 605.465,207.585 C606.017285,207.654036 606.409036,208.157715 606.34,208.71 C606.18,209.97 606.07,211.22 606.03,212.41 L606,213.37 Z" id="Path" fill="#443356" fill-rule="nonzero"></path>
            <path d="M543.07,137.51 C542.980589,137.524559 542.889411,137.524559 542.8,137.51 C539.73,136.64 534.94,135.23 531.47,134.19 C527.47,133 524.8,128.6 525.05,123.73 L525.05,123.2 C525.42,117.92 529.05,113.92 533.4,113.88 C536.89,113.88 540.97,114.02 543.09,114.12 C543.642285,114.12 544.09,114.567715 544.09,115.12 C544.09,115.672285 543.642285,116.12 543.09,116.12 C540.98,116.02 536.93,115.85 533.51,115.88 C530.09,115.91 527.43,119.18 527.13,123.34 L527.13,123.83 C526.93,127.73 529.13,131.36 532.13,132.27 C535.59,133.27 540.36,134.72 543.42,135.59 C543.676042,135.660112 543.893698,135.829156 544.025003,136.059877 C544.156307,136.290598 544.190484,136.56406 544.12,136.82 C543.976217,137.26861 543.538834,137.556033 543.07,137.51 L543.07,137.51 Z" id="Path" fill="#443355" fill-rule="nonzero"></path>
            <path d="M543.07,165 C542.980589,165.014559 542.889411,165.014559 542.8,165 C539.52,164.08 534.34,162.54 530.58,161.42 C527.04,160.36 524.58,155.42 525.09,150.2 L525.09,149.97 C525.56,145.1 528.4,141.5 531.82,141.4 C535.51,141.29 540.47,141.49 543.1,141.61 C543.374111,141.609657 543.636346,141.72185 543.825389,141.920344 C544.014431,142.118839 544.113706,142.386231 544.1,142.66 C544.073334,143.192667 543.633333,143.610667 543.1,143.61 C540.5,143.49 535.6,143.29 531.97,143.4 C529.6,143.47 527.54,146.4 527.17,150.16 L527.17,150.38 C526.79,154.62 528.62,158.72 531.25,159.5 C535,160.62 540.16,162.16 543.43,163.08 C543.686042,163.150112 543.903698,163.319156 544.035003,163.549877 C544.166307,163.780598 544.200484,164.05406 544.13,164.31 C543.985456,164.762614 543.542386,165.051028 543.07,165 Z" id="Path" fill="#443355" fill-rule="nonzero"></path>
            <path d="M540.843805,191.92 L540.673805,191.92 C538.533805,191.55 536.163805,191.11 534.313805,190.77 C531.393805,190.23 529.463805,185.77 529.823805,180.3 L529.823805,180.06 C530.183805,175.14 532.313805,171.25 535.003805,170.59 C537.693805,169.93 540.903805,169.43 543.243805,169.09 C543.79609,169.009919 544.308724,169.392715 544.388805,169.945 C544.468886,170.497285 544.08609,171.009919 543.533805,171.09 C541.653805,171.36 538.103805,171.92 535.473805,172.56 C533.923805,172.93 532.133805,175.91 531.813805,180.23 L531.813805,180.45 C531.503805,185.02 533.073805,188.53 534.663805,188.82 C536.513805,189.16 538.883805,189.6 541.003805,189.97 C541.55609,190.016944 541.965749,190.502715 541.918805,191.055 C541.871861,191.607285 541.38609,192.016944 540.833805,191.97 L540.843805,191.92 Z" id="Path" fill="#443355" fill-rule="nonzero" transform="translate(537.090050, 180.526537) rotate(-2.000000) translate(-537.090050, -180.526537) "></path>
            <path d="M576.14,240.69 C575.675131,240.705924 575.260664,240.399218 575.14,239.95 C573.910358,235.311666 570.932054,231.329842 566.83,228.84 C562.077665,225.91692 558.698153,221.20794 557.45,215.77 C557.358654,215.41691 557.466781,215.042092 557.732159,214.791909 C557.997537,214.541727 558.378073,214.455862 558.72517,214.567845 C559.072267,214.679828 559.330872,214.971897 559.4,215.33 C560.526706,220.242804 563.582926,224.495562 567.88,227.13 C572.416758,229.889412 575.709969,234.297083 577.07,239.43 C577.140484,239.68594 577.106307,239.959402 576.975003,240.190123 C576.843698,240.420844 576.626042,240.589888 576.37,240.66 L576.14,240.69 Z" id="Path" fill="#443355" fill-rule="nonzero"></path>
            <path d="M588.710669,341.550013 C588.195191,341.552583 587.762211,341.162901 587.710669,340.65 C585.711352,319.481445 582.063618,298.501125 576.800669,277.9 C576.683816,277.546934 576.772547,277.158186 577.03102,276.890789 C577.289494,276.623391 577.675007,276.521519 578.031834,276.626325 C578.388662,276.73113 578.657853,277.025298 578.730669,277.39 C584.033622,298.091533 587.711475,319.175657 589.730669,340.45 C589.782865,340.99944 589.380059,341.487282 588.830669,341.54 L588.710669,341.550013 Z" id="Path" fill="#443356" fill-rule="nonzero" opacity="0.15"></path>
            <path d="M577.31,277.550059 C576.757715,277.550059 576.31,277.102285 576.31,276.55 L576.31,271.64 C576.30198,267.055846 575.277379,262.530526 573.31,258.39 C571.222956,253.982092 570.137005,249.167024 570.13,244.29 L570.13,240.7 L570.77,240.45 C571.14,240.3 608.29,225.93 646.5,237.6 C647.498373,237.920947 648.256686,238.739925 648.5,239.76 L651.35,251.88 C651.832006,253.949381 651.717584,256.113001 651.02,258.12 L649.36,262.85 L650.2,263.2 C653.764474,264.684268 656.552988,267.581425 657.9,271.2 C658.096061,271.716386 657.836386,272.293939 657.32,272.49 C656.803614,272.686061 656.226061,272.426386 656.03,271.91 C654.862942,268.822534 652.475693,266.352093 649.43,265.08 L646.88,264 L649.16,257.5 C649.733638,255.850004 649.827265,254.071096 649.43,252.37 L646.58,240.26 C646.497084,239.925394 646.247672,239.657087 645.92,239.55 C611.11,228.92 577.16,240.3 572.14,242.11 L572.14,244.33 C572.152802,248.910405 573.177205,253.431437 575.14,257.57 C577.227226,261.981392 578.313149,266.799749 578.32,271.68 L578.32,276.59 C578.298394,277.130502 577.850902,277.555841 577.31,277.550059 Z" id="Path" fill="#443355" fill-rule="nonzero"></path>
            <path d="M680.07,340.52 C679.610829,340.538276 679.198306,340.241259 679.07,339.8 C671.98,315.11 661.07,291.8 656.78,282.98 C655.116471,279.60411 654.88219,275.700624 656.13,272.15 C656.247898,271.812384 656.536956,271.563312 656.888288,271.496606 C657.239621,271.4299 657.599853,271.555696 657.833288,271.826606 C658.066724,272.097516 658.137898,272.472384 658.02,272.81 C656.949326,275.85591 657.151194,279.204759 658.58,282.1 C663,291 673.9,314.41 681,339.25 C681.073888,339.505952 681.042594,339.780806 680.913057,340.013596 C680.783521,340.246386 680.566452,340.417867 680.31,340.49 L680.07,340.52 Z" id="Path" fill="#443356" fill-rule="nonzero" opacity="0.15"></path>
            <path d="M580.55,274.75 C580.09363,274.769504 579.682052,274.477283 579.55,274.04 C579.472294,273.78539 579.499313,273.510305 579.625072,273.275679 C579.750832,273.041053 579.964951,272.866254 580.22,272.79 C580.53,272.69 612.16,263.11 641.88,265.91 C642.42939,265.962718 642.832196,266.45056 642.78,267 C642.727282,267.54939 642.23944,267.952196 641.69,267.9 C612.35,265.14 581.12,274.61 580.8,274.7 C580.719357,274.728064 580.635234,274.744889 580.55,274.75 L580.55,274.75 Z" id="Path" fill="#443355" fill-rule="nonzero"></path>
            <circle id="Oval" fill="#443356" fill-rule="nonzero" opacity="0.44" cx="588.02" cy="257.41" r="5.94"></circle>
            <path d="M583,89.61 C581.683022,89.6656877 580.455131,88.9461595 579.86,87.77 C579.49,87.1 579.11,86.4 578.81,85.7 C577.05,81.5266667 575.296667,77.35 573.55,73.17 L568.77,61.76 C568.690499,61.4625251 568.451049,61.2346611 568.15,61.17 C567.862688,61.1141582 567.567312,61.1141582 567.28,61.17 C566.89,61.25 566.74,61.61 566.64,61.84 L556.64,85.23 C556.162163,86.4488245 555.530369,87.6015138 554.76,88.66 C554.554455,88.9412877 554.263214,89.1483141 553.93,89.25 L552.93,89.5 L551.93,89.74 L551.93,91.63 L559.86,91.63 L562.18,91.63 L562.18,89.75 L561.18,89.58 C560.78,89.52 560.39,89.46 560.01,89.38 C559.81236,89.342434 559.620651,89.2785311 559.44,89.19 C559.040665,89.0356868 558.827246,88.600137 558.95,88.19 C559.122485,87.5085814 559.343038,86.8402411 559.61,86.19 C559.96,85.34 560.32,84.5 560.69,83.66 C560.91,83.13 561.14,82.66 561.36,82.08 L571.6,82.08 C572.3,83.78 573,85.47 573.68,87.18 C573.801808,87.5306219 573.888893,87.8923576 573.94,88.26 C574.035458,88.7025976 573.767218,89.1423348 573.33,89.26 C573.003342,89.3586902 572.668763,89.4289518 572.33,89.47 L571.82,89.55 L571.9,90.18 L571.9,90.18 L571.68,89.56 L571.1,89.56 L571.1,91 L571.18,91.57 L571.75,91.63 L583,91.63 L583.59,91.63 L583.59,89.63 L583,89.61 Z M570.45,79.24 L562.54,79.24 L566.54,69.95 L570.45,79.24 Z" id="Shape" fill="#C659D1" fill-rule="nonzero"></path>
            <path d="M558,152 L625,152 C625.389687,158.541929 624.81869,164.601666 623.287007,170.179214 C622.44101,173.259872 620.395775,175.719203 618.90397,178.103001 C618.097893,179.391055 616.968766,181.185211 615.516591,183.48547 L558,184 L558,152 Z" id="Rectangle" fill="#C659D1"></path>
            <rect id="Rectangle" fill="#443356" fill-rule="nonzero" x="589.56" y="66.01" width="34.92" height="2"></rect>
            <rect id="Rectangle" fill="#443356" fill-rule="nonzero" x="589.56" y="73.82" width="34.92" height="2"></rect>
            <rect id="Rectangle" fill="#443356" fill-rule="nonzero" x="589.56" y="81.64" width="34.92" height="2"></rect>
            <rect id="Rectangle" fill="#443356" fill-rule="nonzero" x="589.56" y="89.45" width="20.95" height="2"></rect>
            <rect id="Rectangle" fill="#443356" fill-rule="nonzero" x="555.9" y="106.33" width="69.84" height="2"></rect>
            <rect id="Rectangle" fill="#443356" fill-rule="nonzero" x="555.9" y="114.14" width="55.29" height="2"></rect>
            <rect id="Rectangle" fill="#443356" fill-rule="nonzero" x="555.9" y="121.95" width="69.84" height="2"></rect>
            <rect id="Rectangle" fill="#443356" fill-rule="nonzero" x="555.9" y="129.76" width="69.84" height="2"></rect>
            <rect id="Rectangle" fill="#443356" fill-rule="nonzero" x="555.9" y="137.57" width="55.29" height="2"></rect>
            <polygon id="Path" fill="#443356" fill-rule="nonzero" points="615.75 185.51 555.95 185.51 555.95 151 625.48 151 625.48 172.38 623.48 172.38 623.48 153 557.95 153 557.95 183.51 615.75 183.51"></polygon>
            <path d="M566.92,179.89 C564.606829,179.953734 562.310278,179.481417 560.21,178.51 C558.193638,177.619113 556.654303,175.90874 555.98,173.81 C555.852975,173.271522 556.186523,172.732026 556.725,172.605 C557.263478,172.477975 557.802974,172.811523 557.93,173.35 C558.478877,174.897265 559.660877,176.137456 561.18,176.76 C564.59,178.42 571.67,179.06 586,172.67 C602.55,165.29 613.45,167.78 619.67,171.17 C619.982607,171.348633 620.176169,171.68047 620.177782,172.040513 C620.179376,172.400555 619.988777,172.734103 619.677772,172.915513 C619.366768,173.096922 618.982607,173.098633 618.67,172.92 C612.85,169.75 602.58,167.45 586.77,174.5 C578.75,178.09 572.09,179.89 566.92,179.89 Z" id="Path" fill="#443356" fill-rule="nonzero"></path>
            <path d="M571.15,169.83 C568.997352,169.83 567.056857,168.532735 566.234011,166.543559 C565.411166,164.554384 565.868158,162.265374 567.391742,160.744655 C568.915325,159.223935 571.20519,158.77125 573.192815,159.597837 C575.180439,160.424423 576.474046,162.367355 576.470009,164.52 C576.464484,167.454249 574.084254,169.83 571.15,169.83 Z M571.15,161.2 C569.316415,161.2 567.83,162.686415 567.83,164.52 C567.83,166.353585 569.316415,167.84 571.15,167.84 C572.983585,167.84 574.47,166.353585 574.47,164.52 C574.47,162.686415 572.983585,161.2 571.15,161.2 Z" id="Shape" fill="#443356" fill-rule="nonzero"></path>
            <path d="M617.18,164.51 C617.247874,164.197731 617.28472,163.879517 617.29,163.56 C617.29,161.179653 615.360347,159.25 612.98,159.25 C612.140299,159.247177 611.318757,159.494335 610.62,159.96 C609.628512,157.488447 607.173646,155.922271 604.51445,156.064728 C601.855253,156.207185 599.581762,158.026666 598.86,160.59 C597.640986,159.310856 595.764707,158.905336 594.126249,159.566894 C592.487791,160.228451 591.4191,161.823058 591.429917,163.59 C591.433565,163.910212 591.473828,164.228959 591.55,164.54 L617.18,164.51 Z" id="Path" fill="#443356" fill-rule="nonzero" opacity="0.43"></path>
            <path d="M730,204.64 L646.69,204.64 L646.69,193.39 C646.69,192.837715 647.137715,192.39 647.69,192.39 C648.242285,192.39 648.69,192.837715 648.69,193.39 L648.69,202.64 L728,202.64 L728,54.23 L648.69,54.23 L648.69,108.46 C648.69,109.012285 648.242285,109.46 647.69,109.46 C647.137715,109.46 646.69,109.012285 646.69,108.46 L646.69,52.23 L730,52.23 L730,204.64 Z" id="Path" fill="#443356" fill-rule="nonzero"></path>
            <path d="M718.82,68 L657.82,68 C657.267715,68 656.82,67.5522847 656.82,67 C656.82,66.4477153 657.267715,66 657.82,66 L718.82,66 C719.372285,66 719.82,66.4477153 719.82,67 C719.82,67.5522847 719.372285,68 718.82,68 Z" id="Path" fill="#443356" fill-rule="nonzero" opacity="0.43"></path>
            <path d="M710.83,75.82 L657.83,75.82 C657.277715,75.82 656.83,75.3722847 656.83,74.82 C656.83,74.2677153 657.277715,73.82 657.83,73.82 L710.83,73.82 C711.382285,73.82 711.83,74.2677153 711.83,74.82 C711.83,75.3722847 711.382285,75.82 710.83,75.82 Z" id="Path" fill="#443356" fill-rule="nonzero" opacity="0.43"></path>
            <path d="M718.82,83.64 L657.82,83.64 C657.267715,83.64 656.82,83.1922847 656.82,82.64 C656.82,82.0877153 657.267715,81.64 657.82,81.64 L718.82,81.64 C719.372285,81.64 719.82,82.0877153 719.82,82.64 C719.82,83.1922847 719.372285,83.64 718.82,83.64 Z" id="Path" fill="#443356" fill-rule="nonzero" opacity="0.43"></path>
            <path d="M702.31,91.45 L657.82,91.45 C657.267715,91.45 656.82,91.0022847 656.82,90.45 C656.82,89.8977153 657.267715,89.45 657.82,89.45 L702.31,89.45 C702.862285,89.45 703.31,89.8977153 703.31,90.45 C703.31,91.0022847 702.862285,91.45 702.31,91.45 L702.31,91.45 Z" id="Path" fill="#443356" fill-rule="nonzero" opacity="0.43"></path>
            <path d="M718.82,107.07 L657.82,107.07 C657.267715,107.07 656.82,106.622285 656.82,106.07 C656.82,105.517715 657.267715,105.07 657.82,105.07 L718.82,105.07 C719.372285,105.07 719.82,105.517715 719.82,106.07 C719.82,106.622285 719.372285,107.07 718.82,107.07 Z" id="Path" fill="#443356" fill-rule="nonzero" opacity="0.43"></path>
            <path d="M718.82,114.88 L657.82,114.88 C657.267715,114.88 656.82,114.432285 656.82,113.88 C656.82,113.327715 657.267715,112.88 657.82,112.88 L718.82,112.88 C719.372285,112.88 719.82,113.327715 719.82,113.88 C719.82,114.432285 719.372285,114.88 718.82,114.88 Z" id="Path" fill="#443356" fill-rule="nonzero" opacity="0.43"></path>
            <path d="M710.83,122.69 L657.83,122.69 C657.277715,122.69 656.83,122.242285 656.83,121.69 C656.83,121.137715 657.277715,120.69 657.83,120.69 L710.83,120.69 C711.382285,120.69 711.83,121.137715 711.83,121.69 C711.83,122.242285 711.382285,122.69 710.83,122.69 Z" id="Path" fill="#443356" fill-rule="nonzero" opacity="0.43"></path>
            <path d="M718.82,130.5 L657.82,130.5 C657.267715,130.5 656.82,130.052285 656.82,129.5 C656.82,128.947715 657.267715,128.5 657.82,128.5 L718.82,128.5 C719.372285,128.5 719.82,128.947715 719.82,129.5 C719.82,130.052285 719.372285,130.5 718.82,130.5 Z" id="Path" fill="#443356" fill-rule="nonzero" opacity="0.43"></path>
            <path d="M702.31,138.31 L657.82,138.31 C657.267715,138.31 656.82,137.862285 656.82,137.31 C656.82,136.757715 657.267715,136.31 657.82,136.31 L702.31,136.31 C702.862285,136.31 703.31,136.757715 703.31,137.31 C703.31,137.862285 702.862285,138.31 702.31,138.31 L702.31,138.31 Z" id="Path" fill="#443356" fill-rule="nonzero" opacity="0.43"></path>
            <path d="M710.83,153.93 L657.83,153.93 C657.277715,153.93 656.83,153.482285 656.83,152.93 C656.83,152.377715 657.277715,151.93 657.83,151.93 L710.83,151.93 C711.382285,151.93 711.83,152.377715 711.83,152.93 C711.83,153.482285 711.382285,153.93 710.83,153.93 Z" id="Path" fill="#443356" fill-rule="nonzero" opacity="0.43"></path>
            <path d="M718.82,161.75 L657.82,161.75 C657.267715,161.75 656.82,161.302285 656.82,160.75 C656.82,160.197715 657.267715,159.75 657.82,159.75 L718.82,159.75 C719.372285,159.75 719.82,160.197715 719.82,160.75 C719.82,161.302285 719.372285,161.75 718.82,161.75 Z" id="Path" fill="#443356" fill-rule="nonzero" opacity="0.43"></path>
            <path d="M702.31,169.56 L657.82,169.56 C657.267715,169.56 656.82,169.112285 656.82,168.56 C656.82,168.007715 657.267715,167.56 657.82,167.56 L702.31,167.56 C702.862285,167.56 703.31,168.007715 703.31,168.56 C703.31,169.112285 702.862285,169.56 702.31,169.56 L702.31,169.56 Z" id="Path" fill="#443356" fill-rule="nonzero" opacity="0.43"></path>
            <path d="M718.82,185.18 L657.82,185.18 C657.267715,185.18 656.82,184.732285 656.82,184.18 C656.82,183.627715 657.267715,183.18 657.82,183.18 L718.82,183.18 C719.372285,183.18 719.82,183.627715 719.82,184.18 C719.82,184.732285 719.372285,185.18 718.82,185.18 Z" id="Path" fill="#443356" fill-rule="nonzero" opacity="0.43"></path>
            <path d="M702.31,193 L657.82,193 C657.267715,193 656.82,192.552285 656.82,192 C656.82,191.447715 657.267715,191 657.82,191 L702.31,191 C702.862285,191 703.31,191.447715 703.31,192 C703.31,192.552285 702.862285,193 702.31,193 L702.31,193 Z" id="Path" fill="#443356" fill-rule="nonzero" opacity="0.43"></path>
            <path d="M772.05,204.64 L740.05,204.64 L740.05,52.23 L786.52,52.23 C787.072285,52.23 787.52,52.6777153 787.52,53.23 C787.52,53.7822847 787.072285,54.23 786.52,54.23 L742.09,54.23 L742.09,202.64 L772.09,202.64 C772.642285,202.64 773.09,203.087715 773.09,203.64 C773.09,204.192285 772.642285,204.64 772.09,204.64 L772.05,204.64 Z" id="Path" fill="#443356" fill-rule="nonzero" opacity="0.58"></path>
            <path d="M798.33,68 L751.22,68 C750.667715,68 750.22,67.5522847 750.22,67 C750.22,66.4477153 750.667715,66 751.22,66 L798.33,66 C798.882285,66 799.33,66.4477153 799.33,67 C799.33,67.5522847 798.882285,68 798.33,68 Z" id="Path" fill="#443356" fill-rule="nonzero" opacity="0.15"></path>
            <path d="M790.35,75.82 L751.22,75.82 C750.667715,75.82 750.22,75.3722847 750.22,74.82 C750.22,74.2677153 750.667715,73.82 751.22,73.82 L790.35,73.82 C790.902285,73.82 791.35,74.2677153 791.35,74.82 C791.35,75.3722847 790.902285,75.82 790.35,75.82 Z" id="Path" fill="#443356" fill-rule="nonzero" opacity="0.15"></path>
            <path d="M798.33,83.64 L751.22,83.64 C750.667715,83.64 750.22,83.1922847 750.22,82.64 C750.22,82.0877153 750.667715,81.64 751.22,81.64 L798.33,81.64 C798.882285,81.64 799.33,82.0877153 799.33,82.64 C799.33,83.1922847 798.882285,83.64 798.33,83.64 Z" id="Path" fill="#443356" fill-rule="nonzero" opacity="0.15"></path>
            <path d="M781.83,91.45 L751.22,91.45 C750.667715,91.45 750.22,91.0022847 750.22,90.45 C750.22,89.8977153 750.667715,89.45 751.22,89.45 L781.83,89.45 C782.382285,89.45 782.83,89.8977153 782.83,90.45 C782.83,91.0022847 782.382285,91.45 781.83,91.45 Z" id="Path" fill="#443356" fill-rule="nonzero" opacity="0.15"></path>
            <path d="M798.33,107.07 L751.22,107.07 C750.667715,107.07 750.22,106.622285 750.22,106.07 C750.22,105.517715 750.667715,105.07 751.22,105.07 L798.33,105.07 C798.882285,105.07 799.33,105.517715 799.33,106.07 C799.33,106.622285 798.882285,107.07 798.33,107.07 Z" id="Path" fill="#443356" fill-rule="nonzero" opacity="0.15"></path>
            <path d="M798.33,114.88 L751.22,114.88 C750.667715,114.88 750.22,114.432285 750.22,113.88 C750.22,113.327715 750.667715,112.88 751.22,112.88 L798.33,112.88 C798.882285,112.88 799.33,113.327715 799.33,113.88 C799.33,114.432285 798.882285,114.88 798.33,114.88 Z" id="Path" fill="#443356" fill-rule="nonzero" opacity="0.15"></path>
            <path d="M790.35,122.69 L751.22,122.69 C750.667715,122.69 750.22,122.242285 750.22,121.69 C750.22,121.137715 750.667715,120.69 751.22,120.69 L790.35,120.69 C790.902285,120.69 791.35,121.137715 791.35,121.69 C791.35,122.242285 790.902285,122.69 790.35,122.69 Z" id="Path" fill="#443356" fill-rule="nonzero" opacity="0.15"></path>
            <path d="M798.33,130.5 L751.22,130.5 C750.667715,130.5 750.22,130.052285 750.22,129.5 C750.22,128.947715 750.667715,128.5 751.22,128.5 L798.33,128.5 C798.882285,128.5 799.33,128.947715 799.33,129.5 C799.33,130.052285 798.882285,130.5 798.33,130.5 Z" id="Path" fill="#443356" fill-rule="nonzero" opacity="0.15"></path>
            <path d="M781.83,138.31 L751.22,138.31 C750.667715,138.31 750.22,137.862285 750.22,137.31 C750.22,136.757715 750.667715,136.31 751.22,136.31 L781.83,136.31 C782.382285,136.31 782.83,136.757715 782.83,137.31 C782.83,137.862285 782.382285,138.31 781.83,138.31 Z" id="Path" fill="#443356" fill-rule="nonzero" opacity="0.15"></path>
            <path d="M790.35,153.93 L751.22,153.93 C750.667715,153.93 750.22,153.482285 750.22,152.93 C750.22,152.377715 750.667715,151.93 751.22,151.93 L790.35,151.93 C790.902285,151.93 791.35,152.377715 791.35,152.93 C791.35,153.482285 790.902285,153.93 790.35,153.93 Z" id="Path" fill="#443356" fill-rule="nonzero" opacity="0.15"></path>
            <path d="M798.33,161.75 L751.22,161.75 C750.667715,161.75 750.22,161.302285 750.22,160.75 C750.22,160.197715 750.667715,159.75 751.22,159.75 L798.33,159.75 C798.882285,159.75 799.33,160.197715 799.33,160.75 C799.33,161.302285 798.882285,161.75 798.33,161.75 Z" id="Path" fill="#443356" fill-rule="nonzero" opacity="0.15"></path>
            <path d="M781.83,169.56 L751.22,169.56 C750.667715,169.56 750.22,169.112285 750.22,168.56 C750.22,168.007715 750.667715,167.56 751.22,167.56 L781.83,167.56 C782.382285,167.56 782.83,168.007715 782.83,168.56 C782.83,169.112285 782.382285,169.56 781.83,169.56 Z" id="Path" fill="#443356" fill-rule="nonzero" opacity="0.15"></path>
            <path d="M798.33,185.18 L751.22,185.18 C750.667715,185.18 750.22,184.732285 750.22,184.18 C750.22,183.627715 750.667715,183.18 751.22,183.18 L798.33,183.18 C798.882285,183.18 799.33,183.627715 799.33,184.18 C799.33,184.732285 798.882285,185.18 798.33,185.18 Z" id="Path" fill="#443356" fill-rule="nonzero" opacity="0.15"></path>
            <path d="M781.83,193 L751.22,193 C750.667715,193 750.22,192.552285 750.22,192 C750.22,191.447715 750.667715,191 751.22,191 L781.83,191 C782.382285,191 782.83,191.447715 782.83,192 C782.83,192.552285 782.382285,193 781.83,193 Z" id="Path" fill="#443356" fill-rule="nonzero" opacity="0.15"></path>
            <path d="M564.61,225.93 L570.75,225.93 C582.900798,225.920287 594.797765,222.451783 605.05,215.93 L605.05,215.93 L605.05,212.34 L557,212.34 C557,212.34 560.66,223.09 564.61,225.93 Z" id="Path" fill="#443356" fill-rule="nonzero" opacity="0.43"></path>
            <polygon id="Path" fill="#443356" fill-rule="nonzero" opacity="0.43" points="537.62 115.14 537.62 135.2 543.07 136.51 543.07 115.08"></polygon>
            <polygon id="Path" fill="#443356" fill-rule="nonzero" opacity="0.43" points="537.62 142.36 537.62 162.41 543.07 163.99 543.07 142.56"></polygon>
            <path d="M532.072018,115.768486 L541.888098,115.930805 L541.972817,135.438376 L531.171723,131.93781 L528.664766,130.197139 C527.762843,128.500855 527.209716,127.290098 527.005384,126.56487 C526.642641,125.277399 526.62096,124.089959 526.657797,123.175397 C526.704896,122.006085 527.175845,120.002346 528.891119,118.082255 C529.397696,117.515189 530.457996,116.743932 532.072018,115.768486 Z" id="Rectangle" fill="#FFFFFF"></path>
            <path d="M532.072018,143 L542.089666,143.154085 L542.02599,162.713876 L531.219954,159.501601 L529.93938,158.837198 L528.664766,157.428654 C527.762843,155.732369 527.209716,154.521612 527.005384,153.796384 C526.642641,152.508913 526.62096,151.321473 526.657797,150.406911 C526.704896,149.237599 527.175845,147.23386 528.891119,145.31377 C529.19437,144.974308 529.451164,144.405635 530.151273,143.919829 C530.464217,143.702677 531.104465,143.396067 532.072018,143 Z" id="Rectangle-Copy" fill="#FFFFFF"></path>
        </g>
    </g>
</svg>