<?xml version="1.0" encoding="UTF-8"?>
<svg width="1250px" height="334px" viewBox="0 0 1250 334" version="1.1" xmlns="http://www.w3.org/2000/svg" xmlns:xlink="http://www.w3.org/1999/xlink">
    <!-- Generator: Sketch 50.2 (55047) - http://www.bohemiancoding.com/sketch -->
    <title>5a9b058f2c064e00011c502d_js-banners-new-11</title>
    <desc>Created with Sketch.</desc>
    <defs></defs>
    <g id="Page-1" stroke="none" stroke-width="1" fill="none" fill-rule="evenodd">
        <g id="5a9b058f2c064e00011c502d_js-banners-new-11" fill-rule="nonzero">
            <g id="Group" transform="translate(540.000000, 0.000000)">
                <g transform="translate(106.000000, 182.000000)" id="Shape">
                    <g transform="translate(0.000000, 1.000000)">
                        <path d="M45.9,13.5 L39.6,8.8 L36.4,6.4 L30.1,1.7 L26,7.1 C25.1,8.3 24.5,9.8 24.3,11.3 L24.3,11.4 C24.1,13.2 23,14.7 21.4,15.5 L20.4,16 C19.2,16.6 18.2,17.5 17.4,18.6 L2.1,39.1 C0.4,41.4 0.8,44.7 3.2,46.4 L5.2,47.9 L8.4,50.3 L10.4,51.8 C12.7,53.5 16,53.1 17.7,50.7 L33,30.2 C33.8,29.1 34.3,27.9 34.6,26.6 L34.8,25.5 C35.1,23.8 36.3,22.3 37.9,21.6 L38,21.6 C39.4,21 40.7,20 41.6,18.8 L45.9,13.5 Z" fill="#C659D1"></path>
                        <path d="M13.7,54 C12.3,54 11.1,53.6 10,52.8 L2.7,47.3 C1.4,46.3 0.5,44.8 0.3,43.2 C0.1,41.5 0.5,39.9 1.5,38.6 L16.8,18.1 C17.7,16.9 18.9,15.9 20.2,15.3 L21.2,14.8 C22.5,14.2 23.3,12.9 23.5,11.5 L23.5,11.4 C23.7,9.7 24.3,8.1 25.4,6.7 L30.1,0.5 L47.4,13.5 L42.7,19.7 C41.7,21.1 40.3,22.2 38.7,22.8 L38.6,22.8 C37.3,23.4 36.3,24.5 36.1,26 L35.9,27.1 C35.6,28.6 35,30 34.1,31.2 L18.8,51.7 C17.6,53.1 15.7,54 13.7,54 Z M30.4,3.1 L26.9,7.7 C26.1,8.8 25.6,10.1 25.4,11.4 L25.4,11.5 C25.2,13.6 23.9,15.4 22,16.4 L21,16.9 C19.9,17.4 19,18.2 18.3,19.2 L3,39.7 C2.3,40.6 2,41.7 2.2,42.9 C2.4,44.1 3,45 3.9,45.7 L11.2,51.2 C11.9,51.8 12.8,52 13.7,52 C15.1,52 16.3,51.4 17.1,50.3 L32.4,29.8 C33.1,28.9 33.6,27.7 33.8,26.6 L34,25.5 C34.4,23.4 35.8,21.7 37.7,20.9 L37.8,20.9 C39.1,20.4 40.2,19.5 41,18.4 L44.5,13.8 L30.4,3.1 Z" fill="#443356"></path>
                    </g>
                    <path d="M27.4,13.7 C27.4,13.7 27.3,13.7 27.3,13.7 C26.8,13.6 26.4,13.1 26.4,12.6 C26.5,11.4 27,10.3 27.7,9.4 L30,6.4 C30.3,6 31,5.9 31.4,6.2 C31.8,6.5 31.9,7.2 31.6,7.6 L29.3,10.6 C28.8,11.3 28.5,12 28.4,12.9 C28.3,13.3 27.9,13.7 27.4,13.7 Z" fill="#FFFFFF" opacity="0.52"></path>
                    <path d="M4.6,42.9 C4.4,42.9 4.2,42.8 4,42.7 C3.6,42.4 3.5,41.7 3.8,41.3 L10.1,32.9 C10.4,32.5 11.1,32.4 11.5,32.7 C11.9,33 12,33.7 11.7,34.1 L5.4,42.5 C5.2,42.8 4.9,42.9 4.6,42.9 Z" fill="#FFFFFF" opacity="0.52"></path>
                    <path d="M7.2,49.8 L20.5,29.1 C21,28.4 21.1,27.5 20.8,26.7 C20.2,25.3 18.3,24.1 12,27 L14.5,23.3 C14.5,23.3 19.9,19.4 25.8,25.4 L32.6,25.9 L28.4,21 L39.7,9.8 L46,14.5 L41.1,22.8 L35.8,24.8 L34.9,27.8 L18.9,51 C16.8,54 12.5,54.6 9.8,52.1 L7.2,49.8 Z" fill="#443356" opacity="0.35"></path>
                    <g transform="translate(28.000000, 0.000000)">
                        <path d="M17.5,9.5 L7,1.6 C5.6,0.5 3.5,0.8 2.5,2.3 L2.2,2.7 L17.9,14.5 L18.2,14.1 C19.3,12.6 19,10.6 17.5,9.5 Z" fill="#CFCAD3"></path>
                        <path d="M18.1,15.9 L0.8,2.9 L1.7,1.7 C2.5,0.6 3.8,2.84217094e-14 5.1,2.84217094e-14 C6,2.84217094e-14 6.9,0.3 7.6,0.8 L18.1,8.7 C20,10.1 20.4,12.8 19,14.6 L18.1,15.9 Z M3.6,2.5 L17.7,13 C18.1,12.1 17.9,10.9 17,10.3 L6.5,2.4 C5.6,1.8 4.4,1.9 3.6,2.5 Z" fill="#443356"></path>
                    </g>
                    <path d="M40.3,6.6 C40.1,6.6 39.9,6.5 39.7,6.4 C39.3,6.1 39.2,5.4 39.5,5 L41,3.1 C41.3,2.7 42,2.6 42.4,2.9 C42.8,3.2 42.9,3.9 42.6,4.3 L41.1,6.2 C40.9,6.4 40.6,6.6 40.3,6.6 Z" fill="#443356"></path>
                    <g transform="translate(26.000000, 28.000000)">
                        <path d="M5.4,7.9 L2.8,6 C1.7,5.1 1.5,3.6 2.4,2.5 C3.3,1.4 5,1.2 6.2,2.1 L8.8,4 C9.9,4.9 10.1,6.4 9.2,7.5 C8.2,8.5 6.5,8.7 5.4,7.9 Z" fill="#FFFFFF"></path>
                        <path d="M7,9.4 C6.2,9.4 5.4,9.1 4.8,8.7 L2.2,6.8 C1.4,6.2 0.9,5.4 0.8,4.5 C0.7,3.6 1,2.6 1.6,1.9 C2.3,1.1 3.4,0.6 4.5,0.6 C5.3,0.6 6.1,0.9 6.7,1.3 L9.3,3.2 C10.1,3.8 10.6,4.6 10.7,5.6 C10.8,6.5 10.5,7.5 9.9,8.2 C9.2,8.9 8.1,9.4 7,9.4 Z M4.6,2.5 C4.1,2.5 3.6,2.7 3.2,3.1 C2.9,3.4 2.8,3.8 2.8,4.2 C2.8,4.6 3,4.9 3.4,5.2 L6,7.1 C6.7,7.6 7.8,7.5 8.4,6.8 C8.7,6.5 8.8,6.1 8.8,5.7 C8.8,5.3 8.6,5 8.2,4.7 L5.6,2.8 C5.3,2.6 4.9,2.5 4.6,2.5 Z" fill="#443356"></path>
                    </g>
                    <g transform="translate(23.000000, 32.000000)">
                        <path d="M5,7.7 L2.4,5.8 C1.3,4.9 1.1,3.4 2,2.3 C2.9,1.2 4.6,1 5.8,1.9 L8.4,3.8 C9.5,4.7 9.7,6.2 8.8,7.3 C7.8,8.4 6.1,8.6 5,7.7 Z" fill="#FFFFFF"></path>
                        <path d="M6.6,9.3 C5.8,9.3 5,9 4.4,8.6 L1.8,6.7 C1,6.1 0.5,5.3 0.4,4.4 C0.3,3.5 0.6,2.5 1.2,1.8 C2.4,0.4 4.8,0.1 6.3,1.3 L8.9,3.2 C9.7,3.8 10.2,4.6 10.3,5.6 C10.4,6.5 10.1,7.5 9.5,8.2 C8.8,8.8 7.7,9.3 6.6,9.3 Z M4.2,2.4 C3.7,2.4 3.2,2.6 2.8,3 C2.5,3.3 2.4,3.7 2.4,4.1 C2.4,4.5 2.6,4.8 3,5.1 L5.6,7 C6.3,7.5 7.4,7.4 8,6.7 C8.3,6.4 8.4,6 8.4,5.6 C8.4,5.2 8.2,4.9 7.8,4.6 L5.2,2.7 C4.9,2.5 4.5,2.4 4.2,2.4 Z" fill="#443356"></path>
                    </g>
                    <g transform="translate(19.000000, 36.000000)">
                        <path d="M5.6,7.6 L3,5.7 C1.9,4.8 1.7,3.3 2.6,2.2 C3.5,1.1 5.2,0.9 6.4,1.8 L9,3.7 C10.1,4.6 10.3,6.1 9.4,7.2 C8.4,8.3 6.7,8.5 5.6,7.6 Z" fill="#FFFFFF"></path>
                        <path d="M7.2,9.2 C6.4,9.2 5.6,8.9 5,8.5 L2.4,6.6 C1.6,6 1.1,5.2 1,4.2 C0.9,3.3 1.2,2.3 1.8,1.6 C2.5,0.8 3.6,0.3 4.7,0.3 C5.5,0.3 6.3,0.6 6.9,1 L9.5,2.9 C10.3,3.5 10.8,4.3 10.9,5.3 C11,6.2 10.7,7.2 10.1,7.9 C9.4,8.7 8.3,9.2 7.2,9.2 Z M4.8,2.3 C4.3,2.3 3.8,2.5 3.4,2.9 C3.1,3.2 3,3.6 3,4 C3,4.4 3.2,4.7 3.6,5 L6.2,6.9 C6.9,7.4 8,7.3 8.6,6.6 C8.9,6.3 9,5.9 9,5.5 C9,5.1 8.8,4.8 8.4,4.5 L5.8,2.6 C5.5,2.4 5.1,2.3 4.8,2.3 Z" fill="#443356"></path>
                    </g>
                    <g transform="translate(16.000000, 40.000000)">
                        <path d="M5.2,7.5 L2.6,5.6 C1.5,4.7 1.3,3.2 2.2,2.1 C3.1,1 4.8,0.8 6,1.7 L8.6,3.6 C9.7,4.5 9.9,6 9,7.1 C8,8.2 6.3,8.4 5.2,7.5 Z" fill="#FFFFFF"></path>
                        <path d="M6.8,9 C6,9 5.2,8.7 4.6,8.3 L2,6.4 C1.2,5.8 0.7,5 0.6,4 C0.5,3.1 0.8,2.1 1.4,1.4 C2.1,0.6 3.2,0.1 4.3,0.1 C5.1,0.1 5.9,0.4 6.5,0.8 L9.1,2.7 C9.9,3.3 10.4,4.1 10.5,5 C10.6,5.9 10.3,6.9 9.7,7.6 C9,8.6 7.9,9 6.8,9 Z M4.4,2.2 C3.9,2.2 3.4,2.4 3,2.8 C2.7,3.1 2.6,3.5 2.6,3.9 C2.6,4.3 2.8,4.6 3.2,4.9 L5.8,6.8 C6.5,7.3 7.6,7.2 8.2,6.5 C8.5,6.2 8.6,5.8 8.6,5.4 C8.6,5 8.4,4.7 8,4.4 L5.4,2.5 C5.1,2.3 4.7,2.2 4.4,2.2 Z" fill="#443356"></path>
                    </g>
                </g>
                <g transform="translate(65.000000, 156.000000)" id="Shape">
                    <path d="M14.1,2 C14.1,2 30.4,17.7 38.2,31.3 C40.7,35.7 45.4,38.3 50.4,38.3 L59.7,38.3 C61.8,38.3 63.7,39.4 64.8,41.2 L67.1,45.1 L74.6,51.6 L73.6,52 C71.4,53 68.8,52.8 66.8,51.5 L65.2,50.4 C62.4,48.4 58.7,48.1 55.6,49.4 C49.4,52.1 39,55.5 35.1,50.6 L29.9,44.6 L2.6,25.2 C2.6,25.1 -3.7,6.4 14.1,2 Z" fill="#FFFFFF"></path>
                    <path d="M41.5,54 C38.2,54 35.8,53 34.3,51.1 L29.2,45.2 L2,25.9 C1.8,25.8 1.7,25.6 1.6,25.4 C1.5,25 -1.4,16.1 2.6,8.9 C4.8,5 8.5,2.3 13.8,1 C14.1,0.9 14.5,1 14.7,1.2 C14.9,1.4 31.2,17.1 39,30.7 C41.3,34.7 45.6,37.2 50.3,37.2 L59.6,37.2 C62,37.2 64.3,38.5 65.5,40.6 L67.7,44.3 L75.1,50.7 C75.4,50.9 75.5,51.3 75.4,51.6 C75.3,51.9 75.1,52.2 74.8,52.4 L73.8,52.8 C71.3,53.9 68.4,53.7 66.1,52.2 L64.4,51 C61.9,49.3 58.5,48.9 55.7,50.1 C52,52 46.2,54 41.5,54 Z M3.4,24.5 L30.4,43.7 C30.5,43.7 30.5,43.8 30.6,43.9 L35.8,49.9 C36.9,51.4 38.8,52.1 41.5,52.1 C45.9,52.1 51.4,50.1 55.2,48.5 C58.6,47 62.7,47.4 65.8,49.6 L67.4,50.7 C68.9,51.7 71,51.9 72.7,51.3 L66.4,45.8 C66.3,45.7 66.2,45.6 66.2,45.6 L63.9,41.7 C63,40.2 61.4,39.3 59.7,39.3 L50.4,39.3 C45,39.3 40,36.4 37.3,31.8 C30.3,19.7 16.3,5.6 13.7,3.2 C9.3,4.4 6.1,6.7 4.3,10 C1.2,15.7 3,23 3.4,24.5 Z" fill="#443356"></path>
                </g>
                <path d="M113.1,216.4 C109.7,216.1 106.5,214.6 104.1,212.1 L100.4,208.3 L101.8,206.9 L105.5,210.7 C107.5,212.8 110.3,214.1 113.2,214.4 L113.1,216.4 Z" id="Shape" fill="#443356"></path>
                <g transform="translate(71.000000, 79.000000)" id="Shape">
                    <polyline fill="#9784D3" points="4.5 1.2 8.1 4 8.1 14 1.7 12.7"></polyline>
                    <path d="M8.1,15 C8,15 8,15 7.9,15 L1.5,13.7 C1,13.6 0.6,13.1 0.7,12.5 C0.8,12 1.3,11.6 1.9,11.7 L7.1,12.7 L7.1,4.4 L3.9,1.9 C3.5,1.6 3.4,0.9 3.7,0.5 C4,0.1 4.7,-2.77555756e-16 5.1,0.3 L8.7,3.1 C8.9,3.3 9.1,3.6 9.1,3.9 L9.1,13.9 C9.1,14.2 9,14.5 8.7,14.7 C8.6,14.9 8.3,15 8.1,15 Z" fill="#443356"></path>
                </g>
                <path d="M52.8,47.2 C52.8,47.2 64.8,50 67.3,42.2 L70.8,36.7 L71.5,37.4 C73.1,39 75.9,38.3 76.5,36.1 L77.6,32.5 C78.4,29.9 80.7,28.2 83.4,28.2 C86.7,28.2 89.4,25.5 89.4,22.2 L89.4,20 C89.4,18.3 91.4,17.5 92.6,18.7 C96.6,22.7 103.2,29.4 104.4,31.8 L106,31.3 C109.8,30.1 112.8,27 113.9,23.1 C114.4,21.1 114.5,19.1 114,17.1 L112.3,10.1 L109.8,14.9 L104.5,9.1 L103.7,14.1 C103.7,14.1 96.9,-6.7 73.4,3.8 L70.7,3.1 C64.5,1.5 58.1,4.7 55.6,10.5 C53.4,15.6 51.7,22.7 53.1,31.9 C53.3,33.2 53.3,34.5 53.3,35.8 L52.8,47.2 Z" id="Shape" fill="#443356"></path>
                <g transform="translate(69.000000, 35.000000)" fill="#443356">
                    <path d="M25.9,22.6 C25.5,22.6 25.1,22.5 24.8,22.4 C22.2,21.5 21.2,17.6 22.5,13.6 C23.7,10.2 26.2,7.8 28.6,7.8 C29,7.8 29.4,7.9 29.7,8 C32.3,8.9 33.3,12.8 32,16.8 C30.8,20.2 28.3,22.6 25.9,22.6 Z M28.6,9.8 C27.3,9.8 25.4,11.4 24.4,14.3 C23.3,17.4 24.1,20.1 25.4,20.6 C26.7,21.1 28.9,19.5 30,16.2 C31.1,13.1 30.3,10.4 29,9.9 C28.9,9.8 28.7,9.8 28.6,9.8 Z" id="Shape"></path>
                    <rect id="Rectangle-path" transform="translate(13.153970, 6.302540) rotate(22.209974) translate(-13.153970, -6.302540) " x="0.404036045" y="5.30254518" width="25.4998679" height="1.99998964"></rect>
                    <path d="M35.1,8.8 C34.9,8.8 34.6,8.7 34.4,8.5 L32.6,6.8 C31.2,5.5 29.3,4.7 27.4,4.7 L23.9,4.7 C23.3,4.7 22.9,4.3 22.9,3.7 C22.9,3.1 23.3,2.7 23.9,2.7 L27.4,2.7 C29.9,2.7 32.2,3.6 34,5.3 L35.8,7 C36.2,7.4 36.2,8 35.8,8.4 C35.6,8.7 35.3,8.8 35.1,8.8 Z" id="Shape"></path>
                </g>
                <path d="M71.9,87.3 L48,64.2 L48,60 L48.2,59.7 C48.3,59.6 54.3,50.9 55,43.7 L55.1,42.8 L57.3,42.8 L57.3,26.9 L66.7,7.5 L90.8,7.5 L105.4,23.4 L105.4,42.2 C105.4,44.5 104.6,46.8 103.1,48.7 L101.4,50.9 L101.4,62.9 C101.4,63.9 101,64.8 100.3,65.5 C99.6,66.2 98.7,66.6 97.7,66.6 C97.7,66.6 97.7,66.6 97.7,66.6 C97.6,66.6 97.5,66.6 97.4,66.6 L96.3,66.5 C94.7,66.4 93.2,67.4 92.7,68.9 C92,71.2 91,73.3 89.7,75.3 C87.9,78 85,79.5 81.8,79.5 C80.2,79.5 78.7,79.1 77.4,78.4 L74.5,85.8 L71.9,87.3 Z M50.1,63.3 L72.2,84.7 L72.8,84.3 L76.3,75.2 L77.3,76 C78.6,76.9 80.1,77.4 81.6,77.4 C84.1,77.4 86.4,76.1 87.8,74.1 C89,72.3 89.9,70.4 90.5,68.3 C91.2,65.9 93.6,64.2 96.1,64.4 L97.2,64.5 C97.2,64.5 97.3,64.5 97.3,64.5 C97.8,64.5 98.2,64.3 98.5,64 C98.8,63.7 99,63.2 99,62.8 L99,50.1 L101.2,47.4 C102.4,45.9 103,44.1 103,42.2 L103,24.2 L89.6,9.5 L68,9.5 L59.4,27.4 L59.4,44.9 L57,44.9 C56,51.7 51.1,59.2 50.1,60.7 L50.1,63.3 Z" id="Shape" fill="#443356"></path>
                <g transform="translate(14.000000, 57.000000)" id="Shape">
                    <path d="M61.1,37.2 L58.6,21.4 C58.6,21.4 46.1,8.6 35.1,3.1 L31.8,0.8 L27.5,7.1 C27.5,7.1 -9.3,31.9 5,85.1 L8.7,99.3 C10.9,107.9 11.2,116.8 9.7,125.5 L5.9,146.8 C5.5,148.8 6.1,151 7.4,152.6 C9.2,154.8 12.1,155.8 14.8,155.1 C24,152.7 45.1,147.9 54.4,150.6 C54.4,150.6 60,152.3 66.5,150.9 C70.3,150.1 73.3,146.9 74,143 C74.9,138.1 74.6,133.1 73.1,128.4 L69.4,116.6 L68.5,90.5 C68.3,84.4 67.7,78.3 66.7,72.3 L61.1,37.2 Z" fill="#9784D3"></path>
                    <path d="M13,156.5 C10.5,156.5 8.2,155.4 6.6,153.4 C5.1,151.6 4.5,149.2 4.9,146.8 L8.7,125.5 C10.2,116.9 9.9,108.2 7.7,99.7 L4,85.5 C-3.4,57.7 3.2,37.7 10,25.8 C17,13.7 25.4,7.5 26.7,6.6 L30.8,0.5 C31,0.3 31.2,0.1 31.4,0.1 C31.7,0.1 31.9,0.1 32.2,0.3 L35.4,2.5 C46.4,8 58.6,20.4 59.1,20.9 C59.2,21 59.3,21.2 59.4,21.4 L61.9,37.2 L67.5,72.4 C68.5,78.4 69.1,84.6 69.3,90.7 L70.2,116.7 L73.9,128.4 C75.4,133.3 75.8,138.5 74.8,143.5 C74,147.8 70.8,151.2 66.5,152.2 C64.7,152.6 62.8,152.8 60.9,152.8 C56.9,152.8 54,151.9 53.9,151.9 C52.2,151.4 49.9,151.2 47.1,151.2 C36.9,151.2 22.5,154.5 14.8,156.5 C14.4,156.4 13.7,156.5 13,156.5 Z M32.1,2.4 L28.4,7.8 C28.3,7.9 28.2,8 28.1,8.1 C27.7,8.3 -7.9,33.1 6,85 L9.7,99.3 C12,108.1 12.3,117 10.7,126 L6.9,147.3 C6.6,149.1 7,150.9 8.2,152.3 C9.4,153.8 11.2,154.6 13.1,154.6 C13.6,154.6 14.1,154.5 14.6,154.4 C22.4,152.4 36.9,149 47.4,149 C50.4,149 52.9,149.3 54.8,149.8 C54.8,149.8 57.5,150.6 61.2,150.6 C63,150.6 64.7,150.4 66.4,150.1 C69.8,149.4 72.5,146.6 73.1,143 C74,138.3 73.7,133.4 72.2,128.8 L68.5,117 C68.5,116.9 68.5,116.8 68.5,116.7 L67.6,90.6 C67.4,84.6 66.8,78.5 65.8,72.5 L60.2,37.3 L57.7,22 C56,20.3 44.6,9.1 34.6,4.2 C34.6,4.2 34.5,4.2 34.5,4.1 L32.1,2.4 Z" fill="#443356"></path>
                </g>
                <path d="M52.1,177.8 L44.5,168.9 L32.8,126.1 L19.3,116.3 L15.8,118.1 C15.8,125.4 16.7,133.4 19.1,142.2 L22.8,156.4 C25,165 25.3,173.9 23.8,182.6 L20,203.8 C19.8,205.2 19.8,206.6 20.4,207.9 C21.8,211.4 25.5,213.1 28.9,212.2 C33.7,210.9 41.8,209 49.8,207.9 L52.2,207.1 L55.5,202.9 C56.4,201.7 56.1,200.1 54.8,199.3 C53,198.3 53.3,195.6 55.2,194.9 L86.5,183.4 L83.4,173.6 L81.5,170.6 L52.1,177.8 Z" id="Shape" fill="#443356" opacity="0.43"></path>
                <path d="M76.8,77.8 C76.5,77.8 76.3,77.7 76.1,77.5 C75.7,77.1 66.2,67.7 67.5,57.8 C67.6,57.3 68.1,56.9 68.6,56.9 C69.1,57 69.5,57.5 69.5,58 C68.3,66.9 77.4,75.9 77.5,76 C77.9,76.4 77.9,77 77.5,77.4 C77.3,77.7 77.1,77.8 76.8,77.8 Z" id="Shape" fill="#443356"></path>
                <path d="M63.4,91.2 L62.8,89.6 C58.1,77.3 41.2,65.2 41,65.1 L40.2,64.5 L45.6,56.6 L49.6,59.4 C60.6,64.9 72.8,77.3 73.3,77.8 L73.9,78.4 L63.4,91.2 Z M42.9,64 C46.3,66.5 59.1,76.5 64,87.3 L71.2,78.5 C68.5,75.9 57.9,65.7 48.6,61.1 L48.5,61 L46.1,59.3 L42.9,64 Z" id="Shape" fill="#443356"></path>
                <g transform="translate(127.000000, 155.000000)" fill="#443356" id="Shape">
                    <path d="M9.1,1.9 L1.1,1.9"></path>
                    <path d="M9.1,2.9 L1.1,2.9 C0.5,2.9 0.1,2.5 0.1,1.9 C0.1,1.3 0.5,0.9 1.1,0.9 L9.1,0.9 C9.7,0.9 10.1,1.3 10.1,1.9 C10.1,2.5 9.6,2.9 9.1,2.9 Z"></path>
                </g>
                <path d="M141,99.1 C131.5,99.1 123.8,106.8 123.8,116.3 C123.8,125.8 131.5,133.5 141,133.5 C150.5,133.5 158.2,125.8 158.2,116.3 C158.2,106.8 150.5,99.1 141,99.1 Z M148.8,113.5 L138.9,123.4 C138.6,123.7 138.3,123.8 137.9,123.8 C137.5,123.8 137.2,123.7 136.9,123.4 L132.6,119.1 C132,118.5 132,117.7 132.6,117.1 C133.2,116.5 134,116.5 134.6,117.1 L137.9,120.4 L146.8,111.5 C147.4,110.9 148.3,110.9 148.8,111.5 C149.4,112 149.4,112.9 148.8,113.5 Z" id="Shape" fill="#DF74E8"></path>
                <path d="M62.7,333.2 L59.6,311.8 C58.8,306.4 57.1,301.3 54.4,296.6 L29.4,252.3 C23.5,241.7 20.8,229.8 21.8,217.7 L22.3,211.4 L24.3,211.6 L23.8,217.9 C22.8,229.6 25.4,241.1 31.1,251.3 L56.1,295.6 C58.9,300.5 60.7,305.9 61.5,311.5 L64.6,332.9 L62.7,333.2 Z" id="Shape" fill="#443356"></path>
                <path d="M2,332.5 L0.7,331 L8.7,324.3 L14.6,318.8 C15.1,318.3 15.8,318 16.5,318 L20.7,318 C21.2,318 21.6,317.6 21.6,317.1 L21.6,315.5 C21.6,313.9 22.9,312.6 24.5,312.6 C25,312.6 25.4,312.2 25.4,311.7 L25.4,309.3 C25.4,309.2 25.4,309.1 25.4,309 L31,254.4 L33,254.6 L27.4,309.2 L27.4,311.7 C27.4,313.3 26.1,314.6 24.5,314.6 C24,314.6 23.6,315 23.6,315.5 L23.6,317.1 C23.6,318.7 22.3,320 20.7,320 L16.5,320 C16.3,320 16.1,320.1 15.9,320.2 L10,325.7 L2,332.5 Z" id="Shape" fill="#443356"></path>
                <path d="M87,241.7 C86.5,241.7 86.1,241.4 86,240.9 C85,236.2 83.5,231.5 81.5,227.1 L77.7,218.8 C77.5,218.3 77.7,217.7 78.2,217.5 C78.7,217.3 79.3,217.5 79.5,218 L83.3,226.3 C85.4,230.8 86.9,235.6 88,240.5 C88.1,241 87.8,241.6 87.2,241.7 C87.1,241.7 87.1,241.7 87,241.7 Z" id="Shape" fill="#443356"></path>
                <rect id="Rectangle-path" fill="#443356" transform="translate(81.445440, 217.140440) rotate(84.030580) translate(-81.445440, -217.140440) " x="71.8452232" y="216.140417" width="19.2004335" height="2.00004516"></rect>
                <path d="M56.4,237.1 C56.3,237.1 56.1,237.1 56,237 C55.5,236.8 55.3,236.2 55.5,235.7 L55.6,235.5 C58.3,229.8 59.2,223.5 58.3,217.3 C58.2,216.8 58.6,216.2 59.1,216.2 C59.6,216.1 60.2,216.5 60.2,217 C61.2,223.6 60.2,230.3 57.4,236.4 L57.3,236.6 C57.2,236.9 56.8,237.1 56.4,237.1 Z" id="Shape" fill="#443356"></path>
                <path d="M57.1,250.8 C56.8,250.8 56.4,250.6 56.2,250.3 C51.1,241.8 48.4,223.2 48.3,222.4 C48.2,221.9 48.6,221.3 49.1,221.3 C49.6,221.2 50.2,221.6 50.2,222.1 C50.2,222.3 52.9,241.1 57.8,249.2 C58.1,249.7 57.9,250.3 57.5,250.6 C57.5,250.7 57.3,250.8 57.1,250.8 Z" id="Shape" fill="#443356"></path>
                <g transform="translate(31.000000, 142.000000)" id="Shape">
                    <path d="M18.1,21 L23.6,21 C23.6,21 54.9,22.4 77.7,8.2 C81.8,5.6 86.4,4 91.3,3.5 L93.1,3.3 L97.6,1.7 C97.6,1.7 97.6,1.7 97.7,1.8 C99,3.8 97.9,6.4 95.6,6.9 L87.8,8.9 C87.8,8.9 98,9.8 111.8,10.3 C114,10.4 114.8,13.1 113.1,14.4 C112.7,14.7 112.2,14.9 111.7,14.9 L105,14.9 C105.7,16.7 104.6,18.7 102.7,19.1 L101.8,19.3 L95.8,21 C96.2,22.6 95.5,24.3 94.1,25.1 L92.6,26 C92.6,26 76.8,29.5 75.1,28.8 L72.7,28.8 C70.6,28.8 68.6,29.3 66.8,30.2 C59.2,33.8 37.9,43.7 25.1,47.5 C20.3,48.9 15.2,48.2 11.1,45.3 C6.8,42.3 2.1,37.4 1.9,30 L18.1,21 Z" fill="#FFFFFF"></path>
                    <path d="M20.3,49.2 C16.7,49.2 13.3,48.1 10.5,46.1 C6.3,43.1 1.1,37.9 0.8,30 C0.8,29.6 1,29.3 1.3,29.1 L17.6,20.1 C17.7,20 17.9,20 18.1,20 L23.6,20 C23.7,20 24.5,20 25.9,20 C33.1,20 58.2,19.1 77.2,7.3 C81.5,4.6 86.3,3 91.2,2.5 L92.9,2.3 L97.3,0.8 C97.7,0.7 98.2,0.8 98.4,1.2 C98.4,1.2 98.4,1.3 98.5,1.4 C99.3,2.6 99.4,4 98.9,5.4 C98.4,6.7 97.2,7.7 95.9,8.1 L94,8.6 C98.3,8.9 104.7,9.3 112,9.5 C113.4,9.5 114.6,10.4 115,11.8 C115.4,13.1 115,14.6 113.9,15.4 C113.3,15.8 112.6,16.1 111.9,16.1 L106.4,16.1 C106.4,16.8 106.2,17.6 105.9,18.2 C105.3,19.3 104.3,20 103.1,20.3 L102.2,20.5 L97.1,21.9 C97.2,23.6 96.3,25.3 94.8,26.1 L93.3,27 C93.2,27 93.1,27.1 93,27.1 C92.5,27.2 80,30 76.2,30 C75.8,30 75.4,30 75.2,29.9 L73,29.9 C71.1,29.9 69.2,30.4 67.5,31.2 C59.2,35.2 38.4,44.8 25.6,48.6 C23.7,49 22,49.2 20.3,49.2 Z M2.9,30.6 C3.4,37.4 7.9,41.9 11.7,44.5 C14.2,46.3 17.2,47.2 20.4,47.2 C21.9,47.2 23.4,47 24.9,46.6 C37.5,42.9 58.2,33.3 66.5,29.3 C68.5,28.3 70.6,27.8 72.8,27.8 L75.2,27.8 C75.3,27.8 75.5,27.8 75.6,27.9 C75.6,27.9 75.7,27.9 76.1,27.9 C79.5,27.9 90.9,25.4 92.4,25.1 L93.8,24.3 C94.8,23.7 95.3,22.5 95,21.3 C94.9,20.8 95.2,20.2 95.7,20.1 L102.7,18.2 C103.3,18.1 103.9,17.7 104.2,17.1 C104.5,16.5 104.6,15.9 104.3,15.3 C104.2,15 104.2,14.7 104.4,14.4 C104.6,14.1 104.9,14 105.2,14 L111.9,14 C112.2,14 112.5,13.9 112.7,13.7 C113.4,13.2 113.2,12.5 113.1,12.3 C113,12.1 112.8,11.4 111.9,11.4 C98.2,11 87.9,10.1 87.8,10 C87.3,10 86.9,9.6 86.9,9.1 C86.9,8.6 87.2,8.2 87.6,8.1 L95.4,6.1 C96.2,5.9 96.8,5.4 97.1,4.6 C97.3,4.1 97.3,3.5 97.2,3 L93.5,4.3 C93.4,4.3 93.3,4.3 93.3,4.4 L91.5,4.6 C86.9,5.1 82.4,6.6 78.4,9.1 C59,21.2 33.4,22.1 26.1,22.1 C24.6,22.1 23.7,22.1 23.7,22.1 L18.5,22.1 L2.9,30.6 Z" fill="#443356"></path>
                </g>
                <g transform="translate(117.000000, 141.000000)" fill="#443356" id="Shape">
                    <path d="M1.8,10 L32.3,1.2 C32.3,2.8 31.2,4.3 29.7,4.7 L9.6,10.6 L1.8,10 Z"></path>
                    <path d="M9.6,11.6 C9.6,11.6 9.5,11.6 9.6,11.6 L1.8,11 C1.3,11 0.9,10.6 0.9,10.1 C0.9,9.6 1.2,9.2 1.6,9 L32.1,0.2 C32.4,0.1 32.7,0.2 33,0.4 C33.3,0.6 33.4,0.9 33.4,1.2 C33.4,3.3 32,5.1 30,5.7 L9.9,11.6 C9.8,11.6 9.7,11.6 9.6,11.6 Z M7.3,9.5 L9.4,9.7 L29.3,3.9 C29.9,3.7 30.4,3.3 30.8,2.8 L7.3,9.5 Z"></path>
                </g>
                <g transform="translate(94.000000, 153.000000)">
                    <path d="M5.1,18.2 L1,4 C0.6,2.6 1.4,1 2.9,0.6 L3.7,0.4 C5.1,-3.88578059e-16 6.7,0.8 7.1,2.3 L11.2,16.5 C11.6,17.9 10.8,19.5 9.3,19.9 L8.5,20.1 C7,20.5 5.5,19.7 5.1,18.2 Z" id="Shape" fill="#443356"></path>
                    <g transform="translate(0.000000, 5.000000)">
                        <circle id="Oval" fill="#FFFFFF" cx="7.2" cy="6.5" r="5.3"></circle>
                        <path d="M7.2,12.7 C4.4,12.7 2,10.8 1.2,8.2 C0.2,4.9 2.2,1.4 5.5,0.5 C6.1,0.3 6.7,0.3 7.2,0.3 C10,0.3 12.4,2.2 13.2,4.8 C14.2,8.1 12.2,11.6 8.9,12.5 C8.3,12.6 7.8,12.7 7.2,12.7 Z M7.2,2.2 C6.8,2.2 6.4,2.3 6,2.4 C3.7,3.1 2.4,5.4 3.1,7.7 C3.6,9.5 5.3,10.8 7.2,10.8 C7.6,10.8 8,10.7 8.4,10.6 C10.7,9.9 12,7.6 11.3,5.3 C10.7,3.5 9.1,2.2 7.2,2.2 Z" id="Shape" fill="#443356"></path>
                    </g>
                </g>
                <g transform="translate(15.000000, 110.000000)" id="Shape">
                    <path d="M39.1,1.5 L37,6.5 C36.1,8.6 35.7,10.9 35.8,13.2 L37.6,42.5 L39.1,45.3 L40.6,51.4 C40.6,51.4 32.7,65.5 20.9,70.8 C18.4,71.9 15.5,70.1 15.5,67.3 L12.1,58.8 C11.5,57.2 11.6,55.4 12.5,54 L14,51.5 C14,51.5 3,19.9 1.2,1.6" fill="#9784D3"></path>
                    <path d="M19.3,72.1 C18.4,72.1 17.5,71.8 16.7,71.3 C15.4,70.4 14.5,69 14.5,67.4 L11.2,59 C10.5,57.1 10.6,55 11.7,53.3 L13,51.2 C11.7,47.3 2,18.5 0.3,1.5 C0.2,1 0.6,0.5 1.2,0.4 C1.8,0.4 2.2,0.7 2.3,1.3 C4.1,19.2 15,50.6 15.1,50.9 C15.2,51.2 15.2,51.5 15,51.7 L13.5,54.2 C12.8,55.4 12.7,56.8 13.2,58.1 L16.6,66.6 C16.6,66.7 16.7,66.8 16.7,67 C16.7,68 17.2,68.9 18,69.4 C18.8,69.9 19.8,70 20.7,69.6 C31.1,64.9 38.5,53.1 39.8,50.9 L38.4,45.3 L36.9,42.7 C36.8,42.6 36.8,42.4 36.8,42.3 L35,13 C34.9,10.6 35.3,8.1 36.2,5.8 L38.3,0.8 C38.5,0.3 39.1,0.1 39.6,0.3 C40.1,0.5 40.3,1.1 40.1,1.6 L38,6.6 C37.2,8.6 36.8,10.7 36.9,12.9 L38.7,41.9 L40.1,44.5 C40.1,44.6 40.2,44.7 40.2,44.7 L41.7,50.8 C41.8,51 41.7,51.3 41.6,51.5 C41.3,52.1 33.4,66 21.4,71.3 C20.6,72 20,72.1 19.3,72.1 Z" fill="#443356"></path>
                </g>
                <path d="M29.2,162.3 L28.7,160.4 C28.9,160.4 47.4,155.8 51.9,151.7 L53.2,153.2 C48.3,157.6 29.9,162.2 29.2,162.3 Z" id="Shape" fill="#443356"></path>
                <g transform="translate(62.000000, 35.000000)" id="Shape">
                    <path d="M11.3,4.7 C11.3,4.7 10.5,3.2 8.7,1.9 C6.4,0.3 3.2,1.3 2.2,3.9 C1.9,4.7 1.7,5.5 1.4,6.3 C0.4,10.3 3.5,14.1 7.6,14.1" fill="#FFFFFF"></path>
                    <path d="M7.6,15.1 C5.3,15.1 3.2,14.1 1.8,12.3 C0.4,10.5 -0.1,8.2 0.5,6.1 C0.7,5.3 1,4.4 1.3,3.6 C1.9,2 3.1,0.9 4.7,0.4 C6.3,-0.1 8,0.2 9.3,1.1 C11.3,2.6 12.2,4.2 12.2,4.3 L10.4,5.2 C10.4,5.2 9.7,3.9 8,2.7 C7.2,2.1 6.2,1.9 5.2,2.3 C4.2,2.6 3.4,3.3 3.1,4.3 C2.8,5.1 2.6,5.9 2.4,6.6 C2,8.2 2.4,9.8 3.4,11.1 C4.4,12.4 6,13.2 7.7,13.2 L7.7,15.1 L7.6,15.1 Z" fill="#443356"></path>
                </g>
                <path d="M30.1,272.2 L44.2,292.1 C51.7,302.7 57.7,314.2 62.1,326.5 L63,329.1 L58,303.9 L31.8,254.8 L30.1,272.2 Z" id="Shape" fill="#443356" opacity="0.43"></path>
            </g>
            <g id="Group" transform="translate(237.000000, 8.000000)" fill="#443356">
                <path d="M166.3,28.5 C166.2,28.5 166.1,28.5 166,28.5 C165.6,28.4 165.4,27.9 165.5,27.5 C167.8,21.2 173.8,16.9 180.5,16.9 C183,16.9 185.5,17.5 187.8,18.7 C190.6,12.9 196.4,9.3 202.8,9.3 C209.7,9.3 215.9,13.5 218.3,19.9 C222.1,17.5 226.9,17 231,18.7 C231.6,12.5 236.8,7.7 243.2,7.7 C244.6,7.7 246,7.9 247.3,8.4 C250.1,3.5 255.3,0.4 261.1,0.4 C269.9,0.4 277,7.5 277,16.3 C277,16.7 277,17.2 276.9,17.6 C278,17.2 279.1,17 280.3,17 C285.6,17 289.8,21.3 289.8,26.5 C289.8,26.9 289.5,27.3 289,27.3 C288.5,27.3 288.2,27 288.2,26.5 C288.2,22.1 284.6,18.5 280.2,18.5 C278.8,18.5 277.4,18.9 276.2,19.6 L274.8,20.4 L275.1,18.8 C275.3,17.9 275.3,17.1 275.3,16.4 C275.3,8.5 268.9,2 260.9,2 C255.5,2 250.6,5 248.2,9.8 L247.9,10.4 L247.3,10.1 C246,9.6 244.6,9.3 243.2,9.3 C237.3,9.3 232.5,14.1 232.5,20 L232.5,21.2 L231.4,20.7 C229.6,19.9 227.8,19.4 225.9,19.4 C223.2,19.4 220.6,20.3 218.4,21.9 L217.6,22.5 L217.3,21.5 C215.3,15.2 209.5,11 202.9,11 C196.8,11 191.3,14.6 188.9,20.3 L188.6,21.1 L187.9,20.7 C185.7,19.4 183.2,18.7 180.7,18.7 C174.6,18.7 169.2,22.5 167.1,28.3 C166.9,28.3 166.6,28.5 166.3,28.5 Z" id="Shape" opacity="0.34"></path>
                <path d="M769.7,130.3 C769.4,130.3 769.1,130.1 769,129.8 C767,124.1 761.5,120.2 755.4,120.2 C752.9,120.2 750.4,120.9 748.2,122.2 L747.5,122.6 L747.2,121.8 C744.8,116.2 739.3,112.5 733.2,112.5 C726.6,112.5 720.8,116.7 718.8,123 L718.5,124 L717.7,123.4 C715.5,121.8 712.9,120.9 710.2,120.9 C708.3,120.9 706.4,121.3 704.7,122.2 L703.6,122.7 L703.6,121.5 C703.6,115.6 698.7,110.8 692.9,110.8 C691.5,110.8 690.1,111.1 688.8,111.6 L688,112 L687.7,111.4 C685.2,106.6 680.3,103.6 675,103.6 C667.1,103.6 660.6,110 660.6,118 C660.6,118.8 660.7,119.6 660.8,120.4 L661.1,122 L659.7,121.2 C658.5,120.5 657.1,120.1 655.7,120.1 C651.3,120.1 647.7,123.7 647.7,128.1 C647.7,128.5 647.7,128.8 647.8,129.3 C647.9,129.7 647.6,130.1 647.2,130.2 C646.8,130.3 646.4,130 646.3,129.6 C646.2,129.1 646.2,128.6 646.2,128.2 C646.2,122.9 650.5,118.7 655.7,118.7 C656.9,118.7 658,118.9 659.1,119.3 C659.1,118.9 659,118.4 659,118 C659,109.2 666.1,102.1 674.9,102.1 C680.6,102.1 685.8,105.1 688.7,110.1 C690,109.6 691.4,109.4 692.8,109.4 C699.1,109.4 704.4,114.3 705,120.4 C709.2,118.8 714,119.2 717.7,121.6 C720.2,115.2 726.3,110.9 733.2,110.9 C739.6,110.9 745.4,114.6 748.2,120.3 C750.4,119.1 752.9,118.5 755.5,118.5 C762.2,118.5 768.2,122.7 770.5,129.1 C770.6,129.5 770.4,129.9 770,130.1 C769.9,130.2 769.8,130.3 769.7,130.3 Z" id="Shape" opacity="0.34"></path>
                <path d="M471.8,161.7 C471.4,161.7 471,161.4 471,160.9 C471,155.6 475.3,151.4 480.5,151.4 C481.7,151.4 482.8,151.6 483.9,152 C483.9,151.6 483.8,151.1 483.8,150.7 C483.8,142 490.9,134.8 499.7,134.8 C505.4,134.8 510.6,137.8 513.5,142.8 C514.8,142.3 516.2,142.1 517.6,142.1 C523.9,142.1 529.2,147 529.8,153.1 C533.5,151.7 537.6,151.8 541.1,153.5 C541.5,153.7 541.6,154.1 541.4,154.5 C541.2,154.9 540.8,155 540.4,154.8 C536.9,153.1 532.9,153.1 529.4,154.8 L528.3,155.3 L528.3,154.1 C528.3,148.2 523.4,143.4 517.6,143.4 C516.2,143.4 514.8,143.7 513.5,144.2 L512.9,144.5 L512.6,143.9 C510.1,139.1 505.2,136.1 499.8,136.1 C491.9,136.1 485.4,142.5 485.4,150.5 C485.4,151.3 485.5,152.1 485.6,152.9 L485.9,154.5 L484.5,153.7 C483.3,153 481.9,152.6 480.5,152.6 C476.1,152.6 472.5,156.2 472.5,160.6 C472.6,161.4 472.2,161.7 471.8,161.7 Z" id="Shape" opacity="0.34"></path>
                <path d="M1.5,233 C1.1,233 0.7,232.7 0.7,232.2 L0.7,188 L62.7,188 L62.7,219.8 C62.7,220.2 62.4,220.6 61.9,220.6 C61.4,220.6 61.1,220.3 61.1,219.8 L61.1,189.5 L2.1,189.5 L2.1,232.3 C2.3,232.7 2,233 1.5,233 Z" id="Shape" opacity="0.34"></path>
                <polygon id="Shape" points="4.8 320.8 2.8 320.8 2.8 305.8 27.8 305.8 27.8 221 110.8 221 110.8 317.4 108.8 317.4 108.8 223 29.8 223 29.8 307.8 4.8 307.8"></polygon>
                <polygon id="Shape" points="145.6 320.8 143.6 320.8 143.6 267.7 109.8 267.7 109.8 265.7 145.6 265.7"></polygon>
                <path d="M79.5,222.8 C79.1,222.8 78.7,222.5 78.7,222 L78.7,136.1 L98.4,136.1 L98.4,159.3 L149.1,159.3 C149.5,159.3 149.9,159.6 149.9,160.1 C149.9,160.6 149.6,160.9 149.1,160.9 L96.9,160.9 L96.9,137.7 L80.2,137.7 L80.2,222 C80.2,222.4 79.9,222.8 79.5,222.8 Z" id="Shape" opacity="0.34"></path>
                <polygon id="Shape" points="150.1 227.7 148.1 227.7 148.1 80.4 232.6 80.4 232.6 182 230.6 182 230.6 82.4 150.1 82.4"></polygon>
                <polygon id="Shape" points="271.2 312.8 269.2 312.8 269.2 182.5 212.2 182.5 212.2 293.7 210.2 293.7 210.2 180.5 271.2 180.5"></polygon>
                <path d="M270.9,125.7 L231.6,125.7 C231.2,125.7 230.8,125.4 230.8,124.9 C230.8,124.4 231.1,124.1 231.6,124.1 L269.4,124.1 L269.4,54 L331.9,54 C332.3,54 332.7,54.3 332.7,54.8 C332.7,55.3 332.4,55.6 331.9,55.6 L270.9,55.6 L270.9,125.7 Z" id="Shape" opacity="0.34"></path>
                <rect id="Rectangle-path" x="407" y="203.4" width="2" height="30"></rect>
                <rect id="Rectangle-path" x="407" y="162.7" width="2" height="18.5"></rect>
                <polygon id="Shape" points="409 141.2 407 141.2 407 92.1 381.5 92.1 381.5 90.1 409 90.1"></polygon>
                <polygon id="Shape" points="496.7 317.4 494.7 317.4 494.7 234.4 382.5 234.4 382.5 317.4 380.5 317.4 380.5 232.4 496.7 232.4"></polygon>
                <polygon id="Shape" points="483.9 233.4 481.9 233.4 481.9 223 474 223 474 233.4 472 233.4 472 221 483.9 221"></polygon>
                <path d="M510.1,300.7 C509.7,300.7 509.3,300.4 509.3,299.9 L509.3,256 L535.8,256 C536.2,256 536.6,256.3 536.6,256.8 C536.6,257.3 536.3,257.6 535.8,257.6 L510.8,257.6 L510.8,300 C510.9,300.4 510.5,300.7 510.1,300.7 Z" id="Shape" opacity="0.34"></path>
                <polygon id="Shape" points="619.3 317.4 617.3 317.4 617.3 61.1 544.4 61.1 544.4 312.8 542.4 312.8 542.4 59.1 619.3 59.1"></polygon>
                <path d="M775.7,260.6 C775.3,260.6 774.9,260.3 774.9,259.8 L774.9,206 L690.5,206 L690.5,245.4 L663.7,245.4 L663.7,155.6 L618.3,155.6 C617.9,155.6 617.5,155.3 617.5,154.8 C617.5,154.3 617.8,154 618.3,154 L665.2,154 L665.2,244 L689,244 L689,204.6 L776.4,204.6 L776.4,259.9 C776.4,260.3 776.1,260.6 775.7,260.6 Z" id="Shape" opacity="0.34"></path>
                <path d="M764.4,313.8 L683.3,313.8 C682.7,313.8 682.3,313.4 682.3,312.8 C682.3,312.2 682.7,311.8 683.3,311.8 L763.4,311.8 L763.4,259.8 C763.4,259.2 763.8,258.8 764.4,258.8 L815.8,258.8 C816.4,258.8 816.8,259.2 816.8,259.8 L816.8,300 C816.8,300.6 816.4,301 815.8,301 C815.2,301 814.8,300.6 814.8,300 L814.8,260.9 L765.4,260.9 L765.4,312.9 C765.4,313.4 764.9,313.8 764.4,313.8 Z" id="Shape"></path>
                <path d="M227.7,240 C227.3,240 226.9,239.7 226.9,239.2 L226.9,228.1 C226.9,227.7 227.2,227.3 227.7,227.3 C228.2,227.3 228.5,227.6 228.5,228.1 L228.5,239.2 C228.5,239.7 228.1,240 227.7,240 Z" id="Shape" opacity="0.34"></path>
                <path d="M246.3,259.3 C245.9,259.3 245.5,259 245.5,258.5 L245.5,247.4 C245.5,247 245.8,246.6 246.3,246.6 C246.8,246.6 247.1,246.9 247.1,247.4 L247.1,258.5 C247.1,259 246.7,259.3 246.3,259.3 Z" id="Shape" opacity="0.34"></path>
                <g transform="translate(548.000000, 49.000000)" id="Shape">
                    <path d="M5.6,12.1 C5,12.1 4.6,11.7 4.6,11.1 L4.6,2.9 L2.8,2.9 L2.8,10.4 C2.8,11 2.4,11.4 1.8,11.4 C1.2,11.4 0.8,11 0.8,10.4 L0.8,0.9 L6.6,0.9 L6.6,11.1 C6.6,11.6 6.2,12.1 5.6,12.1 Z"></path>
                    <path d="M13.8,12.1 C13.2,12.1 12.8,11.7 12.8,11.1 L12.8,7.1 L9.8,7.1 L9.8,10.4 C9.8,11 9.4,11.4 8.8,11.4 C8.2,11.4 7.8,11 7.8,10.4 L7.8,5 L14.8,5 L14.8,11 C14.8,11.6 14.3,12.1 13.8,12.1 Z"></path>
                </g>
                <path d="M56.8,297.1 C56.4,297.1 56,296.8 56,296.3 L56,285.2 C56,284.8 56.3,284.4 56.8,284.4 C57.3,284.4 57.6,284.7 57.6,285.2 L57.6,296.3 C57.5,296.8 57.2,297.1 56.8,297.1 Z" id="Shape" opacity="0.34"></path>
                <path d="M395.9,264.9 C395.5,264.9 395.1,264.6 395.1,264.1 L395.1,253 C395.1,252.6 395.4,252.2 395.9,252.2 C396.4,252.2 396.7,252.5 396.7,253 L396.7,264.1 C396.7,264.6 396.3,264.9 395.9,264.9 Z" id="Shape" opacity="0.34"></path>
                <path d="M428.4,291.6 C428,291.6 427.6,291.3 427.6,290.8 L427.6,279.7 C427.6,279.3 427.9,278.9 428.4,278.9 C428.9,278.9 429.2,279.2 429.2,279.7 L429.2,290.8 C429.1,291.2 428.8,291.6 428.4,291.6 Z" id="Shape" opacity="0.34"></path>
                <path d="M477.9,308.6 C477.5,308.6 477.1,308.3 477.1,307.8 L477.1,296.7 C477.1,296.3 477.4,295.9 477.9,295.9 C478.4,295.9 478.7,296.2 478.7,296.7 L478.7,307.8 C478.7,308.2 478.4,308.6 477.9,308.6 Z" id="Shape" opacity="0.34"></path>
                <g transform="translate(194.000000, 57.000000)">
                    <g>
                        <path d="M25.3,19.1 L5.3,19.1 C4.7,19.1 4.3,18.7 4.3,18.1 L4.3,6.9 C4.3,6.3 4.7,5.9 5.3,5.9 L25.3,5.9 C25.9,5.9 26.3,6.3 26.3,6.9 L26.3,18 C26.3,18.6 25.9,19.1 25.3,19.1 Z M6.4,17.1 L24.4,17.1 L24.4,8 L6.4,8 L6.4,17.1 Z" id="Shape"></path>
                        <rect id="Rectangle-path" transform="translate(7.785215, 21.151595) rotate(15.991830) translate(-7.785215, -21.151595) " x="6.78521603" y="18.0015982" width="1.99999794" height="6.29999351"></rect>
                        <rect id="Rectangle-path" transform="translate(22.904800, 21.147850) rotate(74.026272) translate(-22.904800, -21.147850) " x="19.7547606" y="20.1478375" width="6.30007875" height="2.000025"></rect>
                        <polygon id="Shape" opacity="0.32" points="5.4 6.9 5.4 10.1 20.5 10.1 20.5 18.1 25.3 18.1 25.3 10.1 25.3 8.5 25.3 6.9"></polygon>
                        <path d="M29.1,19.1 L1.7,19.1 C1.1,19.1 0.7,18.7 0.7,18.1 L0.7,14.7 C0.7,14.1 1.1,13.7 1.7,13.7 L29.1,13.7 C29.7,13.7 30.1,14.1 30.1,14.7 L30.1,18.1 C30.1,18.6 29.6,19.1 29.1,19.1 Z M2.6,17.1 L28,17.1 L28,15.7 L2.6,15.7 L2.6,17.1 Z" id="Shape"></path>
                        <path d="M5.8,7.8 L4.8,6 L14.8,0.6 C15.1,0.4 15.5,0.4 15.8,0.6 L25.8,6 L24.8,7.8 L15.3,2.6 L5.8,7.8 Z" id="Shape"></path>
                    </g>
                    <path d="M16.1,22.1 C16.1,22.1 16.1,22.1 16.1,22.1 C15.6,22.1 15.3,22.1 15.3,22.1 C15.3,22.1 15.3,22.1 15.3,22.1 C7.6,22.1 4.7,18.9 4.6,18.7 L3.2,17 L27,17 L26.3,18.4 C24.7,21.7 19.2,22.1 16.1,22.1 Z M9,19.1 C10.5,19.6 12.5,20.1 15.4,20.1 C15.5,20.1 15.7,20.1 16.1,20.1 C18.4,20.1 21,19.8 22.7,19.1 L9,19.1 Z" id="Shape"></path>
                </g>
                <path d="M165.7,97.9 L156.9,97.9 L156.9,89.1 L165.7,89.1 L165.7,97.9 Z M158.3,96.4 L164.1,96.4 L164.1,90.6 L158.3,90.6 L158.3,96.4 Z" id="Shape"></path>
                <path d="M180.2,97.9 L171.4,97.9 L171.4,89.1 L180.2,89.1 L180.2,97.9 Z M172.9,96.4 L178.7,96.4 L178.7,90.6 L172.9,90.6 L172.9,96.4 Z" id="Shape"></path>
                <path d="M194.8,97.9 L186,97.9 L186,89.1 L194.8,89.1 L194.8,97.9 Z M187.4,96.4 L193.2,96.4 L193.2,90.6 L187.4,90.6 L187.4,96.4 Z" id="Shape"></path>
                <path d="M209.3,97.9 L200.5,97.9 L200.5,89.1 L209.3,89.1 L209.3,97.9 Z M202,96.4 L207.8,96.4 L207.8,90.6 L202,90.6 L202,96.4 Z" id="Shape"></path>
                <path d="M223.9,97.9 L215.1,97.9 L215.1,89.1 L223.9,89.1 L223.9,97.9 Z M216.6,96.4 L222.4,96.4 L222.4,90.6 L216.6,90.6 L216.6,96.4 Z" id="Shape"></path>
                <path d="M165.7,115 L156.9,115 L156.9,106.2 L165.7,106.2 L165.7,115 Z M158.3,113.5 L164.1,113.5 L164.1,107.7 L158.3,107.7 L158.3,113.5 Z" id="Shape"></path>
                <path d="M180.2,115 L171.4,115 L171.4,106.2 L180.2,106.2 L180.2,115 Z M172.9,113.5 L178.7,113.5 L178.7,107.7 L172.9,107.7 L172.9,113.5 Z" id="Shape"></path>
                <path d="M194.8,115 L186,115 L186,106.2 L194.8,106.2 L194.8,115 Z M187.4,113.5 L193.2,113.5 L193.2,107.7 L187.4,107.7 L187.4,113.5 Z" id="Shape"></path>
                <path d="M209.3,115 L200.5,115 L200.5,106.2 L209.3,106.2 L209.3,115 Z M202,113.5 L207.8,113.5 L207.8,107.7 L202,107.7 L202,113.5 Z" id="Shape"></path>
                <path d="M223.9,115 L215.1,115 L215.1,106.2 L223.9,106.2 L223.9,115 Z M216.6,113.5 L222.4,113.5 L222.4,107.7 L216.6,107.7 L216.6,113.5 Z" id="Shape"></path>
                <path d="M165.7,132.1 L156.9,132.1 L156.9,123.3 L165.7,123.3 L165.7,132.1 Z M158.3,130.6 L164.1,130.6 L164.1,124.8 L158.3,124.8 L158.3,130.6 Z" id="Shape"></path>
                <path d="M180.2,132.1 L171.4,132.1 L171.4,123.3 L180.2,123.3 L180.2,132.1 Z M172.9,130.6 L178.7,130.6 L178.7,124.8 L172.9,124.8 L172.9,130.6 Z" id="Shape"></path>
                <path d="M194.8,132.1 L186,132.1 L186,123.3 L194.8,123.3 L194.8,132.1 Z M187.4,130.6 L193.2,130.6 L193.2,124.8 L187.4,124.8 L187.4,130.6 Z" id="Shape"></path>
                <path d="M209.3,132.1 L200.5,132.1 L200.5,123.3 L209.3,123.3 L209.3,132.1 Z M202,130.6 L207.8,130.6 L207.8,124.8 L202,124.8 L202,130.6 Z" id="Shape"></path>
                <path d="M165.7,149.2 L156.9,149.2 L156.9,140.4 L165.7,140.4 L165.7,149.2 Z M158.3,147.7 L164.1,147.7 L164.1,141.9 L158.3,141.9 L158.3,147.7 Z" id="Shape"></path>
                <path d="M180.2,149.2 L171.4,149.2 L171.4,140.4 L180.2,140.4 L180.2,149.2 Z M172.9,147.7 L178.7,147.7 L178.7,141.9 L172.9,141.9 L172.9,147.7 Z" id="Shape"></path>
                <path d="M194.8,149.2 L186,149.2 L186,140.4 L194.8,140.4 L194.8,149.2 Z M187.4,147.7 L193.2,147.7 L193.2,141.9 L187.4,141.9 L187.4,147.7 Z" id="Shape"></path>
                <path d="M165.7,166.3 L156.9,166.3 L156.9,157.5 L165.7,157.5 L165.7,166.3 Z M158.3,164.8 L164.1,164.8 L164.1,159 L158.3,159 L158.3,164.8 Z" id="Shape"></path>
                <path d="M180.2,166.3 L171.4,166.3 L171.4,157.5 L180.2,157.5 L180.2,166.3 Z M172.9,164.8 L178.7,164.8 L178.7,159 L172.9,159 L172.9,164.8 Z" id="Shape"></path>
                <path d="M165.7,183.4 L156.9,183.4 L156.9,174.6 L165.7,174.6 L165.7,183.4 Z M158.3,181.9 L164.1,181.9 L164.1,176 L158.3,176 L158.3,181.9 Z" id="Shape"></path>
                <rect id="Rectangle-path" opacity="0.21" x="255.3" y="181.5" width="14.9" height="131.4"></rect>
                <path d="M289.1,313.8 L227.7,313.8 C227.1,313.8 226.7,313.4 226.7,312.8 L226.7,294.7 L149.1,294.7 C148.5,294.7 148.1,294.3 148.1,293.7 C148.1,293.1 148.5,292.7 149.1,292.7 L227.7,292.7 C228.3,292.7 228.7,293.1 228.7,293.7 L228.7,311.8 L289.1,311.8 C289.7,311.8 290.1,312.2 290.1,312.8 C290.1,313.4 289.7,313.8 289.1,313.8 Z" id="Shape"></path>
                <rect id="Rectangle-path" opacity="0.21" x="199.4" y="293.6" width="28.4" height="20.3"></rect>
            </g>
            <path d="M839.9,88.7 L779.9,88.7 L779.9,82.6 L839.9,82.6 L839.9,88.7 Z M781.4,87.2 L838.4,87.2 L838.4,84.1 L781.4,84.1 L781.4,87.2 Z" id="Shape" fill="#443356"></path>
            <path d="M839.9,102.2 L779.9,102.2 L779.9,96.1 L839.9,96.1 L839.9,102.2 Z M781.4,100.7 L838.4,100.7 L838.4,97.6 L781.4,97.6 L781.4,100.7 Z" id="Shape" fill="#443356"></path>
            <path d="M839.9,115.7 L779.9,115.7 L779.9,109.6 L839.9,109.6 L839.9,115.7 Z M781.4,114.2 L838.4,114.2 L838.4,111.1 L781.4,111.1 L781.4,114.2 Z" id="Shape" fill="#443356"></path>
            <path d="M839.9,129.2 L779.9,129.2 L779.9,123.1 L839.9,123.1 L839.9,129.2 Z M781.4,127.7 L838.4,127.7 L838.4,124.6 L781.4,124.6 L781.4,127.7 Z" id="Shape" fill="#443356"></path>
            <path d="M839.9,142.7 L779.9,142.7 L779.9,136.6 L839.9,136.6 L839.9,142.7 Z M781.4,141.2 L838.4,141.2 L838.4,138.1 L781.4,138.1 L781.4,141.2 Z" id="Shape" fill="#443356"></path>
            <path d="M839.9,156.2 L779.9,156.2 L779.9,150.1 L839.9,150.1 L839.9,156.2 Z M781.4,154.7 L838.4,154.7 L838.4,151.6 L781.4,151.6 L781.4,154.7 Z" id="Shape" fill="#443356"></path>
            <path d="M839.9,169.6 L779.9,169.6 L779.9,163.5 L839.9,163.5 L839.9,169.6 Z M781.4,168.1 L838.4,168.1 L838.4,165 L781.4,165 L781.4,168.1 Z" id="Shape" fill="#443356"></path>
            <path d="M839.9,183.1 L779.9,183.1 L779.9,177 L839.9,177 L839.9,183.1 Z M781.4,181.6 L838.4,181.6 L838.4,178.5 L781.4,178.5 L781.4,181.6 Z" id="Shape" fill="#443356"></path>
            <path d="M839.9,196.6 L779.9,196.6 L779.9,190.5 L839.9,190.5 L839.9,196.6 Z M781.4,195.1 L838.4,195.1 L838.4,192 L781.4,192 L781.4,195.1 Z" id="Shape" fill="#443356"></path>
            <path d="M839.9,210.1 L779.9,210.1 L779.9,204 L839.9,204 L839.9,210.1 Z M781.4,208.6 L838.4,208.6 L838.4,205.5 L781.4,205.5 L781.4,208.6 Z" id="Shape" fill="#443356"></path>
            <path d="M839.9,223.6 L779.9,223.6 L779.9,217.5 L839.9,217.5 L839.9,223.6 Z M781.4,222.1 L838.4,222.1 L838.4,219 L781.4,219 L781.4,222.1 Z" id="Shape" fill="#443356"></path>
            <path d="M839.9,237.1 L779.9,237.1 L779.9,231 L839.9,231 L839.9,237.1 Z M781.4,235.6 L838.4,235.6 L838.4,232.5 L781.4,232.5 L781.4,235.6 Z" id="Shape" fill="#443356"></path>
            <path d="M839.9,250.6 L779.9,250.6 L779.9,244.5 L839.9,244.5 L839.9,250.6 Z M781.4,249.1 L838.4,249.1 L838.4,246 L781.4,246 L781.4,249.1 Z" id="Shape" fill="#443356"></path>
            <path d="M839.9,264.1 L779.9,264.1 L779.9,258 L839.9,258 L839.9,264.1 Z M781.4,262.6 L838.4,262.6 L838.4,259.5 L781.4,259.5 L781.4,262.6 Z" id="Shape" fill="#443356"></path>
            <path d="M839.9,277.6 L779.9,277.6 L779.9,271.5 L839.9,271.5 L839.9,277.6 Z M781.4,276.1 L838.4,276.1 L838.4,273 L781.4,273 L781.4,276.1 Z" id="Shape" fill="#443356"></path>
            <path d="M839.9,291.1 L779.9,291.1 L779.9,285 L839.9,285 L839.9,291.1 Z M781.4,289.6 L838.4,289.6 L838.4,286.5 L781.4,286.5 L781.4,289.6 Z" id="Shape" fill="#443356"></path>
            <path d="M839.9,304.6 L779.9,304.6 L779.9,298.5 L839.9,298.5 L839.9,304.6 Z M781.4,303.1 L838.4,303.1 L838.4,300 L781.4,300 L781.4,303.1 Z" id="Shape" fill="#443356"></path>
            <rect id="Rectangle-path" fill="#443356" opacity="0.21" x="846" y="68.1" width="8.6" height="257.3"></rect>
            <path d="M977.8,319.4 C977.2,319.4 976.8,319 976.8,318.4 L976.8,277.9 L957.7,277.9 L951.5,284.1 C951.3,284.3 951.1,284.4 950.8,284.4 L883.9,284.4 C883.7,284.4 883.4,284.3 883.2,284.2 L875.9,277.9 L855.3,277.9 C854.7,277.9 854.3,277.5 854.3,276.9 C854.3,276.3 854.7,275.9 855.3,275.9 L876.3,275.9 C876.5,275.9 876.8,276 877,276.1 L884.3,282.4 L950.4,282.4 L956.6,276.2 C956.8,276 957,275.9 957.3,275.9 L977.8,275.9 C978.4,275.9 978.8,276.3 978.8,276.9 L978.8,318.4 C978.8,318.9 978.4,319.4 977.8,319.4 Z" id="Shape" fill="#443356"></path>
            <path d="M937.3,284.4 L901.3,284.4 C900.7,284.4 900.3,284 900.3,283.4 L900.3,274.6 C900.3,274 900.7,273.6 901.3,273.6 L937.3,273.6 C937.9,273.6 938.3,274 938.3,274.6 L938.3,283.4 C938.3,283.9 937.9,284.4 937.3,284.4 Z M902.3,282.4 L936.3,282.4 L936.3,275.6 L902.3,275.6 L902.3,282.4 Z" id="Shape" fill="#443356"></path>
            <g id="Group" transform="translate(1022.000000, 28.000000)" fill="#443356">
                <path d="M122.3,192.4 C121.7,192.4 121.3,192 121.3,191.4 L121.3,46.2 L40.8,46.2 L40.8,141.8 C40.8,142.4 40.4,142.8 39.8,142.8 C39.2,142.8 38.8,142.4 38.8,141.8 L38.8,45.2 C38.8,44.6 39.2,44.2 39.8,44.2 L122.3,44.2 C122.9,44.2 123.3,44.6 123.3,45.2 L123.3,191.5 C123.3,192 122.8,192.4 122.3,192.4 Z" id="Shape"></path>
                <path d="M60.2,258.4 C59.6,258.4 59.2,258 59.2,257.4 L59.2,146.2 L2.2,146.2 L2.2,237.6 C2.2,238.2 1.8,238.6 1.2,238.6 C0.6,238.6 0.2,238.2 0.2,237.6 L0.2,145.2 C0.2,144.6 0.6,144.2 1.2,144.2 L60.2,144.2 C60.8,144.2 61.2,144.6 61.2,145.2 L61.2,257.5 C61.2,258 60.8,258.4 60.2,258.4 Z" id="Shape"></path>
                <path d="M33.7,203.7 C33.3,203.7 32.9,203.4 32.9,202.9 L32.9,191.8 C32.9,191.4 33.2,191 33.7,191 C34.2,191 34.5,191.3 34.5,191.8 L34.5,203 C34.4,203.4 34.1,203.7 33.7,203.7 Z" id="Shape" opacity="0.34"></path>
                <path d="M15.1,223.1 C14.7,223.1 14.3,222.8 14.3,222.3 L14.3,211.2 C14.3,210.8 14.6,210.4 15.1,210.4 C15.6,210.4 15.9,210.7 15.9,211.2 L15.9,222.3 C15.8,222.7 15.5,223.1 15.1,223.1 Z" id="Shape" opacity="0.34"></path>
                <g transform="translate(55.000000, 33.000000)" id="Shape">
                    <path d="M1.6,11.6 C1,11.6 0.6,11.2 0.6,10.6 L0.6,1.5 C0.6,0.9 1,0.5 1.6,0.5 C2.2,0.5 2.6,0.9 2.6,1.5 L2.6,10.6 C2.6,11.2 2.1,11.6 1.6,11.6 Z"></path>
                    <path d="M11.6,11.6 C11,11.6 10.6,11.2 10.6,10.6 L10.6,6 C10.6,5.4 11,5 11.6,5 C12.2,5 12.6,5.4 12.6,6 L12.6,10.6 C12.6,11.2 12.1,11.6 11.6,11.6 Z"></path>
                </g>
                <path d="M74.1,111.3 C73.7,111.3 73.3,111 73.3,110.5 L73.3,99.4 C73.3,99 73.6,98.6 74.1,98.6 C74.6,98.6 74.9,98.9 74.9,99.4 L74.9,110.5 C74.8,110.9 74.5,111.3 74.1,111.3 Z" id="Shape" opacity="0.34"></path>
                <path d="M101.6,155.2 C101.2,155.2 100.8,154.9 100.8,154.4 L100.8,143.3 C100.8,142.9 101.1,142.5 101.6,142.5 C102.1,142.5 102.4,142.8 102.4,143.3 L102.4,154.4 C102.3,154.8 102,155.2 101.6,155.2 Z" id="Shape" opacity="0.34"></path>
                <path d="M101.6,89 C101.2,89 100.8,88.7 100.8,88.2 L100.8,77.1 C100.8,76.7 101.1,76.3 101.6,76.3 C102.1,76.3 102.4,76.6 102.4,77.1 L102.4,88.2 C102.3,88.7 102,89 101.6,89 Z" id="Shape" opacity="0.34"></path>
                <rect id="Rectangle-path" opacity="0.21" x="46.8" y="145.2" width="13.4" height="112.2"></rect>
                <rect id="Rectangle-path" opacity="0.21" x="89.2" y="46.2" width="33.6" height="144.8"></rect>
                <polygon id="Shape" points="31.7 264.3 29.7 264.3 29.7 256.3 74.5 256.3 74.5 189.9 151.4 189.9 151.4 191.9 76.5 191.9 76.5 258.3 31.7 258.3"></polygon>
                <polygon id="Shape" points="227.9 277.1 225.9 277.1 225.9 20.8 153 20.8 153 272.6 151 272.6 151 18.8 227.9 18.8"></polygon>
                <g transform="translate(162.000000, 0.000000)" id="Shape">
                    <path d="M1.4,20 C0.8,20 0.4,19.6 0.4,19 L0.4,1.9 C0.4,1.3 0.8,0.9 1.4,0.9 C2,0.9 2.4,1.3 2.4,1.9 L2.4,19 C2.4,19.6 2,20 1.4,20 Z"></path>
                    <path d="M11.4,20 C10.8,20 10.4,19.6 10.4,19 L10.4,10.4 C10.4,9.8 10.8,9.4 11.4,9.4 C12,9.4 12.4,9.8 12.4,10.4 L12.4,19 C12.4,19.6 12,20 11.4,20 Z"></path>
                </g>
                <polygon id="Shape" opacity="0.21" points="212.2 268.7 226.9 278.7 226.9 19.8 212.2 19.8"></polygon>
                <rect id="Rectangle-path" opacity="0.58" x="152" y="44.2" width="60.2" height="2"></rect>
                <rect id="Rectangle-path" opacity="0.58" x="152" y="74.2" width="60.2" height="2"></rect>
                <rect id="Rectangle-path" opacity="0.58" x="152" y="104.2" width="60.2" height="2"></rect>
                <rect id="Rectangle-path" opacity="0.58" x="152" y="134.3" width="60.2" height="2"></rect>
                <rect id="Rectangle-path" opacity="0.58" x="152" y="164.3" width="60.2" height="2"></rect>
                <rect id="Rectangle-path" opacity="0.58" x="152" y="194.4" width="60.2" height="2"></rect>
                <rect id="Rectangle-path" opacity="0.58" x="152" y="224.4" width="60.2" height="2"></rect>
                <rect id="Rectangle-path" opacity="0.58" x="152" y="254.5" width="60.2" height="2"></rect>
                <path d="M152.1,217.5 L80.3,217.5 L80.3,210.1 L152.1,210.1 L152.1,217.5 Z M81.8,216 L150.6,216 L150.6,211.6 L81.8,211.6 L81.8,216 Z" id="Shape"></path>
                <path d="M152.1,241.2 L80.3,241.2 L80.3,233.8 L152.1,233.8 L152.1,241.2 Z M81.8,239.7 L150.6,239.7 L150.6,235.3 L81.8,235.3 L81.8,239.7 Z" id="Shape"></path>
                <rect id="Rectangle-path" opacity="0.21" x="136.4" y="190.9" width="15.6" height="81.6"></rect>
            </g>
            <polygon id="Shape" fill="#443356" opacity="0.21" points="950.8 283.4 950.8 320.8 958.3 320.8 958.3 276.9"></polygon>
            <g id="Group" transform="translate(0.000000, 68.000000)" fill="#443356">
                <polygon id="Shape" points="228.8 174.6 226.8 174.6 226.8 29.4 126.4 29.4 126.4 129.9 124.4 129.9 124.4 27.4 228.8 27.4"></polygon>
                <polygon id="Shape" points="78.5 259.8 76.5 259.8 76.5 127.4 151.8 127.4 151.8 240.6 149.8 240.6 149.8 129.4 78.5 129.4"></polygon>
                <path d="M125.4,72.6 L76.8,72.6 L76.8,2.4 L1,2.4 C0.6,2.4 0.2,2.1 0.2,1.6 C0.2,1.1 0.5,0.8 1,0.8 L78.3,0.8 L78.3,71 L125.4,71 C125.8,71 126.2,71.3 126.2,71.8 C126.2,72.3 125.8,72.6 125.4,72.6 Z" id="Shape" opacity="0.34"></path>
                <path d="M117.8,186.9 C117.4,186.9 117,186.6 117,186.1 L117,175 C117,174.6 117.3,174.2 117.8,174.2 C118.3,174.2 118.6,174.5 118.6,175 L118.6,186.1 C118.6,186.6 118.3,186.9 117.8,186.9 Z" id="Shape" opacity="0.34"></path>
                <path d="M94.8,206.3 C94.4,206.3 94,206 94,205.5 L94,194.4 C94,194 94.3,193.6 94.8,193.6 C95.3,193.6 95.6,193.9 95.6,194.4 L95.6,205.5 C95.5,205.9 95.2,206.3 94.8,206.3 Z" id="Shape" opacity="0.34"></path>
                <g transform="translate(145.000000, 16.000000)" id="Shape">
                    <path d="M1.3,11.8 C0.7,11.8 0.3,11.4 0.3,10.8 L0.3,1.7 C0.3,1.1 0.7,0.7 1.3,0.7 C1.9,0.7 2.3,1.1 2.3,1.7 L2.3,10.8 C2.3,11.4 1.8,11.8 1.3,11.8 Z"></path>
                    <path d="M13.7,11.8 C13.1,11.8 12.7,11.4 12.7,10.8 L12.7,6.2 C12.7,5.6 13.1,5.2 13.7,5.2 C14.3,5.2 14.7,5.6 14.7,6.2 L14.7,10.8 C14.7,11.4 14.2,11.8 13.7,11.8 Z"></path>
                </g>
                <path d="M168,94.5 C167.6,94.5 167.2,94.2 167.2,93.7 L167.2,82.6 C167.2,82.2 167.5,81.8 168,81.8 C168.5,81.8 168.8,82.1 168.8,82.6 L168.8,93.7 C168.7,94.1 168.4,94.5 168,94.5 Z" id="Shape" opacity="0.34"></path>
                <path d="M202.1,138.4 C201.7,138.4 201.3,138.1 201.3,137.6 L201.3,126.5 C201.3,126.1 201.6,125.7 202.1,125.7 C202.6,125.7 202.9,126 202.9,126.5 L202.9,137.6 C202.8,138 202.5,138.4 202.1,138.4 Z" id="Shape" opacity="0.34"></path>
                <path d="M202.1,72.2 C201.7,72.2 201.3,71.9 201.3,71.4 L201.3,60.3 C201.3,59.9 201.6,59.5 202.1,59.5 C202.6,59.5 202.9,59.8 202.9,60.3 L202.9,71.4 C202.8,71.9 202.5,72.2 202.1,72.2 Z" id="Shape" opacity="0.34"></path>
                <rect id="Rectangle-path" opacity="0.21" x="134.1" y="128.4" width="16.7" height="112.2"></rect>
                <rect id="Rectangle-path" opacity="0.21" x="186.8" y="29.4" width="41.7" height="144.8"></rect>
                <polygon id="Shape" points="115.2 247.5 113.2 247.5 113.2 239.5 168.8 239.5 168.8 173.1 263.9 173.1 263.9 175.1 170.8 175.1 170.8 241.5 115.2 241.5"></polygon>
            </g>
            <polygon id="Shape" fill="#443356" opacity="0.21" points="265.5 242.6 240.8 242.6 237.1 242.6 233.3 242.6 233.3 328.8 240.8 328.8 240.8 314.5 265.5 314.5"></polygon>
            <path d="M266.5,262 L168.8,262 L168.8,251.4 L266.5,251.4 L266.5,262 Z M170.8,260 L264.5,260 L264.5,253.4 L170.8,253.4 L170.8,260 Z" id="Shape" fill="#443356"></path>
            <path d="M266.5,288.7 L168.8,288.7 L168.8,278.1 L266.5,278.1 L266.5,288.7 Z M170.8,286.7 L264.5,286.7 L264.5,280.1 L170.8,280.1 L170.8,286.7 Z" id="Shape" fill="#443356"></path>
            <path d="M266.5,315.3 L168.8,315.3 L168.8,304.7 L266.5,304.7 L266.5,315.3 Z M170.8,313.3 L264.5,313.3 L264.5,306.7 L170.8,306.7 L170.8,313.3 Z" id="Shape" fill="#443356"></path>
            <path d="M608.3,74.4 L607,69.6 C605.9,65.7 606.5,61.5 608.6,58 C608.6,58 609.8,71.3 616.9,76.8 L614.3,83.6 L612.1,78.4 L608.3,74.4 Z" id="Shape" fill="#443356" opacity="0.37"></path>
        </g>
    </g>
</svg>