<?xml version="1.0" encoding="UTF-8"?>
<svg width="340px" height="294px" viewBox="0 0 340 294" version="1.1" xmlns="http://www.w3.org/2000/svg" xmlns:xlink="http://www.w3.org/1999/xlink">
    <!-- Generator: Sketch 48.2 (47327) - http://www.bohemiancoding.com/sketch -->
    <title>Slice</title>
    <desc>Created with Sketch.</desc>
    <defs></defs>
    <g id="Page-1" stroke="none" stroke-width="1" fill="none" fill-rule="evenodd">
        <rect id="Rectangle" x="-108" y="-127" width="622" height="613"></rect>
        <g id="5a766a392b07370001ac36f7_Intro" transform="translate(-462.000000, -15.000000)">
            <g id="Group" transform="translate(463.000000, 15.000000)">
                <path d="M27.6,178.9 C27.6,178.9 39.6,174.3 61.5,174.7 C65.2,174.8 69,175.1 72.7,175.5 C76.5,175.9 83.7,176.5 91.4,175.8 L94.7,210.4 L94.1,226.4 L93.7,235.2 C93.7,235.2 86.6,236.4 74.2,234.3 L65.9,232.3 L51.7,226.3 L44.2,224.3 L39.2,224.6 L37.1,225.1 L35.2,212.8 L33.2,193.9 L32.2,187.1 L27.6,178.9 Z" id="Shape" fill="#C3ACF7" fill-rule="nonzero"></path>
                <path d="M232.6,98.5 L229.4,102.5 C221.7,112.1 217.3,124.1 217.6,136.4 C217.6,137 217.6,137.7 217.7,138.3 L219.3,167.3 C219.9,178.5 218.1,189.7 214,200.2 C211.6,206.2 208.9,213.3 206.7,220.1 C202.5,233 205.1,247.2 213.3,258 L215.1,261.9 L218.3,262.9" id="Shape" stroke="#443356" stroke-width="2" fill-rule="nonzero"></path>
                <g transform="translate(227.000000, 14.000000)" fill-rule="nonzero" id="Shape">
                    <path d="M70.6,51.3 L68.5,51.3 C64.1,51.3 60.5,47.7 60.5,43.3 C60.5,41.2 59.7,39.1 58.1,37.6 L52.7,32.2 L50.1,28.7 L45.7,13.9 L33.7,3.1 L12.8,0.8 L8.4,5.2 C3,10.6 1.13686838e-13,17.9 1.13686838e-13,25.6 L1.13686838e-13,31.8 L1.5,41.7 L10.3,43.2 L18,52.6 L17.8,63.4 L52.8,76 L72,80.5 L76.3,78.2 C81.3,76.1 84.8,71.1 84.8,65.3 C84.6,57.6 78.3,51.3 70.6,51.3 Z" fill="#DF74E8"></path>
                    <path d="M17.7,63.3 L52.7,75.9 L71.9,80.4 L76.2,78.1 C81.2,76 84.7,71 84.7,65.2 C84.7,57.4 78.4,51.2 70.7,51.2 L68.6,51.2 C64.2,51.2 60.6,47.6 60.6,43.2 C60.6,41.1 59.8,39 58.2,37.5 L52.8,32.1 L31,39.9 L17.7,63.3 Z" fill="#C659D1"></path>
                </g>
                <path d="M290,124.3 C294.3,125 298.3,127.3 301,130.7 L316,149.5 C317.9,151.8 318.7,154.8 318.3,157.8 C318,159.9 317.2,161.8 315.8,163.4 C313.4,166.3 311.5,169.5 310.2,173 L301.5,196.3 C300.4,200.6 297.5,203.6 295.4,205.2 C295.1,205.4 294.8,205.6 294.4,205.8 C295.8,208.9 298.1,212.8 301.7,215.8 C320.4,200.4 331.7,175.5 336.2,163.9 C338.1,159.1 336.6,153.9 335.8,148.8 C332.9,130.8 320.2,113.5 310.2,102.2 C303,94.1 292.7,89.4 281.9,89.4 C280.2,89.4 278.6,88.7 277.5,87.5 C274.6,84.5 269,77.4 271.1,64.2 L243,69.7 L240.1,74.1 L232.6,98.5" id="Shape" stroke="#443356" stroke-width="2" stroke-linecap="round" fill-rule="nonzero"></path>
                <path d="M293.1,205.8 L293.1,205 C292.7,198.1 290.7,191.4 287.7,185.1 C281,171.3 285.1,158.1 289.8,149.4 L289.7,149.6 C284.1,149.6 279.2,145.8 277.7,140.4 C274.3,127.5 271.2,104.2 288,90.1 L279.9,89.3 C279.9,89.3 269.2,96.3 262.7,115.6 C261.1,120.4 256.9,124 251.9,124.9 C251.7,124.9 251.6,125 251.4,125 C242.6,126.5 234.5,119.4 235.1,110.5 C235.2,108.9 235.4,107 235.7,105 L238.4,94.7 L233.1,99 C232.7,100.4 232.5,101.8 232.2,103.2 C231.4,107.7 229.2,119.3 225.3,124.4 C222.9,127.5 221.4,131.3 221.6,135.2 C221.8,138.5 222.8,142.8 226,146.6 C229.7,151.1 231.9,156.6 232.3,162.4 C232.8,171.5 231.9,184.3 224.7,194.8 C224,195.8 223.6,197 223.6,198.3 C223.6,200.1 224.4,201.8 225.8,203 C231,207.5 242.8,217.1 264.7,217.4 L279.1,214.7 C284.5,213.5 289.6,210.4 293.1,205.8 Z" id="Shape" stroke="#443356" stroke-width="2" fill="#E9C4F1" fill-rule="nonzero" stroke-linejoin="round"></path>
                <path d="M37,69.6 C37,71.9 37.9,76.3 37.3,78.6 C36.1,83.7 32.8,88 28.4,90.8 L26.2,92.2 L20.3,96 C13.2,96 6.8,100.4 4.4,107.1 C1.9,114 0.4,123.5 4.7,133.5 C4.7,133.5 0.3,146.8 0.6,160.7 C0.8,166.4 2.4,172 5.4,176.9 C4.7,181.2 5.1,185.7 6.6,189.8 L17.2,219.9 C18.6,223.9 19.8,227.9 20.7,232 L24.6,244.6" id="Shape" stroke="#443356" stroke-width="2"></path>
                <path d="M38.8,124.8 C38.8,124.8 37.4,130 29.8,136.6 L31.2,147 C31.8,151.6 31.5,156.2 30.1,160.8 L25.5,176.5 L27.6,178.9 C30.6,182.3 32.4,186.3 32.8,190.3 L36.1,222 C36.6,226.8 38,231.5 40.2,236 L42.6,241" id="Shape" stroke="#443356" stroke-width="2" stroke-linecap="round" stroke-linejoin="round"></path>
                <path d="M33.9,252.9 C29.8,252.9 26.4,249.6 26.4,245.4 C26.4,241.3 29.7,237.9 33.9,237.9 C38.1,237.9 41.4,241.2 41.4,245.4 C41.3,249.6 38,252.9 33.9,252.9 Z M33.9,241.1 C31.5,241.1 29.6,243 29.6,245.4 C29.6,247.8 31.5,249.7 33.9,249.7 C36.3,249.7 38.2,247.8 38.2,245.4 C38.2,243.1 36.3,241.1 33.9,241.1 Z" id="Shape" fill="#443356" fill-rule="nonzero"></path>
                <g transform="translate(23.000000, 238.000000)" fill="#443356" fill-rule="nonzero" id="Shape">
                    <path d="M16.8,7.5 C16.8,8.5 16.5,9.5 16.1,10.3 L20.6,8.8 C21.3,8.6 21.6,7.8 21.4,7.1 L19.4,1.4 C19.2,0.7 18.4,0.4 17.7,0.6 L13.2,2.1 C15.3,3 16.8,5.1 16.8,7.5 Z"></path>
                    <path d="M5,7.5 C5,6.5 5.3,5.5 5.7,4.7 L1.3,6.2 C0.6,6.4 0.2,7.2 0.4,8 L2.3,13.6 C2.5,14.3 3.3,14.7 4.1,14.5 L8.5,13 C6.4,12 5,9.9 5,7.5 Z"></path>
                </g>
                <path d="M32,148.8 C43.6,141.2 48.9,128.1 44.8,115.9 C42.2,108.3 36.8,100 26.2,92.1" id="Shape" stroke="#443356" stroke-width="2"></path>
                <path d="M31.8,88.1 C31.8,88.1 51.5,99.7 59,115.7 C61.1,120.2 65.7,123.1 70.7,122.7 C70.9,122.7 71.1,122.7 71.3,122.6 C78.9,121.9 83.9,114.4 81.6,107.2 C79.9,101.8 76.8,95 71.3,88" id="Shape" stroke="#443356" stroke-width="2"></path>
                <path d="M79.9,92.9 C79.9,92.9 91.3,101 93.4,126.4 L94.4,144.6 C94.7,149.8 94.2,155.1 92.9,160.2 C91.4,165.9 91,171.8 91.5,177.7 L94.3,208.1 C94.6,211.8 94.7,215.5 94.5,219.1 L93.8,230.5 C93.6,233.5 91.1,235.8 88.2,235.8 C78.2,235.8 68.4,233.7 59.3,229.7 L50.8,226 C46.5,224.1 41.6,223.9 37.2,225.3" id="Shape" stroke="#443356" stroke-width="2"></path>
                <path d="M59.9,218.2 C59.8,218.2 59.7,218.2 59.6,218.1 L56.9,216.9 C53.4,215.4 49.8,214.6 46.1,214.6 C44.5,214.6 43,214.7 41.4,215 C41,215.1 40.6,214.8 40.5,214.4 C40.4,214 40.7,213.6 41.1,213.5 C42.7,213.2 44.4,213.1 46,213.1 C50,213.1 53.8,213.9 57.5,215.5 L60.2,216.7 C60.6,216.9 60.8,217.3 60.6,217.7 C60.5,218 60.2,218.2 59.9,218.2 Z" id="Shape" fill="#FFFFFF" fill-rule="nonzero"></path>
                <path d="M64.2,71 L64.7,77 C65.4,81.3 67.9,85.2 71.6,87.6 L84.2,95.7 C96,103.7 103,117.3 102.1,131.6 C101.9,134.6 101.4,137.8 100.5,141.1 C100.5,141.1 106.1,157.1 100.5,176.5 C100,178.2 100.1,180 100.7,181.7 C103.2,188.4 108.7,203.5 122.8,211.2 C123.3,211.5 123.9,211.5 124.4,211.3 C128.5,209.7 132.9,211.3 137.2,211.9 C141.1,212.5 146.6,212.6 152.5,210.6 L152.5,211.6 C152.5,214.7 150.4,217.4 147.4,218 C145.5,218.4 143,218.8 139.7,218.9 C139.7,218.9 152.5,224.6 155,244.7 L154.5,244.7 C152.1,244.7 150,243.3 148.9,241.2 C147.2,237.7 144.4,232.6 141.1,230.4 C141.1,230.4 148,238.7 145.3,251.6 L143.2,250.3 C141.6,249.3 140.5,247.6 140.5,245.7 C140.5,243.5 140,240.2 137.7,236 C137.7,236 137.7,244.4 135.3,248.5 L135.2,248.5 C133.2,248.1 131.9,246.3 132.1,244.2 C132.4,242 132.2,239.1 130.5,236 C130.5,236 129.8,240.9 126.3,245.7 C125,245.7 124.1,244.6 124.3,243.3 C125,239.1 125.2,230.2 115.9,224.5 L94.4,208" id="Shape" stroke="#443356" stroke-width="2" stroke-linecap="round" stroke-linejoin="round"></path>
                <path d="M138.7,238.1 C138.3,236.2 137.3,234.3 135.7,232.4" id="Shape" stroke="#000000" stroke-width="1.5" stroke-linecap="round" stroke-linejoin="round"></path>
                <path d="M130.3,234.4 C130.3,234.4 140.5,229.2 141.7,226.4" id="Shape" stroke="#443356" stroke-width="1.5" opacity="0.34" stroke-linecap="round"></path>
                <path d="M91.8,235.1 L91.8,240.9 C91.8,240.9 100.4,261.4 99.7,292.6" id="Shape" stroke="#443356" stroke-width="2" stroke-linecap="round" fill-rule="nonzero"></path>
                <path d="M21.3,235.1 C21.3,235.1 17.7,263.8 19.4,292.6" id="Shape" stroke="#443356" stroke-width="2" fill="#FFFFFF" fill-rule="nonzero" stroke-linecap="round"></path>
                <path d="M78.2,275.8 C74.9,278 73,281.7 73,285.6 L73,292.6" id="Shape" stroke="#443356" stroke-width="1.5" stroke-linecap="round" fill-rule="nonzero"></path>
                <path d="M61.7,265.2 C61.5,265.2 61.3,265.2 61.1,265.1 C60.5,264.8 60.2,264 60.5,263.4 L63.1,258 C64.3,255.5 64.1,252.7 62.4,250.3 C61.1,248.4 60.4,246.2 60.4,243.9 L60.4,239.2 C60.4,238.5 61,237.9 61.7,237.9 C62.4,237.9 63,238.5 63,239.2 L63,243.9 C63,245.6 63.5,247.3 64.6,248.8 C66.7,251.9 67,255.7 65.5,259.1 L62.9,264.5 C62.6,264.9 62.1,265.2 61.7,265.2 Z" id="Shape" fill="#443356" fill-rule="nonzero" opacity="0.34"></path>
                <path d="M82.2,266.6 C82,266.6 81.8,266.6 81.6,266.5 C81,266.2 80.7,265.4 81,264.8 L83.6,259.4 C84.8,256.9 84.6,254.1 82.9,251.7 C81.6,249.8 80.9,247.6 80.9,245.3 L80.9,240.6 C80.9,239.9 81.5,239.3 82.2,239.3 C82.9,239.3 83.5,239.9 83.5,240.6 L83.5,245.3 C83.5,247 84,248.7 85.1,250.2 C87.2,253.3 87.5,257.1 86,260.5 L83.4,265.9 C83.1,266.3 82.7,266.6 82.2,266.6 Z" id="Shape" fill="#443356" fill-rule="nonzero" opacity="0.34"></path>
                <path d="M25.3,255 C25.3,255 39.4,256.7 44.2,239.5" id="Shape" stroke="#443356" stroke-width="1.5" stroke-linecap="round"></path>
                <path d="M253.3,208.5 C253.2,208.5 253.2,208.5 253.1,208.5 C246.5,207.2 240.4,204.7 235.1,201.3 C234.7,201.1 234.6,200.6 234.9,200.2 C235.1,199.8 235.6,199.7 236,200 C241.2,203.4 247.1,205.7 253.5,207 C253.9,207.1 254.2,207.5 254.1,207.9 C254,208.3 253.7,208.5 253.3,208.5 Z" id="Shape" fill="#FFFFFF" fill-rule="nonzero"></path>
                <path d="M243,200.8 C242.9,200.8 242.7,200.8 242.6,200.7 C240.2,199.4 238.2,197.7 236.6,195.7 C236.3,195.4 236.4,194.9 236.7,194.6 C237,194.3 237.5,194.4 237.8,194.7 C239.3,196.5 241.2,198.1 243.4,199.3 C243.8,199.5 243.9,200 243.7,200.4 C243.6,200.6 243.3,200.8 243,200.8 Z" id="Shape" fill="#FFFFFF" fill-rule="nonzero"></path>
                <path d="M264.3,191.6 C264,191.6 263.7,191.4 263.6,191.1 C263.4,190.7 263.6,190.2 264,190.1 C267.6,188.4 271.4,187.5 275.1,187.3 C275.5,187.3 275.9,187.6 275.9,188 C275.9,188.4 275.6,188.8 275.2,188.8 C271.6,189 268.1,189.8 264.6,191.4 C264.5,191.6 264.4,191.6 264.3,191.6 Z" id="Shape" fill="#FFFFFF" fill-rule="nonzero"></path>
                <path d="M260.6,153.4 C260.6,153.4 260.5,153.4 260.5,153.4 C247.8,151.1 239.3,153.4 239.3,153.4 C238.9,153.5 238.5,153.3 238.3,152.9 C238.2,152.5 238.4,152.1 238.8,151.9 C239.2,151.8 247.7,149.5 260.7,151.9 C261.1,152 261.4,152.4 261.3,152.8 C261.3,153.1 261,153.4 260.6,153.4 Z" id="Shape" fill="#FFFFFF" fill-rule="nonzero"></path>
                <path d="M294.2,220.2 L294.8,221.9 C299.3,234.9 300.9,248.8 299.3,262.5 L298,290" id="Shape" stroke="#443356" stroke-width="2" stroke-linecap="round" fill-rule="nonzero"></path>
                <path d="M223.8,201 C219.3,210 212.6,247.5 220,290" id="Shape" stroke="#443356" stroke-width="2" stroke-linecap="round" fill-rule="nonzero"></path>
                <path d="M243,234.1 L249.7,242.7 C249.7,242.7 247.9,280.9 257.5,290" id="Shape" stroke="#443356" stroke-width="2" stroke-linecap="round" fill-rule="nonzero"></path>
                <path d="M251.7,277.1 C251.3,282.8 250.8,288.9 250.2,290" id="Shape" stroke="#443356" stroke-width="2" fill="#FFFFFF" fill-rule="nonzero" stroke-linecap="round"></path>
                <polyline id="Shape" stroke="#000000" stroke-width="1.5" stroke-linecap="round" stroke-linejoin="round" points="213.8 227.9 213.8 231.5 216.7 235.8"></polyline>
                <g transform="translate(16.000000, 0.000000)">
                    <path d="M36.6,74.3 C24.9,75.4 14.4,67 13,55.3 L10,29 C9.2,21.9 12.8,15 19.2,11.7 C26.2,8.1 34.3,7.3 41.8,9.5 C48.7,11.5 53.6,17.6 54.1,24.7 L56.1,51.1 C57,62.8 48.4,73.1 36.6,74.3 Z" id="Shape" stroke="#443356" stroke-width="2"></path>
                    <circle id="Oval" stroke="#443356" stroke-width="2" fill="#C8E0E9" cx="22.1" cy="39.6" r="7.2"></circle>
                    <path d="M37,38.1 C36.8,36 34.9,34.4 32.8,34.6 C30.7,34.8 29.1,36.7 29.3,38.8" id="Shape" stroke="#443356" stroke-width="2"></path>
                    <path d="M50.6,28.6 C50.4,28.6 50.1,28.5 49.9,28.4 C47.9,27.1 45.5,26.5 43.1,26.7 C41.9,26.8 40.8,27.1 39.7,27.6 C39,27.9 38.3,27.6 38,27 C37.7,26.3 38,25.6 38.6,25.3 C39.9,24.7 41.3,24.3 42.8,24.2 C45.8,23.9 48.7,24.6 51.3,26.3 C51.9,26.7 52.1,27.5 51.7,28.1 C51.5,28.4 51.1,28.6 50.6,28.6 Z" id="Shape" fill="#443356" fill-rule="nonzero"></path>
                    <path d="M15.6,32 C15.3,32 14.9,31.9 14.7,31.6 C14.2,31.1 14.2,30.3 14.7,29.8 C16.9,27.7 19.6,26.4 22.6,26.1 C24.1,26 25.5,26.1 26.9,26.4 C27.6,26.6 28,27.3 27.9,28 C27.7,28.7 27,29.1 26.3,29 C25.2,28.7 24,28.7 22.8,28.8 C20.4,29 18.2,30.1 16.4,31.7 C16.3,31.9 15.9,32 15.6,32 Z" id="Shape" fill="#443356" fill-rule="nonzero"></path>
                    <circle id="Oval" stroke="#443356" stroke-width="2" fill="#C8E0E9" cx="44.2" cy="37.4" r="7.2"></circle>
                    <path d="M15,38.3 L10.3,38.8" id="Shape" stroke="#443356" stroke-width="2"></path>
                    <path d="M55.6,34.3 L50.9,34.8" id="Shape" stroke="#443356" stroke-width="2"></path>
                    <path d="M10.4,40.1 C9.2,35.9 7,31.9 4.1,28.6 L1.6,25.8 C1,25.1 0.6,24.2 0.5,23.2 C0.3,20.7 2.1,18.5 4.6,18.3 C6.2,18.1 7.3,16.7 7.2,15.2 C6.9,11.9 8.4,8.7 11.2,6.9 C18.1,2.5 32.2,-3.7 50.3,4.3 L47.3,4.6 C47.3,4.6 59.8,4.9 57.7,19.6 C59.7,19.4 61.2,21.4 60.4,23.3 L54.9,35.8 L53.7,23.3 C53.7,23.3 51,12.1 35.1,12.2 C35.1,12.2 40.1,11.9 42.9,18.2 C42.9,18.2 28.2,9.8 13.1,21.1 L13.4,21.7 C14.3,23.3 14.1,25.3 12.9,26.7 C12.1,27.6 11.7,28.8 11.8,30 L12.3,35.2 C12.4,36.2 12.2,37.1 11.7,38 L10.4,40.1 Z" id="Shape" fill="#443355" fill-rule="nonzero"></path>
                    <path d="M34.3,41.6 C33.8,43.6 35.1,46 37,47.1 C38.1,47.8 38.8,49 38.9,50.4 C39.1,52.9 37.3,55.2 34.8,55.4 C33.2,55.6 31.8,54.9 30.8,53.8" id="Shape" stroke="#443356" stroke-width="1.5" opacity="0.34" stroke-linecap="round"></path>
                    <path d="M27.3,59.7 C26.8,59.8 26.5,60.4 26.9,60.8 C27.5,61.5 28.3,62.1 29.1,62.7 C34.2,66.1 40.3,64.5 43.5,59.2 C43.8,58.7 43.4,58.2 42.9,58.2 L27.3,59.7 Z" id="Shape" stroke="#443356" stroke-width="1.5" stroke-linecap="round"></path>
                    <g transform="translate(54.000000, 34.000000)" id="Shape" stroke="#443356">
                        <path d="M4.2,10.5 C4.4,10.2 4.6,9.9 4.7,9.6 C5.1,8.3 5.4,7.1 5.3,5.8 C5.3,5.1 4.9,4.6 4.7,4.4 C4.5,4.2 4,3.8 3.2,3.9 L1.9,4" stroke-width="1.5" opacity="0.34" stroke-linecap="round" stroke-linejoin="round"></path>
                        <path d="M2,15.5 C4.5,15.3 6.8,13.5 7.7,10.9 C8.2,9.4 8.6,7.7 8.6,5.7 C8.5,2.4 5.9,-0.1 2.9,0.2 L0.5,0.4" stroke-width="2"></path>
                    </g>
                    <g transform="translate(3.000000, 38.000000)" id="Shape" stroke="#443356">
                        <path d="M6,11.3 C5.7,11.1 5.5,10.8 5.3,10.5 C4.6,9.4 4.2,8.2 4,6.9 C3.9,6.2 4.2,5.6 4.3,5.4 C4.5,5.1 4.9,4.7 5.6,4.6 L6.9,4.5" stroke-width="1.5" opacity="0.34" stroke-linecap="round" stroke-linejoin="round"></path>
                        <path d="M9.2,15.8 C6.7,16 4.1,14.7 2.7,12.4 C1.9,11.1 1.2,9.4 0.9,7.5 C0.4,4.3 2.5,1.3 5.4,1 L7.8,0.8" stroke-width="2"></path>
                    </g>
                </g>
                <path d="M51.7,96.5 L56.7,96.5 C57.4,96.5 58.1,96.8 58.6,97.3 C59.8,98.5 61.8,98.3 62.7,96.8 L62.9,96.4 C63.2,95.9 63.7,95.5 64.3,95.3 L68.8,93.7" id="Shape" stroke="#443356" stroke-width="1.5" opacity="0.34" stroke-linecap="round" stroke-linejoin="round"></path>
                <path d="M246.5,99.1 L251.5,99.1 C252.2,99.1 252.9,99.4 253.4,99.9 C254.6,101.1 256.6,100.9 257.5,99.4 L257.7,99 C258,98.5 258.5,98.1 259.1,97.9 L263.6,96.3" id="Shape" stroke="#443356" stroke-width="1.5" opacity="0.34" stroke-linecap="round" stroke-linejoin="round"></path>
                <path d="M273.5,57.1 L274.1,57.1 C276.9,57.1 279.4,55.2 280,52.4 C280.2,51.5 280.4,50.6 280.4,49.5 C280.6,46.1 277.8,43.2 274.3,43.2" id="Shape" stroke="#443356" stroke-width="2" fill="#FFFFFF" fill-rule="nonzero" stroke-linecap="round"></path>
                <path d="M247,88.3 C247,88.3 261.1,89 271,75.1 C271,75.1 270.3,70.9 270.1,66.7 C270.1,66.7 267.8,78 254.4,79.1 C254.4,79.1 244.6,79.3 241,73.7 L239,80.4 L247,88.3 Z" id="Shape" fill="#443356" fill-rule="nonzero" opacity="0.34"></path>
                <path d="M237.2,57.1 L228.4,55.6 C224.7,66.2 222.8,77.3 222.8,88.5 L222.8,88.6 C222.8,91.7 224,94.7 226.3,96.9 C227.5,98.1 229,99.1 230.6,99.7 L235,101.3 C235.1,101.3 240.7,103.4 246.5,99.5 C249.1,97.2 250.7,93.9 250.7,90.2 L250.7,88.5 C250.7,85.2 249.4,82.1 247.1,79.8 L244.7,77.4 L244.9,66.6 L237.2,57.1 Z" id="Shape" fill="#DF74E8" fill-rule="nonzero"></path>
                <path d="M233.1,57.1 L232.5,57.1 C229.7,57.1 227.2,55.2 226.6,52.4 C226.4,51.5 226.2,50.6 226.2,49.5 C226,46.1 228.8,43.2 232.3,43.2" id="Shape" stroke="#443356" stroke-width="2" fill="#FFFFFF" fill-rule="nonzero" stroke-linecap="round"></path>
                <path d="M273.6,45.3 C273.4,52.9 272.3,59.9 270.1,66.8 C267.8,73.9 261.6,78.8 254.4,79.2 C254.1,79.2 253.9,79.2 253.6,79.2 C245.5,79.4 238.3,73.5 236.3,65.3 C234.5,58 233.4,50.7 232.8,42.7 C232.7,41.6 233.1,40.4 233.8,39.6 C235.4,37.7 238.5,33.2 240.9,24.8 L245.7,22 C247.9,20.8 250.4,20.3 252.8,20.9 L255.8,21.5 C263.8,23.2 270.1,29.7 271.9,38.1 L273.6,45.3 Z" id="Shape" stroke="#443356" stroke-width="2" fill="#FFFFFF" fill-rule="nonzero" stroke-linecap="round"></path>
                <ellipse id="Oval" fill="#443356" fill-rule="nonzero" cx="263.9" cy="45.7" rx="1.5" ry="3"></ellipse>
                <path d="M239,17.6 C239,17.6 242.8,44.1 277,42.8 L277,34.1 C277,21.8 267,11.8 254.7,11.8 L244.7,11.8 C241.6,11.9 239,14.4 239,17.6 Z" id="Shape" fill="#DF74E8" fill-rule="nonzero"></path>
                <path d="M252.3,42.2 C252.3,44.7 253,47.2 254.3,49.4 L256.6,53.3 C258.5,56.5 256.5,60.8 252.7,61.1 C252.5,61.1 252.4,61.1 252.2,61.1" id="Shape" stroke="#443356" stroke-width="1.5" opacity="0.34" stroke-linecap="round"></path>
                <ellipse id="Oval" fill="#443356" fill-rule="nonzero" cx="242.5" cy="45.7" rx="1.5" ry="3"></ellipse>
                <path d="M246.7,37.2 C245.4,36.5 244,36.2 242.5,36.2 C240.2,36.2 238.1,37.1 236.5,38.5" id="Shape" stroke="#443356" stroke-width="1.5" stroke-linecap="round"></path>
                <path d="M258.8,37.2 C260.1,36.5 261.5,36.2 263,36.2 C265.3,36.2 267.4,37.1 269,38.5" id="Shape" stroke="#443356" stroke-width="1.5" stroke-linecap="round"></path>
                <g transform="translate(244.000000, 65.000000)" id="Shape">
                    <path d="M3,1.6 C3,1.6 5.2,5.8 9.4,5.8 C12,5.8 13.9,4.3 14.9,3.2 L16.1,2" stroke="#443356" stroke-width="1.5" stroke-linecap="round"></path>
                    <path d="M0.6,1.3 L4.8,0.2 C5.4,-6.50868248e-15 6,-6.50868248e-15 6.6,0.1 L9.3,0.6 L12,0.1 C12.6,7.70217223e-15 13.2,7.70217223e-15 13.8,0.2 L18,1.3 C18,1.3 15.9,3.6 11.9,3 C10.1,2.7 8.4,2.7 6.6,3 C2.7,3.6 0.6,1.3 0.6,1.3 Z" fill="#443356" fill-rule="nonzero"></path>
                </g>
                <path d="M299.1,128.7 C298.3,133.7 295.4,140.4 292.6,144.5 C291.7,145.9 290.6,147.5 289.7,149.4" id="Shape" stroke="#443356" stroke-width="2" fill="#FFFFFF" fill-rule="nonzero" stroke-linecap="round"></path>
                <g transform="translate(260.000000, 197.000000)" id="Shape" stroke="#443356">
                    <path d="M34.4,8.9 C33.3,9.3 32.1,9.2 31,8.6 L19.7,2.2 C16.2,0.2 11.9,0.7 8.9,3.3 L1.2,10.1 C0.8,10.4 0.6,10.9 0.6,11.4 C0.6,12.6 1.7,13.4 2.8,13 L3.7,12.7 L5.5,14.9 L4.3,16.4 C3.9,16.9 3.7,17.4 3.7,18 C3.7,19.1 4.3,20 5.3,20.4 C7.5,21.3 9.9,21.5 12.2,21.1 C14.2,20.7 16.2,20.2 17.7,19.8 C19.4,19.3 21.3,20 22.2,21.5 C23.3,23.3 25.2,24.4 27.3,24.4 C31.9,24.4 36.5,22.9 40.1,20 C40.6,19.6 41.1,19.2 41.6,18.8 C38.1,15.9 35.8,11.9 34.4,8.9 Z" stroke-width="2" fill="#FFFFFF" fill-rule="nonzero" stroke-linejoin="round"></path>
                    <path d="M2.7,12.7 L12.6,6.5" stroke-width="1.5" opacity="0.34" stroke-linecap="round"></path>
                    <path d="M18.4,10.2 L16.4,10 C15,9.9 13.6,10.2 12.3,10.9 L5.5,14.8" stroke-width="1.5" opacity="0.34" stroke-linecap="round"></path>
                    <path d="M4.8,19.1 L16.4,14.6 C17.7,14.1 19,14.1 20.3,14.6 L22.8,15.6" stroke-width="1.5" opacity="0.34" stroke-linecap="round"></path>
                </g>
                <path d="M300.2,219 L298.6,217.9 C294.7,215.2 292,211 291.1,206.3 L290.8,204.5 C290.7,203.8 291.1,203.1 291.8,203 L295.9,202.2 C296.3,202.1 296.7,202.4 296.8,202.8 L297.2,205.1 C297.8,208.2 299.6,210.9 302.1,212.7 L304.5,214.4 C305.1,214.8 305.2,215.7 304.6,216.2 L301.9,218.8 C301.6,219.4 300.8,219.4 300.2,219 Z" id="Shape" fill="#443356" fill-rule="nonzero"></path>
                <path d="M286.9,290 L288.5,261.1 C289.3,247.7 288,234.3 284.8,221.3" id="Shape" stroke="#443356" stroke-width="1.5" opacity="0.34" stroke-linecap="round"></path>
                <path d="M36.2,81.9 C36.2,81.9 56.8,81.9 64.4,72 L64.1,69.5 C64.1,69.5 60.2,74.2 52.6,74.2 C52.6,74.2 44,75.8 37,69.5 C37,69.6 38.7,77.8 36.2,81.9 Z" id="Shape" fill="#443356" fill-rule="nonzero" opacity="0.34"></path>
            </g>
        </g>
    </g>
</svg>